<svg width="363" height="110" viewBox="0 0 363 110" fill="none" xmlns="http://www.w3.org/2000/svg">
<path d="M114 50H249" stroke="#D57E39" stroke-opacity="0.8" stroke-width="2" stroke-linecap="round"/>
<path d="M118.005 39.48L117.945 42.84H118.465C119.212 41.2533 119.898 39.56 120.525 37.76C121.152 35.9467 121.465 34.5667 121.465 33.62C121.465 33.2467 121.392 32.8867 121.245 32.54C122.258 31.8467 123.192 31.5 124.045 31.5C125.378 31.5 126.045 32.2533 126.045 33.76C126.045 34.5067 125.838 35.4533 125.425 36.6C125.025 37.7333 124.425 39.16 123.625 40.88C122.825 42.5867 122.398 43.5067 122.345 43.64L122.625 44.74C122.012 45.2333 121.225 45.6533 120.265 46C119.305 46.3333 118.245 46.5 117.085 46.5C115.925 46.5 115.065 46.3133 114.505 45.94C113.945 45.5667 113.665 44.94 113.665 44.06L113.685 40.38C113.685 37.3267 113.312 35.1733 112.565 33.92C112.218 33.3467 111.792 32.8867 111.285 32.54C112.192 31.8467 113.232 31.5 114.405 31.5C115.472 31.5 116.265 31.92 116.785 32.76C117.305 33.5867 117.645 34.58 117.805 35.74C117.938 36.7933 118.005 38.04 118.005 39.48ZM133.396 30.84C133.396 31.3467 133.129 31.7867 132.596 32.16C132.063 32.52 131.456 32.7 130.776 32.7C130.096 32.7 129.556 32.5667 129.156 32.3C128.769 32.0333 128.576 31.6733 128.576 31.22C128.576 30.6067 128.863 30.1267 129.436 29.78C130.009 29.4333 130.616 29.26 131.256 29.26C131.896 29.26 132.409 29.3933 132.796 29.66C133.196 29.9267 133.396 30.32 133.396 30.84ZM129.496 46.5C128.669 46.5 128.069 46.2933 127.696 45.88C127.323 45.4667 127.136 44.84 127.136 44C127.136 43.1467 127.563 40.8733 128.416 37.18L127.296 35.5C128.963 34.5 130.276 34 131.236 34C131.783 34 132.169 34.12 132.396 34.36C132.623 34.5867 132.736 34.96 132.736 35.48C132.736 35.68 132.489 36.8533 131.996 39C131.503 41.1467 131.256 42.68 131.256 43.6C131.256 44.52 131.463 45.16 131.876 45.52C131.129 46.1733 130.336 46.5 129.496 46.5ZM141.07 36.66C140.577 36.8067 140.183 37.02 139.89 37.3C139.597 37.5667 139.337 37.9533 139.11 38.46C141.363 38.7933 142.95 39.2733 143.87 39.9C144.79 40.5267 145.25 41.42 145.25 42.58C145.25 43.3133 145.043 43.9533 144.63 44.5C144.217 45.0333 143.697 45.44 143.07 45.72C141.843 46.24 140.637 46.5 139.45 46.5C136.077 46.5 134.39 45.7733 134.39 44.32C134.39 43.5867 134.717 42.8533 135.37 42.12C135.703 42.5867 136.203 42.9867 136.87 43.32C137.55 43.6533 138.21 43.82 138.85 43.82C139.957 43.82 140.623 43.3333 140.85 42.36C138.823 42.12 137.357 41.6667 136.45 41C135.543 40.3333 135.09 39.3933 135.09 38.18C135.09 37.22 135.403 36.4133 136.03 35.76C136.67 35.1067 137.457 34.6533 138.39 34.4C139.337 34.1333 140.397 34 141.57 34C142.757 34 143.73 34.2267 144.49 34.68C145.263 35.12 145.65 35.66 145.65 36.3C145.65 36.94 145.423 37.4333 144.97 37.78C144.53 38.1267 144.043 38.3 143.51 38.3C142.99 38.3 142.51 38.16 142.07 37.88C141.643 37.6 141.31 37.1933 141.07 36.66ZM154.001 30.84C154.001 31.3467 153.735 31.7867 153.201 32.16C152.668 32.52 152.061 32.7 151.381 32.7C150.701 32.7 150.161 32.5667 149.761 32.3C149.375 32.0333 149.181 31.6733 149.181 31.22C149.181 30.6067 149.468 30.1267 150.041 29.78C150.615 29.4333 151.221 29.26 151.861 29.26C152.501 29.26 153.015 29.3933 153.401 29.66C153.801 29.9267 154.001 30.32 154.001 30.84ZM150.101 46.5C149.275 46.5 148.675 46.2933 148.301 45.88C147.928 45.4667 147.741 44.84 147.741 44C147.741 43.1467 148.168 40.8733 149.021 37.18L147.901 35.5C149.568 34.5 150.881 34 151.841 34C152.388 34 152.775 34.12 153.001 34.36C153.228 34.5867 153.341 34.96 153.341 35.48C153.341 35.68 153.095 36.8533 152.601 39C152.108 41.1467 151.861 42.68 151.861 43.6C151.861 44.52 152.068 45.16 152.481 45.52C151.735 46.1733 150.941 46.5 150.101 46.5ZM155.535 38.78C155.442 38.4067 155.395 38.06 155.395 37.74C155.395 37.0867 155.589 36.5933 155.975 36.26C156.362 35.9267 156.862 35.76 157.475 35.76C157.475 35.0667 157.295 34.3133 156.935 33.5C157.589 33.02 158.182 32.66 158.715 32.42C159.262 32.1667 159.835 32.04 160.435 32.04C161.035 32.04 161.449 32.1533 161.675 32.38C161.915 32.5933 162.035 32.9267 162.035 33.38C162.035 33.8333 161.942 34.54 161.755 35.5C162.289 35.42 162.829 35.3067 163.375 35.16C163.469 35.44 163.515 35.8 163.515 36.24C163.515 36.68 163.342 37.0933 162.995 37.48C162.662 37.8533 162.169 38.04 161.515 38.04H161.215C160.735 40.2133 160.495 41.8867 160.495 43.06C160.495 44.2333 160.702 45.0533 161.115 45.52C160.369 46.1733 159.575 46.5 158.735 46.5C157.895 46.5 157.289 46.2533 156.915 45.76C156.555 45.2533 156.375 44.4733 156.375 43.42C156.375 42.78 156.609 41.1 157.075 38.38C156.542 38.4733 156.029 38.6067 155.535 38.78ZM170.427 39.48L170.367 42.84H170.887C171.634 41.2533 172.32 39.56 172.947 37.76C173.574 35.9467 173.887 34.5667 173.887 33.62C173.887 33.2467 173.814 32.8867 173.667 32.54C174.68 31.8467 175.614 31.5 176.467 31.5C177.8 31.5 178.467 32.2533 178.467 33.76C178.467 34.5067 178.26 35.4533 177.847 36.6C177.447 37.7333 176.847 39.16 176.047 40.88C175.247 42.5867 174.82 43.5067 174.767 43.64L175.047 44.74C174.434 45.2333 173.647 45.6533 172.687 46C171.727 46.3333 170.667 46.5 169.507 46.5C168.347 46.5 167.487 46.3133 166.927 45.94C166.367 45.5667 166.087 44.94 166.087 44.06L166.107 40.38C166.107 37.3267 165.734 35.1733 164.987 33.92C164.64 33.3467 164.214 32.8867 163.707 32.54C164.614 31.8467 165.654 31.5 166.827 31.5C167.894 31.5 168.687 31.92 169.207 32.76C169.727 33.5867 170.067 34.58 170.227 35.74C170.36 36.7933 170.427 38.04 170.427 39.48ZM186.29 43.54L186.09 43.44C185.73 44.4 185.21 45.1533 184.53 45.7C183.863 46.2333 183.117 46.5 182.29 46.5C181.157 46.5 180.25 46.0733 179.57 45.22C178.89 44.3667 178.55 43.2267 178.55 41.8C178.55 39.5867 179.29 37.7333 180.77 36.24C182.263 34.7467 184.117 34 186.33 34C186.903 34 187.43 34.0533 187.91 34.16C187.99 34.5333 188.037 34.86 188.05 35.14C188.717 34.7133 189.403 34.5 190.11 34.5C191.083 34.5 191.57 35.0267 191.57 36.08C191.57 36.4533 191.357 37.58 190.93 39.46C190.517 41.34 190.31 42.7333 190.31 43.64C190.31 44.5467 190.517 45.1733 190.93 45.52C190.183 46.1733 189.403 46.5 188.59 46.5C187.79 46.5 187.203 46.26 186.83 45.78C186.47 45.3 186.29 44.5533 186.29 43.54ZM182.31 40.82C182.31 41.4733 182.443 41.98 182.71 42.34C182.99 42.6867 183.383 42.86 183.89 42.86C184.397 42.86 184.897 42.6733 185.39 42.3C185.883 41.9267 186.297 41.4133 186.63 40.76C186.75 39.4133 187.01 37.82 187.41 35.98C186.063 35.98 184.877 36.4667 183.85 37.44C182.823 38.4133 182.31 39.54 182.31 40.82ZM195.457 33.56L194.337 31.96C196.003 30.9867 197.317 30.5 198.277 30.5C198.823 30.5 199.21 30.6133 199.437 30.84C199.663 31.0533 199.777 31.4667 199.777 32.08C199.777 32.68 199.477 34.3867 198.877 37.2C198.29 40.0133 197.997 41.9867 197.997 43.12C197.997 44.2533 198.203 45.0533 198.617 45.52C197.683 46.1733 196.837 46.5 196.077 46.5C195.317 46.5 194.757 46.2533 194.397 45.76C194.05 45.2533 193.877 44.56 193.877 43.68C193.877 42.8 194.123 41 194.617 38.28C195.11 35.56 195.39 33.9867 195.457 33.56ZM208.812 44.54L208.612 44.44C207.572 45.8133 206.332 46.5 204.892 46.5C203.825 46.5 202.919 46.08 202.172 45.24C201.439 44.3867 201.072 43.24 201.072 41.8C201.072 40.0133 201.699 38.3867 202.952 36.92C203.565 36.2 204.385 35.62 205.412 35.18C206.439 34.7267 207.585 34.5 208.852 34.5C209.092 34.5 209.519 34.5267 210.132 34.58C210.159 34.3 210.219 33.96 210.312 33.56L209.192 31.96C210.859 30.9867 212.172 30.5 213.132 30.5C213.679 30.5 214.065 30.6133 214.292 30.84C214.519 31.0533 214.632 31.4667 214.632 32.08C214.632 32.68 214.332 34.3867 213.732 37.2C213.145 40.0133 212.852 42.0133 212.852 43.2C212.852 44.3733 213.059 45.1467 213.472 45.52C212.725 46.1733 211.945 46.5 211.132 46.5C210.332 46.5 209.745 46.3 209.372 45.9C208.999 45.4867 208.812 45.0333 208.812 44.54ZM204.832 41.04C204.832 41.8 205.025 42.4 205.412 42.84C205.812 43.28 206.305 43.5 206.892 43.5C207.652 43.5 208.345 43.14 208.972 42.42C209.185 40.0467 209.485 37.9933 209.872 36.26C208.339 36.26 207.112 36.7533 206.192 37.74C205.285 38.7267 204.832 39.8267 204.832 41.04ZM216.233 44.02C216.233 43.4867 216.366 42.4533 216.633 40.92C216.913 39.3867 217.199 37.9867 217.493 36.72L216.453 35.12C218.119 34.3733 219.286 34 219.953 34C220.633 34 220.973 34.4267 220.973 35.28C220.973 35.7467 220.753 36.72 220.313 38.2L220.513 38.3C221.473 35.4333 222.666 34 224.093 34C224.746 34 225.246 34.2 225.593 34.6C225.939 35 226.113 35.4467 226.113 35.94C226.113 36.6733 225.839 37.3 225.293 37.82C224.746 38.34 223.926 38.6 222.833 38.6C221.179 38.6 220.353 40.3 220.353 43.7C220.353 44.5267 220.493 45.1333 220.773 45.52C219.946 46.1733 219.186 46.5 218.493 46.5C216.986 46.5 216.233 45.6733 216.233 44.02ZM232.339 46.5C230.512 46.5 229.099 46.0267 228.099 45.08C227.112 44.1333 226.619 42.8533 226.619 41.24C226.619 39.0933 227.352 37.3533 228.819 36.02C230.299 34.6733 232.152 34 234.379 34C235.619 34 236.559 34.28 237.199 34.84C237.839 35.3867 238.159 36.1133 238.159 37.02C238.159 38.26 237.552 39.2933 236.339 40.12C235.139 40.9333 233.279 41.3467 230.759 41.36C230.799 42.2133 230.992 42.8867 231.339 43.38C231.685 43.86 232.119 44.1 232.639 44.1C233.159 44.1 233.605 43.9267 233.979 43.58C234.365 43.2333 234.559 42.6667 234.559 41.88C236.505 41.88 237.479 42.34 237.479 43.26C237.479 44.0467 236.999 44.7867 236.039 45.48C235.079 46.16 233.845 46.5 232.339 46.5ZM234.039 36.34C233.359 36.34 232.732 36.68 232.159 37.36C231.599 38.04 231.192 38.84 230.939 39.76C232.272 39.6533 233.272 39.3533 233.939 38.86C234.619 38.3533 234.959 37.82 234.959 37.26C234.959 36.9933 234.872 36.7733 234.699 36.6C234.539 36.4267 234.319 36.34 234.039 36.34ZM246.343 36.66C245.85 36.8067 245.457 37.02 245.163 37.3C244.87 37.5667 244.61 37.9533 244.383 38.46C246.637 38.7933 248.223 39.2733 249.143 39.9C250.063 40.5267 250.523 41.42 250.523 42.58C250.523 43.3133 250.317 43.9533 249.903 44.5C249.49 45.0333 248.97 45.44 248.343 45.72C247.117 46.24 245.91 46.5 244.723 46.5C241.35 46.5 239.663 45.7733 239.663 44.32C239.663 43.5867 239.99 42.8533 240.643 42.12C240.977 42.5867 241.477 42.9867 242.143 43.32C242.823 43.6533 243.483 43.82 244.123 43.82C245.23 43.82 245.897 43.3333 246.123 42.36C244.097 42.12 242.63 41.6667 241.723 41C240.817 40.3333 240.363 39.3933 240.363 38.18C240.363 37.22 240.677 36.4133 241.303 35.76C241.943 35.1067 242.73 34.6533 243.663 34.4C244.61 34.1333 245.67 34 246.843 34C248.03 34 249.003 34.2267 249.763 34.68C250.537 35.12 250.923 35.66 250.923 36.3C250.923 36.94 250.697 37.4333 250.243 37.78C249.803 38.1267 249.317 38.3 248.783 38.3C248.263 38.3 247.783 38.16 247.343 37.88C246.917 37.6 246.583 37.1933 246.343 36.66Z" fill="#43362E"/>
</svg>
