<svg width="322" height="110" viewBox="0 0 322 110" fill="none" xmlns="http://www.w3.org/2000/svg">
<path d="M34.0103 50.96L33.8903 57.68H34.9303C36.4236 54.5067 37.797 51.12 39.0503 47.52C40.3036 43.8933 40.9303 41.1333 40.9303 39.24C40.9303 38.4933 40.7836 37.7733 40.4903 37.08C42.517 35.6933 44.3836 35 46.0903 35C48.757 35 50.0903 36.5067 50.0903 39.52C50.0903 41.0133 49.677 42.9067 48.8503 45.2C48.0503 47.4667 46.8503 50.32 45.2503 53.76C43.6503 57.1733 42.797 59.0133 42.6903 59.28L43.2503 61.48C42.0236 62.4667 40.4503 63.3067 38.5303 64C36.6103 64.6667 34.4903 65 32.1703 65C29.8503 65 28.1303 64.6267 27.0103 63.88C25.8903 63.1333 25.3303 61.88 25.3303 60.12L25.3703 52.76C25.3703 46.6533 24.6236 42.3467 23.1303 39.84C22.437 38.6933 21.5836 37.7733 20.5703 37.08C22.3836 35.6933 24.4636 35 26.8103 35C28.9436 35 30.5303 35.84 31.5703 37.52C32.6103 39.1733 33.2903 41.16 33.6103 43.48C33.877 45.5867 34.0103 48.08 34.0103 50.96ZM64.7919 33.68C64.7919 34.6933 64.2585 35.5733 63.1919 36.32C62.1252 37.04 60.9119 37.4 59.5519 37.4C58.1919 37.4 57.1119 37.1333 56.3119 36.6C55.5385 36.0667 55.1519 35.3467 55.1519 34.44C55.1519 33.2133 55.7252 32.2533 56.8719 31.56C58.0185 30.8667 59.2319 30.52 60.5119 30.52C61.7919 30.52 62.8185 30.7867 63.5919 31.32C64.3919 31.8533 64.7919 32.64 64.7919 33.68ZM56.9919 65C55.3385 65 54.1385 64.5867 53.3919 63.76C52.6452 62.9333 52.2719 61.68 52.2719 60C52.2719 58.2933 53.1252 53.7467 54.8319 46.36L52.5919 43C55.9252 41 58.5519 40 60.4719 40C61.5652 40 62.3385 40.24 62.7919 40.72C63.2452 41.1733 63.4719 41.92 63.4719 42.96C63.4719 43.36 62.9785 45.7067 61.9919 50C61.0052 54.2933 60.5119 57.36 60.5119 59.2C60.5119 61.04 60.9252 62.32 61.7519 63.04C60.2585 64.3467 58.6719 65 56.9919 65ZM80.1397 45.32C79.153 45.6133 78.3664 46.04 77.7797 46.6C77.193 47.1333 76.673 47.9067 76.2197 48.92C80.7264 49.5867 83.8997 50.5467 85.7397 51.8C87.5797 53.0533 88.4997 54.84 88.4997 57.16C88.4997 58.6267 88.0864 59.9067 87.2597 61C86.433 62.0667 85.393 62.88 84.1397 63.44C81.6864 64.48 79.273 65 76.8997 65C70.153 65 66.7797 63.5467 66.7797 60.64C66.7797 59.1733 67.433 57.7067 68.7397 56.24C69.4064 57.1733 70.4064 57.9733 71.7397 58.64C73.0997 59.3067 74.4197 59.64 75.6997 59.64C77.913 59.64 79.2464 58.6667 79.6997 56.72C75.6464 56.24 72.713 55.3333 70.8997 54C69.0864 52.6667 68.1797 50.7867 68.1797 48.36C68.1797 46.44 68.8064 44.8267 70.0597 43.52C71.3397 42.2133 72.913 41.3067 74.7797 40.8C76.673 40.2667 78.793 40 81.1397 40C83.513 40 85.4597 40.4533 86.9797 41.36C88.5264 42.24 89.2997 43.32 89.2997 44.6C89.2997 45.88 88.8464 46.8667 87.9397 47.56C87.0597 48.2533 86.0864 48.6 85.0197 48.6C83.9797 48.6 83.0197 48.32 82.1397 47.76C81.2864 47.2 80.6197 46.3867 80.1397 45.32ZM106.003 33.68C106.003 34.6933 105.469 35.5733 104.403 36.32C103.336 37.04 102.123 37.4 100.763 37.4C99.4028 37.4 98.3228 37.1333 97.5228 36.6C96.7495 36.0667 96.3628 35.3467 96.3628 34.44C96.3628 33.2133 96.9361 32.2533 98.0828 31.56C99.2295 30.8667 100.443 30.52 101.723 30.52C103.003 30.52 104.029 30.7867 104.803 31.32C105.603 31.8533 106.003 32.64 106.003 33.68ZM98.2028 65C96.5495 65 95.3495 64.5867 94.6028 63.76C93.8561 62.9333 93.4828 61.68 93.4828 60C93.4828 58.2933 94.3361 53.7467 96.0428 46.36L93.8028 43C97.1361 41 99.7628 40 101.683 40C102.776 40 103.549 40.24 104.003 40.72C104.456 41.1733 104.683 41.92 104.683 42.96C104.683 43.36 104.189 45.7067 103.203 50C102.216 54.2933 101.723 57.36 101.723 59.2C101.723 61.04 102.136 62.32 102.963 63.04C101.469 64.3467 99.8828 65 98.2028 65ZM109.071 49.56C108.884 48.8133 108.791 48.12 108.791 47.48C108.791 46.1733 109.177 45.1867 109.951 44.52C110.724 43.8533 111.724 43.52 112.951 43.52C112.951 42.1333 112.591 40.6267 111.871 39C113.177 38.04 114.364 37.32 115.431 36.84C116.524 36.3333 117.671 36.08 118.871 36.08C120.071 36.08 120.897 36.3067 121.351 36.76C121.831 37.1867 122.071 37.8533 122.071 38.76C122.071 39.6667 121.884 41.08 121.511 43C122.577 42.84 123.657 42.6133 124.751 42.32C124.937 42.88 125.031 43.6 125.031 44.48C125.031 45.36 124.684 46.1867 123.991 46.96C123.324 47.7067 122.337 48.08 121.031 48.08H120.431C119.471 52.4267 118.991 55.7733 118.991 58.12C118.991 60.4667 119.404 62.1067 120.231 63.04C118.737 64.3467 117.151 65 115.471 65C113.791 65 112.577 64.5067 111.831 63.52C111.111 62.5067 110.751 60.9467 110.751 58.84C110.751 57.56 111.217 54.2 112.151 48.76C111.084 48.9467 110.057 49.2133 109.071 49.56ZM138.854 50.96L138.734 57.68H139.774C141.267 54.5067 142.641 51.12 143.894 47.52C145.147 43.8933 145.774 41.1333 145.774 39.24C145.774 38.4933 145.627 37.7733 145.334 37.08C147.361 35.6933 149.227 35 150.934 35C153.601 35 154.934 36.5067 154.934 39.52C154.934 41.0133 154.521 42.9067 153.694 45.2C152.894 47.4667 151.694 50.32 150.094 53.76C148.494 57.1733 147.641 59.0133 147.534 59.28L148.094 61.48C146.867 62.4667 145.294 63.3067 143.374 64C141.454 64.6667 139.334 65 137.014 65C134.694 65 132.974 64.6267 131.854 63.88C130.734 63.1333 130.174 61.88 130.174 60.12L130.214 52.76C130.214 46.6533 129.467 42.3467 127.974 39.84C127.281 38.6933 126.427 37.7733 125.414 37.08C127.227 35.6933 129.307 35 131.654 35C133.787 35 135.374 35.84 136.414 37.52C137.454 39.1733 138.134 41.16 138.454 43.48C138.721 45.5867 138.854 48.08 138.854 50.96ZM170.58 59.08L170.18 58.88C169.46 60.8 168.42 62.3067 167.06 63.4C165.727 64.4667 164.233 65 162.58 65C160.313 65 158.5 64.1467 157.14 62.44C155.78 60.7333 155.1 58.4533 155.1 55.6C155.1 51.1733 156.58 47.4667 159.54 44.48C162.527 41.4933 166.233 40 170.66 40C171.807 40 172.86 40.1067 173.82 40.32C173.98 41.0667 174.073 41.72 174.1 42.28C175.433 41.4267 176.807 41 178.22 41C180.167 41 181.14 42.0533 181.14 44.16C181.14 44.9067 180.713 47.16 179.86 50.92C179.033 54.68 178.62 57.4667 178.62 59.28C178.62 61.0933 179.033 62.3467 179.86 63.04C178.367 64.3467 176.807 65 175.18 65C173.58 65 172.407 64.52 171.66 63.56C170.94 62.6 170.58 61.1067 170.58 59.08ZM162.62 53.64C162.62 54.9467 162.887 55.96 163.42 56.68C163.98 57.3733 164.767 57.72 165.78 57.72C166.793 57.72 167.793 57.3467 168.78 56.6C169.767 55.8533 170.593 54.8267 171.26 53.52C171.5 50.8267 172.02 47.64 172.82 43.96C170.127 43.96 167.753 44.9333 165.7 46.88C163.647 48.8267 162.62 51.08 162.62 53.64ZM188.913 39.12L186.673 35.92C190.006 33.9733 192.633 33 194.553 33C195.646 33 196.42 33.2267 196.873 33.68C197.326 34.1067 197.553 34.9333 197.553 36.16C197.553 37.36 196.953 40.7733 195.753 46.4C194.58 52.0267 193.993 55.9733 193.993 58.24C193.993 60.5067 194.406 62.1067 195.233 63.04C193.366 64.3467 191.673 65 190.153 65C188.633 65 187.513 64.5067 186.793 63.52C186.1 62.5067 185.753 61.12 185.753 59.36C185.753 57.6 186.246 54 187.233 48.56C188.22 43.12 188.78 39.9733 188.913 39.12ZM215.624 61.08L215.224 60.88C213.144 63.6267 210.664 65 207.784 65C205.65 65 203.837 64.16 202.344 62.48C200.877 60.7733 200.144 58.48 200.144 55.6C200.144 52.0267 201.397 48.7733 203.904 45.84C205.13 44.4 206.77 43.24 208.824 42.36C210.877 41.4533 213.17 41 215.704 41C216.184 41 217.037 41.0533 218.264 41.16C218.317 40.6 218.437 39.92 218.624 39.12L216.384 35.92C219.717 33.9733 222.344 33 224.264 33C225.357 33 226.13 33.2267 226.584 33.68C227.037 34.1067 227.264 34.9333 227.264 36.16C227.264 37.36 226.664 40.7733 225.464 46.4C224.29 52.0267 223.704 56.0267 223.704 58.4C223.704 60.7467 224.117 62.2933 224.944 63.04C223.45 64.3467 221.89 65 220.264 65C218.664 65 217.49 64.6 216.744 63.8C215.997 62.9733 215.624 62.0667 215.624 61.08ZM207.664 54.08C207.664 55.6 208.05 56.8 208.824 57.68C209.624 58.56 210.61 59 211.784 59C213.304 59 214.69 58.28 215.944 56.84C216.37 52.0933 216.97 47.9867 217.744 44.52C214.677 44.52 212.224 45.5067 210.384 47.48C208.57 49.4533 207.664 51.6533 207.664 54.08ZM230.466 60.04C230.466 58.9733 230.732 56.9067 231.266 53.84C231.826 50.7733 232.399 47.9733 232.986 45.44L230.906 42.24C234.239 40.7467 236.572 40 237.906 40C239.266 40 239.946 40.8533 239.946 42.56C239.946 43.4933 239.506 45.44 238.626 48.4L239.026 48.6C240.946 42.8667 243.332 40 246.186 40C247.492 40 248.492 40.4 249.186 41.2C249.879 42 250.226 42.8933 250.226 43.88C250.226 45.3467 249.679 46.6 248.586 47.64C247.492 48.68 245.852 49.2 243.666 49.2C240.359 49.2 238.706 52.6 238.706 59.4C238.706 61.0533 238.986 62.2667 239.546 63.04C237.892 64.3467 236.372 65 234.986 65C231.972 65 230.466 63.3467 230.466 60.04ZM262.678 65C259.024 65 256.198 64.0533 254.198 62.16C252.224 60.2667 251.238 57.7067 251.238 54.48C251.238 50.1867 252.704 46.7067 255.638 44.04C258.598 41.3467 262.304 40 266.758 40C269.238 40 271.118 40.56 272.398 41.68C273.678 42.7733 274.318 44.2267 274.318 46.04C274.318 48.52 273.104 50.5867 270.678 52.24C268.278 53.8667 264.558 54.6933 259.518 54.72C259.598 56.4267 259.984 57.7733 260.678 58.76C261.371 59.72 262.238 60.2 263.278 60.2C264.318 60.2 265.211 59.8533 265.958 59.16C266.731 58.4667 267.118 57.3333 267.118 55.76C271.011 55.76 272.957 56.68 272.957 58.52C272.957 60.0933 271.998 61.5733 270.078 62.96C268.158 64.32 265.691 65 262.678 65ZM266.078 44.68C264.718 44.68 263.464 45.36 262.318 46.72C261.198 48.08 260.384 49.68 259.878 51.52C262.544 51.3067 264.544 50.7067 265.878 49.72C267.238 48.7067 267.918 47.64 267.918 46.52C267.918 45.9867 267.744 45.5467 267.398 45.2C267.078 44.8533 266.638 44.68 266.078 44.68ZM290.687 45.32C289.7 45.6133 288.913 46.04 288.327 46.6C287.74 47.1333 287.22 47.9067 286.767 48.92C291.273 49.5867 294.447 50.5467 296.287 51.8C298.127 53.0533 299.047 54.84 299.047 57.16C299.047 58.6267 298.633 59.9067 297.807 61C296.98 62.0667 295.94 62.88 294.687 63.44C292.233 64.48 289.82 65 287.447 65C280.7 65 277.327 63.5467 277.327 60.64C277.327 59.1733 277.98 57.7067 279.287 56.24C279.953 57.1733 280.953 57.9733 282.287 58.64C283.647 59.3067 284.967 59.64 286.247 59.64C288.46 59.64 289.793 58.6667 290.247 56.72C286.193 56.24 283.26 55.3333 281.447 54C279.633 52.6667 278.727 50.7867 278.727 48.36C278.727 46.44 279.353 44.8267 280.607 43.52C281.887 42.2133 283.46 41.3067 285.327 40.8C287.22 40.2667 289.34 40 291.687 40C294.06 40 296.007 40.4533 297.527 41.36C299.073 42.24 299.847 43.32 299.847 44.6C299.847 45.88 299.393 46.8667 298.487 47.56C297.607 48.2533 296.633 48.6 295.567 48.6C294.527 48.6 293.567 48.32 292.687 47.76C291.833 47.2 291.167 46.3867 290.687 45.32Z" fill="white"/>
<path d="M34.0103 50.96L33.8903 57.68H34.9303C36.4236 54.5067 37.797 51.12 39.0503 47.52C40.3036 43.8933 40.9303 41.1333 40.9303 39.24C40.9303 38.4933 40.7836 37.7733 40.4903 37.08C42.517 35.6933 44.3836 35 46.0903 35C48.757 35 50.0903 36.5067 50.0903 39.52C50.0903 41.0133 49.677 42.9067 48.8503 45.2C48.0503 47.4667 46.8503 50.32 45.2503 53.76C43.6503 57.1733 42.797 59.0133 42.6903 59.28L43.2503 61.48C42.0236 62.4667 40.4503 63.3067 38.5303 64C36.6103 64.6667 34.4903 65 32.1703 65C29.8503 65 28.1303 64.6267 27.0103 63.88C25.8903 63.1333 25.3303 61.88 25.3303 60.12L25.3703 52.76C25.3703 46.6533 24.6236 42.3467 23.1303 39.84C22.437 38.6933 21.5836 37.7733 20.5703 37.08C22.3836 35.6933 24.4636 35 26.8103 35C28.9436 35 30.5303 35.84 31.5703 37.52C32.6103 39.1733 33.2903 41.16 33.6103 43.48C33.877 45.5867 34.0103 48.08 34.0103 50.96ZM64.7919 33.68C64.7919 34.6933 64.2585 35.5733 63.1919 36.32C62.1252 37.04 60.9119 37.4 59.5519 37.4C58.1919 37.4 57.1119 37.1333 56.3119 36.6C55.5385 36.0667 55.1519 35.3467 55.1519 34.44C55.1519 33.2133 55.7252 32.2533 56.8719 31.56C58.0185 30.8667 59.2319 30.52 60.5119 30.52C61.7919 30.52 62.8185 30.7867 63.5919 31.32C64.3919 31.8533 64.7919 32.64 64.7919 33.68ZM56.9919 65C55.3385 65 54.1385 64.5867 53.3919 63.76C52.6452 62.9333 52.2719 61.68 52.2719 60C52.2719 58.2933 53.1252 53.7467 54.8319 46.36L52.5919 43C55.9252 41 58.5519 40 60.4719 40C61.5652 40 62.3385 40.24 62.7919 40.72C63.2452 41.1733 63.4719 41.92 63.4719 42.96C63.4719 43.36 62.9785 45.7067 61.9919 50C61.0052 54.2933 60.5119 57.36 60.5119 59.2C60.5119 61.04 60.9252 62.32 61.7519 63.04C60.2585 64.3467 58.6719 65 56.9919 65ZM80.1397 45.32C79.153 45.6133 78.3664 46.04 77.7797 46.6C77.193 47.1333 76.673 47.9067 76.2197 48.92C80.7264 49.5867 83.8997 50.5467 85.7397 51.8C87.5797 53.0533 88.4997 54.84 88.4997 57.16C88.4997 58.6267 88.0864 59.9067 87.2597 61C86.433 62.0667 85.393 62.88 84.1397 63.44C81.6864 64.48 79.273 65 76.8997 65C70.153 65 66.7797 63.5467 66.7797 60.64C66.7797 59.1733 67.433 57.7067 68.7397 56.24C69.4064 57.1733 70.4064 57.9733 71.7397 58.64C73.0997 59.3067 74.4197 59.64 75.6997 59.64C77.913 59.64 79.2464 58.6667 79.6997 56.72C75.6464 56.24 72.713 55.3333 70.8997 54C69.0864 52.6667 68.1797 50.7867 68.1797 48.36C68.1797 46.44 68.8064 44.8267 70.0597 43.52C71.3397 42.2133 72.913 41.3067 74.7797 40.8C76.673 40.2667 78.793 40 81.1397 40C83.513 40 85.4597 40.4533 86.9797 41.36C88.5264 42.24 89.2997 43.32 89.2997 44.6C89.2997 45.88 88.8464 46.8667 87.9397 47.56C87.0597 48.2533 86.0864 48.6 85.0197 48.6C83.9797 48.6 83.0197 48.32 82.1397 47.76C81.2864 47.2 80.6197 46.3867 80.1397 45.32ZM106.003 33.68C106.003 34.6933 105.469 35.5733 104.403 36.32C103.336 37.04 102.123 37.4 100.763 37.4C99.4028 37.4 98.3228 37.1333 97.5228 36.6C96.7495 36.0667 96.3628 35.3467 96.3628 34.44C96.3628 33.2133 96.9361 32.2533 98.0828 31.56C99.2295 30.8667 100.443 30.52 101.723 30.52C103.003 30.52 104.029 30.7867 104.803 31.32C105.603 31.8533 106.003 32.64 106.003 33.68ZM98.2028 65C96.5495 65 95.3495 64.5867 94.6028 63.76C93.8561 62.9333 93.4828 61.68 93.4828 60C93.4828 58.2933 94.3361 53.7467 96.0428 46.36L93.8028 43C97.1361 41 99.7628 40 101.683 40C102.776 40 103.549 40.24 104.003 40.72C104.456 41.1733 104.683 41.92 104.683 42.96C104.683 43.36 104.189 45.7067 103.203 50C102.216 54.2933 101.723 57.36 101.723 59.2C101.723 61.04 102.136 62.32 102.963 63.04C101.469 64.3467 99.8828 65 98.2028 65ZM109.071 49.56C108.884 48.8133 108.791 48.12 108.791 47.48C108.791 46.1733 109.177 45.1867 109.951 44.52C110.724 43.8533 111.724 43.52 112.951 43.52C112.951 42.1333 112.591 40.6267 111.871 39C113.177 38.04 114.364 37.32 115.431 36.84C116.524 36.3333 117.671 36.08 118.871 36.08C120.071 36.08 120.897 36.3067 121.351 36.76C121.831 37.1867 122.071 37.8533 122.071 38.76C122.071 39.6667 121.884 41.08 121.511 43C122.577 42.84 123.657 42.6133 124.751 42.32C124.937 42.88 125.031 43.6 125.031 44.48C125.031 45.36 124.684 46.1867 123.991 46.96C123.324 47.7067 122.337 48.08 121.031 48.08H120.431C119.471 52.4267 118.991 55.7733 118.991 58.12C118.991 60.4667 119.404 62.1067 120.231 63.04C118.737 64.3467 117.151 65 115.471 65C113.791 65 112.577 64.5067 111.831 63.52C111.111 62.5067 110.751 60.9467 110.751 58.84C110.751 57.56 111.217 54.2 112.151 48.76C111.084 48.9467 110.057 49.2133 109.071 49.56ZM138.854 50.96L138.734 57.68H139.774C141.267 54.5067 142.641 51.12 143.894 47.52C145.147 43.8933 145.774 41.1333 145.774 39.24C145.774 38.4933 145.627 37.7733 145.334 37.08C147.361 35.6933 149.227 35 150.934 35C153.601 35 154.934 36.5067 154.934 39.52C154.934 41.0133 154.521 42.9067 153.694 45.2C152.894 47.4667 151.694 50.32 150.094 53.76C148.494 57.1733 147.641 59.0133 147.534 59.28L148.094 61.48C146.867 62.4667 145.294 63.3067 143.374 64C141.454 64.6667 139.334 65 137.014 65C134.694 65 132.974 64.6267 131.854 63.88C130.734 63.1333 130.174 61.88 130.174 60.12L130.214 52.76C130.214 46.6533 129.467 42.3467 127.974 39.84C127.281 38.6933 126.427 37.7733 125.414 37.08C127.227 35.6933 129.307 35 131.654 35C133.787 35 135.374 35.84 136.414 37.52C137.454 39.1733 138.134 41.16 138.454 43.48C138.721 45.5867 138.854 48.08 138.854 50.96ZM170.58 59.08L170.18 58.88C169.46 60.8 168.42 62.3067 167.06 63.4C165.727 64.4667 164.233 65 162.58 65C160.313 65 158.5 64.1467 157.14 62.44C155.78 60.7333 155.1 58.4533 155.1 55.6C155.1 51.1733 156.58 47.4667 159.54 44.48C162.527 41.4933 166.233 40 170.66 40C171.807 40 172.86 40.1067 173.82 40.32C173.98 41.0667 174.073 41.72 174.1 42.28C175.433 41.4267 176.807 41 178.22 41C180.167 41 181.14 42.0533 181.14 44.16C181.14 44.9067 180.713 47.16 179.86 50.92C179.033 54.68 178.62 57.4667 178.62 59.28C178.62 61.0933 179.033 62.3467 179.86 63.04C178.367 64.3467 176.807 65 175.18 65C173.58 65 172.407 64.52 171.66 63.56C170.94 62.6 170.58 61.1067 170.58 59.08ZM162.62 53.64C162.62 54.9467 162.887 55.96 163.42 56.68C163.98 57.3733 164.767 57.72 165.78 57.72C166.793 57.72 167.793 57.3467 168.78 56.6C169.767 55.8533 170.593 54.8267 171.26 53.52C171.5 50.8267 172.02 47.64 172.82 43.96C170.127 43.96 167.753 44.9333 165.7 46.88C163.647 48.8267 162.62 51.08 162.62 53.64ZM188.913 39.12L186.673 35.92C190.006 33.9733 192.633 33 194.553 33C195.646 33 196.42 33.2267 196.873 33.68C197.326 34.1067 197.553 34.9333 197.553 36.16C197.553 37.36 196.953 40.7733 195.753 46.4C194.58 52.0267 193.993 55.9733 193.993 58.24C193.993 60.5067 194.406 62.1067 195.233 63.04C193.366 64.3467 191.673 65 190.153 65C188.633 65 187.513 64.5067 186.793 63.52C186.1 62.5067 185.753 61.12 185.753 59.36C185.753 57.6 186.246 54 187.233 48.56C188.22 43.12 188.78 39.9733 188.913 39.12ZM215.624 61.08L215.224 60.88C213.144 63.6267 210.664 65 207.784 65C205.65 65 203.837 64.16 202.344 62.48C200.877 60.7733 200.144 58.48 200.144 55.6C200.144 52.0267 201.397 48.7733 203.904 45.84C205.13 44.4 206.77 43.24 208.824 42.36C210.877 41.4533 213.17 41 215.704 41C216.184 41 217.037 41.0533 218.264 41.16C218.317 40.6 218.437 39.92 218.624 39.12L216.384 35.92C219.717 33.9733 222.344 33 224.264 33C225.357 33 226.13 33.2267 226.584 33.68C227.037 34.1067 227.264 34.9333 227.264 36.16C227.264 37.36 226.664 40.7733 225.464 46.4C224.29 52.0267 223.704 56.0267 223.704 58.4C223.704 60.7467 224.117 62.2933 224.944 63.04C223.45 64.3467 221.89 65 220.264 65C218.664 65 217.49 64.6 216.744 63.8C215.997 62.9733 215.624 62.0667 215.624 61.08ZM207.664 54.08C207.664 55.6 208.05 56.8 208.824 57.68C209.624 58.56 210.61 59 211.784 59C213.304 59 214.69 58.28 215.944 56.84C216.37 52.0933 216.97 47.9867 217.744 44.52C214.677 44.52 212.224 45.5067 210.384 47.48C208.57 49.4533 207.664 51.6533 207.664 54.08ZM230.466 60.04C230.466 58.9733 230.732 56.9067 231.266 53.84C231.826 50.7733 232.399 47.9733 232.986 45.44L230.906 42.24C234.239 40.7467 236.572 40 237.906 40C239.266 40 239.946 40.8533 239.946 42.56C239.946 43.4933 239.506 45.44 238.626 48.4L239.026 48.6C240.946 42.8667 243.332 40 246.186 40C247.492 40 248.492 40.4 249.186 41.2C249.879 42 250.226 42.8933 250.226 43.88C250.226 45.3467 249.679 46.6 248.586 47.64C247.492 48.68 245.852 49.2 243.666 49.2C240.359 49.2 238.706 52.6 238.706 59.4C238.706 61.0533 238.986 62.2667 239.546 63.04C237.892 64.3467 236.372 65 234.986 65C231.972 65 230.466 63.3467 230.466 60.04ZM262.678 65C259.024 65 256.198 64.0533 254.198 62.16C252.224 60.2667 251.238 57.7067 251.238 54.48C251.238 50.1867 252.704 46.7067 255.638 44.04C258.598 41.3467 262.304 40 266.758 40C269.238 40 271.118 40.56 272.398 41.68C273.678 42.7733 274.318 44.2267 274.318 46.04C274.318 48.52 273.104 50.5867 270.678 52.24C268.278 53.8667 264.558 54.6933 259.518 54.72C259.598 56.4267 259.984 57.7733 260.678 58.76C261.371 59.72 262.238 60.2 263.278 60.2C264.318 60.2 265.211 59.8533 265.958 59.16C266.731 58.4667 267.118 57.3333 267.118 55.76C271.011 55.76 272.957 56.68 272.957 58.52C272.957 60.0933 271.998 61.5733 270.078 62.96C268.158 64.32 265.691 65 262.678 65ZM266.078 44.68C264.718 44.68 263.464 45.36 262.318 46.72C261.198 48.08 260.384 49.68 259.878 51.52C262.544 51.3067 264.544 50.7067 265.878 49.72C267.238 48.7067 267.918 47.64 267.918 46.52C267.918 45.9867 267.744 45.5467 267.398 45.2C267.078 44.8533 266.638 44.68 266.078 44.68ZM290.687 45.32C289.7 45.6133 288.913 46.04 288.327 46.6C287.74 47.1333 287.22 47.9067 286.767 48.92C291.273 49.5867 294.447 50.5467 296.287 51.8C298.127 53.0533 299.047 54.84 299.047 57.16C299.047 58.6267 298.633 59.9067 297.807 61C296.98 62.0667 295.94 62.88 294.687 63.44C292.233 64.48 289.82 65 287.447 65C280.7 65 277.327 63.5467 277.327 60.64C277.327 59.1733 277.98 57.7067 279.287 56.24C279.953 57.1733 280.953 57.9733 282.287 58.64C283.647 59.3067 284.967 59.64 286.247 59.64C288.46 59.64 289.793 58.6667 290.247 56.72C286.193 56.24 283.26 55.3333 281.447 54C279.633 52.6667 278.727 50.7867 278.727 48.36C278.727 46.44 279.353 44.8267 280.607 43.52C281.887 42.2133 283.46 41.3067 285.327 40.8C287.22 40.2667 289.34 40 291.687 40C294.06 40 296.007 40.4533 297.527 41.36C299.073 42.24 299.847 43.32 299.847 44.6C299.847 45.88 299.393 46.8667 298.487 47.56C297.607 48.2533 296.633 48.6 295.567 48.6C294.527 48.6 293.567 48.32 292.687 47.76C291.833 47.2 291.167 46.3867 290.687 45.32Z" fill="white"/>
<path d="M39.0303 74L284.51 74" stroke="#D57E39" stroke-opacity="0.8" stroke-width="3" stroke-linecap="round"/>
<path d="M39.0303 74L284.51 74" stroke="#D57E39" stroke-opacity="0.8" stroke-width="3" stroke-linecap="round"/>
</svg>
