<svg width="146" height="85" viewBox="0 0 146 85" fill="none" xmlns="http://www.w3.org/2000/svg">
<path d="M4 51L142 51" stroke="#D57E39" stroke-opacity="0.8" stroke-width="2" stroke-linecap="round"/>
<path d="M9.50516 39.48L9.44516 42.84H9.96516C10.7118 41.2533 11.3985 39.56 12.0252 37.76C12.6518 35.9467 12.9652 34.5667 12.9652 33.62C12.9652 33.2467 12.8918 32.8867 12.7452 32.54C13.7585 31.8467 14.6918 31.5 15.5452 31.5C16.8785 31.5 17.5452 32.2533 17.5452 33.76C17.5452 34.5067 17.3385 35.4533 16.9252 36.6C16.5252 37.7333 15.9252 39.16 15.1252 40.88C14.3252 42.5867 13.8985 43.5067 13.8452 43.64L14.1252 44.74C13.5118 45.2333 12.7252 45.6533 11.7652 46C10.8052 46.3333 9.74516 46.5 8.58516 46.5C7.42516 46.5 6.56516 46.3133 6.00516 45.94C5.44516 45.5667 5.16516 44.94 5.16516 44.06L5.18516 40.38C5.18516 37.3267 4.81182 35.1733 4.06516 33.92C3.71849 33.3467 3.29182 32.8867 2.78516 32.54C3.69182 31.8467 4.73182 31.5 5.90516 31.5C6.97182 31.5 7.76516 31.92 8.28516 32.76C8.80516 33.5867 9.14516 34.58 9.30516 35.74C9.43849 36.7933 9.50516 38.04 9.50516 39.48ZM24.8959 30.84C24.8959 31.3467 24.6293 31.7867 24.0959 32.16C23.5626 32.52 22.9559 32.7 22.2759 32.7C21.5959 32.7 21.0559 32.5667 20.6559 32.3C20.2693 32.0333 20.0759 31.6733 20.0759 31.22C20.0759 30.6067 20.3626 30.1267 20.9359 29.78C21.5093 29.4333 22.1159 29.26 22.7559 29.26C23.3959 29.26 23.9093 29.3933 24.2959 29.66C24.6959 29.9267 24.8959 30.32 24.8959 30.84ZM20.9959 46.5C20.1693 46.5 19.5693 46.2933 19.1959 45.88C18.8226 45.4667 18.6359 44.84 18.6359 44C18.6359 43.1467 19.0626 40.8733 19.9159 37.18L18.7959 35.5C20.4626 34.5 21.7759 34 22.7359 34C23.2826 34 23.6693 34.12 23.8959 34.36C24.1226 34.5867 24.2359 34.96 24.2359 35.48C24.2359 35.68 23.9893 36.8533 23.4959 39C23.0026 41.1467 22.7559 42.68 22.7559 43.6C22.7559 44.52 22.9626 45.16 23.3759 45.52C22.6293 46.1733 21.8359 46.5 20.9959 46.5ZM32.5698 36.66C32.0765 36.8067 31.6832 37.02 31.3898 37.3C31.0965 37.5667 30.8365 37.9533 30.6098 38.46C32.8632 38.7933 34.4498 39.2733 35.3698 39.9C36.2898 40.5267 36.7498 41.42 36.7498 42.58C36.7498 43.3133 36.5432 43.9533 36.1298 44.5C35.7165 45.0333 35.1965 45.44 34.5698 45.72C33.3432 46.24 32.1365 46.5 30.9498 46.5C27.5765 46.5 25.8898 45.7733 25.8898 44.32C25.8898 43.5867 26.2165 42.8533 26.8698 42.12C27.2032 42.5867 27.7032 42.9867 28.3698 43.32C29.0498 43.6533 29.7098 43.82 30.3498 43.82C31.4565 43.82 32.1232 43.3333 32.3498 42.36C30.3232 42.12 28.8565 41.6667 27.9498 41C27.0432 40.3333 26.5898 39.3933 26.5898 38.18C26.5898 37.22 26.9032 36.4133 27.5298 35.76C28.1698 35.1067 28.9565 34.6533 29.8898 34.4C30.8365 34.1333 31.8965 34 33.0698 34C34.2565 34 35.2298 34.2267 35.9898 34.68C36.7632 35.12 37.1498 35.66 37.1498 36.3C37.1498 36.94 36.9232 37.4333 36.4698 37.78C36.0298 38.1267 35.5432 38.3 35.0098 38.3C34.4898 38.3 34.0098 38.16 33.5698 37.88C33.1432 37.6 32.8098 37.1933 32.5698 36.66ZM45.5014 30.84C45.5014 31.3467 45.2347 31.7867 44.7014 32.16C44.1681 32.52 43.5614 32.7 42.8814 32.7C42.2014 32.7 41.6614 32.5667 41.2614 32.3C40.8747 32.0333 40.6814 31.6733 40.6814 31.22C40.6814 30.6067 40.9681 30.1267 41.5414 29.78C42.1147 29.4333 42.7214 29.26 43.3614 29.26C44.0014 29.26 44.5147 29.3933 44.9014 29.66C45.3014 29.9267 45.5014 30.32 45.5014 30.84ZM41.6014 46.5C40.7747 46.5 40.1747 46.2933 39.8014 45.88C39.4281 45.4667 39.2414 44.84 39.2414 44C39.2414 43.1467 39.6681 40.8733 40.5214 37.18L39.4014 35.5C41.0681 34.5 42.3814 34 43.3414 34C43.8881 34 44.2747 34.12 44.5014 34.36C44.7281 34.5867 44.8414 34.96 44.8414 35.48C44.8414 35.68 44.5947 36.8533 44.1014 39C43.6081 41.1467 43.3614 42.68 43.3614 43.6C43.3614 44.52 43.5681 45.16 43.9814 45.52C43.2347 46.1733 42.4414 46.5 41.6014 46.5ZM47.0353 38.78C46.942 38.4067 46.8953 38.06 46.8953 37.74C46.8953 37.0867 47.0886 36.5933 47.4753 36.26C47.862 35.9267 48.362 35.76 48.9753 35.76C48.9753 35.0667 48.7953 34.3133 48.4353 33.5C49.0886 33.02 49.682 32.66 50.2153 32.42C50.762 32.1667 51.3353 32.04 51.9353 32.04C52.5353 32.04 52.9486 32.1533 53.1753 32.38C53.4153 32.5933 53.5353 32.9267 53.5353 33.38C53.5353 33.8333 53.442 34.54 53.2553 35.5C53.7886 35.42 54.3286 35.3067 54.8753 35.16C54.9686 35.44 55.0153 35.8 55.0153 36.24C55.0153 36.68 54.842 37.0933 54.4953 37.48C54.162 37.8533 53.6686 38.04 53.0153 38.04H52.7153C52.2353 40.2133 51.9953 41.8867 51.9953 43.06C51.9953 44.2333 52.202 45.0533 52.6153 45.52C51.8686 46.1733 51.0753 46.5 50.2353 46.5C49.3953 46.5 48.7886 46.2533 48.4153 45.76C48.0553 45.2533 47.8753 44.4733 47.8753 43.42C47.8753 42.78 48.1086 41.1 48.5753 38.38C48.042 38.4733 47.5286 38.6067 47.0353 38.78ZM61.927 39.48L61.867 42.84H62.387C63.1337 41.2533 63.8204 39.56 64.447 37.76C65.0737 35.9467 65.387 34.5667 65.387 33.62C65.387 33.2467 65.3137 32.8867 65.167 32.54C66.1804 31.8467 67.1137 31.5 67.967 31.5C69.3004 31.5 69.967 32.2533 69.967 33.76C69.967 34.5067 69.7604 35.4533 69.347 36.6C68.947 37.7333 68.347 39.16 67.547 40.88C66.747 42.5867 66.3204 43.5067 66.267 43.64L66.547 44.74C65.9337 45.2333 65.147 45.6533 64.187 46C63.227 46.3333 62.167 46.5 61.007 46.5C59.847 46.5 58.987 46.3133 58.427 45.94C57.867 45.5667 57.587 44.94 57.587 44.06L57.607 40.38C57.607 37.3267 57.2337 35.1733 56.487 33.92C56.1404 33.3467 55.7137 32.8867 55.207 32.54C56.1137 31.8467 57.1537 31.5 58.327 31.5C59.3937 31.5 60.187 31.92 60.707 32.76C61.227 33.5867 61.567 34.58 61.727 35.74C61.8604 36.7933 61.927 38.04 61.927 39.48ZM77.79 43.54L77.59 43.44C77.23 44.4 76.71 45.1533 76.03 45.7C75.3633 46.2333 74.6167 46.5 73.79 46.5C72.6567 46.5 71.75 46.0733 71.07 45.22C70.39 44.3667 70.05 43.2267 70.05 41.8C70.05 39.5867 70.79 37.7333 72.27 36.24C73.7633 34.7467 75.6167 34 77.83 34C78.4033 34 78.93 34.0533 79.41 34.16C79.49 34.5333 79.5367 34.86 79.55 35.14C80.2167 34.7133 80.9033 34.5 81.61 34.5C82.5833 34.5 83.07 35.0267 83.07 36.08C83.07 36.4533 82.8567 37.58 82.43 39.46C82.0167 41.34 81.81 42.7333 81.81 43.64C81.81 44.5467 82.0167 45.1733 82.43 45.52C81.6833 46.1733 80.9033 46.5 80.09 46.5C79.29 46.5 78.7033 46.26 78.33 45.78C77.97 45.3 77.79 44.5533 77.79 43.54ZM73.81 40.82C73.81 41.4733 73.9433 41.98 74.21 42.34C74.49 42.6867 74.8833 42.86 75.39 42.86C75.8967 42.86 76.3967 42.6733 76.89 42.3C77.3833 41.9267 77.7967 41.4133 78.13 40.76C78.25 39.4133 78.51 37.82 78.91 35.98C77.5633 35.98 76.3767 36.4667 75.35 37.44C74.3233 38.4133 73.81 39.54 73.81 40.82ZM86.9566 33.56L85.8366 31.96C87.5032 30.9867 88.8166 30.5 89.7766 30.5C90.3232 30.5 90.7099 30.6133 90.9366 30.84C91.1632 31.0533 91.2766 31.4667 91.2766 32.08C91.2766 32.68 90.9766 34.3867 90.3766 37.2C89.7899 40.0133 89.4966 41.9867 89.4966 43.12C89.4966 44.2533 89.7032 45.0533 90.1166 45.52C89.1832 46.1733 88.3366 46.5 87.5766 46.5C86.8166 46.5 86.2566 46.2533 85.8966 45.76C85.5499 45.2533 85.3766 44.56 85.3766 43.68C85.3766 42.8 85.6232 41 86.1166 38.28C86.6099 35.56 86.8899 33.9867 86.9566 33.56ZM100.312 44.54L100.112 44.44C99.0719 45.8133 97.8319 46.5 96.3919 46.5C95.3252 46.5 94.4185 46.08 93.6719 45.24C92.9385 44.3867 92.5719 43.24 92.5719 41.8C92.5719 40.0133 93.1985 38.3867 94.4519 36.92C95.0652 36.2 95.8852 35.62 96.9119 35.18C97.9385 34.7267 99.0852 34.5 100.352 34.5C100.592 34.5 101.019 34.5267 101.632 34.58C101.659 34.3 101.719 33.96 101.812 33.56L100.692 31.96C102.359 30.9867 103.672 30.5 104.632 30.5C105.179 30.5 105.565 30.6133 105.792 30.84C106.019 31.0533 106.132 31.4667 106.132 32.08C106.132 32.68 105.832 34.3867 105.232 37.2C104.645 40.0133 104.352 42.0133 104.352 43.2C104.352 44.3733 104.559 45.1467 104.972 45.52C104.225 46.1733 103.445 46.5 102.632 46.5C101.832 46.5 101.245 46.3 100.872 45.9C100.499 45.4867 100.312 45.0333 100.312 44.54ZM96.3319 41.04C96.3319 41.8 96.5252 42.4 96.9119 42.84C97.3119 43.28 97.8052 43.5 98.3919 43.5C99.1519 43.5 99.8452 43.14 100.472 42.42C100.685 40.0467 100.985 37.9933 101.372 36.26C99.8385 36.26 98.6119 36.7533 97.6919 37.74C96.7852 38.7267 96.3319 39.8267 96.3319 41.04ZM107.733 44.02C107.733 43.4867 107.866 42.4533 108.133 40.92C108.413 39.3867 108.699 37.9867 108.993 36.72L107.953 35.12C109.619 34.3733 110.786 34 111.453 34C112.133 34 112.473 34.4267 112.473 35.28C112.473 35.7467 112.253 36.72 111.813 38.2L112.013 38.3C112.973 35.4333 114.166 34 115.593 34C116.246 34 116.746 34.2 117.093 34.6C117.439 35 117.613 35.4467 117.613 35.94C117.613 36.6733 117.339 37.3 116.793 37.82C116.246 38.34 115.426 38.6 114.333 38.6C112.679 38.6 111.853 40.3 111.853 43.7C111.853 44.5267 111.993 45.1333 112.273 45.52C111.446 46.1733 110.686 46.5 109.993 46.5C108.486 46.5 107.733 45.6733 107.733 44.02ZM123.839 46.5C122.012 46.5 120.599 46.0267 119.599 45.08C118.612 44.1333 118.119 42.8533 118.119 41.24C118.119 39.0933 118.852 37.3533 120.319 36.02C121.799 34.6733 123.652 34 125.879 34C127.119 34 128.059 34.28 128.699 34.84C129.339 35.3867 129.659 36.1133 129.659 37.02C129.659 38.26 129.052 39.2933 127.839 40.12C126.639 40.9333 124.779 41.3467 122.259 41.36C122.299 42.2133 122.492 42.8867 122.839 43.38C123.185 43.86 123.619 44.1 124.139 44.1C124.659 44.1 125.105 43.9267 125.479 43.58C125.865 43.2333 126.059 42.6667 126.059 41.88C128.005 41.88 128.979 42.34 128.979 43.26C128.979 44.0467 128.499 44.7867 127.539 45.48C126.579 46.16 125.345 46.5 123.839 46.5ZM125.539 36.34C124.859 36.34 124.232 36.68 123.659 37.36C123.099 38.04 122.692 38.84 122.439 39.76C123.772 39.6533 124.772 39.3533 125.439 38.86C126.119 38.3533 126.459 37.82 126.459 37.26C126.459 36.9933 126.372 36.7733 126.199 36.6C126.039 36.4267 125.819 36.34 125.539 36.34ZM137.843 36.66C137.35 36.8067 136.957 37.02 136.663 37.3C136.37 37.5667 136.11 37.9533 135.883 38.46C138.137 38.7933 139.723 39.2733 140.643 39.9C141.563 40.5267 142.023 41.42 142.023 42.58C142.023 43.3133 141.817 43.9533 141.403 44.5C140.99 45.0333 140.47 45.44 139.843 45.72C138.617 46.24 137.41 46.5 136.223 46.5C132.85 46.5 131.163 45.7733 131.163 44.32C131.163 43.5867 131.49 42.8533 132.143 42.12C132.477 42.5867 132.977 42.9867 133.643 43.32C134.323 43.6533 134.983 43.82 135.623 43.82C136.73 43.82 137.397 43.3333 137.623 42.36C135.597 42.12 134.13 41.6667 133.223 41C132.317 40.3333 131.863 39.3933 131.863 38.18C131.863 37.22 132.177 36.4133 132.803 35.76C133.443 35.1067 134.23 34.6533 135.163 34.4C136.11 34.1333 137.17 34 138.343 34C139.53 34 140.503 34.2267 141.263 34.68C142.037 35.12 142.423 35.66 142.423 36.3C142.423 36.94 142.197 37.4333 141.743 37.78C141.303 38.1267 140.817 38.3 140.283 38.3C139.763 38.3 139.283 38.16 138.843 37.88C138.417 37.6 138.083 37.1933 137.843 36.66Z" fill="#43362E"/>
</svg>
