<svg width="363" height="110" viewBox="0 0 363 110" fill="none" xmlns="http://www.w3.org/2000/svg">
<path d="M54.5103 50.96L54.3903 57.68H55.4303C56.9236 54.5067 58.297 51.12 59.5503 47.52C60.8036 43.8933 61.4303 41.1333 61.4303 39.24C61.4303 38.4933 61.2836 37.7733 60.9903 37.08C63.017 35.6933 64.8836 35 66.5903 35C69.257 35 70.5903 36.5067 70.5903 39.52C70.5903 41.0133 70.177 42.9067 69.3503 45.2C68.5503 47.4667 67.3503 50.32 65.7503 53.76C64.1503 57.1733 63.297 59.0133 63.1903 59.28L63.7503 61.48C62.5236 62.4667 60.9503 63.3067 59.0303 64C57.1103 64.6667 54.9903 65 52.6703 65C50.3503 65 48.6303 64.6267 47.5103 63.88C46.3903 63.1333 45.8303 61.88 45.8303 60.12L45.8703 52.76C45.8703 46.6533 45.1236 42.3467 43.6303 39.84C42.937 38.6933 42.0836 37.7733 41.0703 37.08C42.8836 35.6933 44.9636 35 47.3103 35C49.4436 35 51.0303 35.84 52.0703 37.52C53.1103 39.1733 53.7903 41.16 54.1103 43.48C54.377 45.5867 54.5103 48.08 54.5103 50.96ZM85.2919 33.68C85.2919 34.6933 84.7585 35.5733 83.6919 36.32C82.6252 37.04 81.4119 37.4 80.0519 37.4C78.6919 37.4 77.6119 37.1333 76.8119 36.6C76.0385 36.0667 75.6519 35.3467 75.6519 34.44C75.6519 33.2133 76.2252 32.2533 77.3719 31.56C78.5185 30.8667 79.7319 30.52 81.0119 30.52C82.2919 30.52 83.3185 30.7867 84.0919 31.32C84.8919 31.8533 85.2919 32.64 85.2919 33.68ZM77.4919 65C75.8385 65 74.6385 64.5867 73.8919 63.76C73.1452 62.9333 72.7719 61.68 72.7719 60C72.7719 58.2933 73.6252 53.7467 75.3319 46.36L73.0919 43C76.4252 41 79.0519 40 80.9719 40C82.0652 40 82.8385 40.24 83.2919 40.72C83.7452 41.1733 83.9719 41.92 83.9719 42.96C83.9719 43.36 83.4785 45.7067 82.4919 50C81.5052 54.2933 81.0119 57.36 81.0119 59.2C81.0119 61.04 81.4252 62.32 82.2519 63.04C80.7585 64.3467 79.1719 65 77.4919 65ZM100.64 45.32C99.653 45.6133 98.8664 46.04 98.2797 46.6C97.693 47.1333 97.173 47.9067 96.7197 48.92C101.226 49.5867 104.4 50.5467 106.24 51.8C108.08 53.0533 109 54.84 109 57.16C109 58.6267 108.586 59.9067 107.76 61C106.933 62.0667 105.893 62.88 104.64 63.44C102.186 64.48 99.773 65 97.3997 65C90.653 65 87.2797 63.5467 87.2797 60.64C87.2797 59.1733 87.933 57.7067 89.2397 56.24C89.9064 57.1733 90.9064 57.9733 92.2397 58.64C93.5997 59.3067 94.9197 59.64 96.1997 59.64C98.413 59.64 99.7464 58.6667 100.2 56.72C96.1464 56.24 93.213 55.3333 91.3997 54C89.5864 52.6667 88.6797 50.7867 88.6797 48.36C88.6797 46.44 89.3064 44.8267 90.5597 43.52C91.8397 42.2133 93.413 41.3067 95.2797 40.8C97.173 40.2667 99.293 40 101.64 40C104.013 40 105.96 40.4533 107.48 41.36C109.026 42.24 109.8 43.32 109.8 44.6C109.8 45.88 109.346 46.8667 108.44 47.56C107.56 48.2533 106.586 48.6 105.52 48.6C104.48 48.6 103.52 48.32 102.64 47.76C101.786 47.2 101.12 46.3867 100.64 45.32ZM126.503 33.68C126.503 34.6933 125.969 35.5733 124.903 36.32C123.836 37.04 122.623 37.4 121.263 37.4C119.903 37.4 118.823 37.1333 118.023 36.6C117.249 36.0667 116.863 35.3467 116.863 34.44C116.863 33.2133 117.436 32.2533 118.583 31.56C119.729 30.8667 120.943 30.52 122.223 30.52C123.503 30.52 124.529 30.7867 125.303 31.32C126.103 31.8533 126.503 32.64 126.503 33.68ZM118.703 65C117.049 65 115.849 64.5867 115.103 63.76C114.356 62.9333 113.983 61.68 113.983 60C113.983 58.2933 114.836 53.7467 116.543 46.36L114.303 43C117.636 41 120.263 40 122.183 40C123.276 40 124.049 40.24 124.503 40.72C124.956 41.1733 125.183 41.92 125.183 42.96C125.183 43.36 124.689 45.7067 123.703 50C122.716 54.2933 122.223 57.36 122.223 59.2C122.223 61.04 122.636 62.32 123.463 63.04C121.969 64.3467 120.383 65 118.703 65ZM129.571 49.56C129.384 48.8133 129.291 48.12 129.291 47.48C129.291 46.1733 129.677 45.1867 130.451 44.52C131.224 43.8533 132.224 43.52 133.451 43.52C133.451 42.1333 133.091 40.6267 132.371 39C133.677 38.04 134.864 37.32 135.931 36.84C137.024 36.3333 138.171 36.08 139.371 36.08C140.571 36.08 141.397 36.3067 141.851 36.76C142.331 37.1867 142.571 37.8533 142.571 38.76C142.571 39.6667 142.384 41.08 142.011 43C143.077 42.84 144.157 42.6133 145.251 42.32C145.437 42.88 145.531 43.6 145.531 44.48C145.531 45.36 145.184 46.1867 144.491 46.96C143.824 47.7067 142.837 48.08 141.531 48.08H140.931C139.971 52.4267 139.491 55.7733 139.491 58.12C139.491 60.4667 139.904 62.1067 140.731 63.04C139.237 64.3467 137.651 65 135.971 65C134.291 65 133.077 64.5067 132.331 63.52C131.611 62.5067 131.251 60.9467 131.251 58.84C131.251 57.56 131.717 54.2 132.651 48.76C131.584 48.9467 130.557 49.2133 129.571 49.56ZM159.354 50.96L159.234 57.68H160.274C161.767 54.5067 163.141 51.12 164.394 47.52C165.647 43.8933 166.274 41.1333 166.274 39.24C166.274 38.4933 166.127 37.7733 165.834 37.08C167.861 35.6933 169.727 35 171.434 35C174.101 35 175.434 36.5067 175.434 39.52C175.434 41.0133 175.021 42.9067 174.194 45.2C173.394 47.4667 172.194 50.32 170.594 53.76C168.994 57.1733 168.141 59.0133 168.034 59.28L168.594 61.48C167.367 62.4667 165.794 63.3067 163.874 64C161.954 64.6667 159.834 65 157.514 65C155.194 65 153.474 64.6267 152.354 63.88C151.234 63.1333 150.674 61.88 150.674 60.12L150.714 52.76C150.714 46.6533 149.967 42.3467 148.474 39.84C147.781 38.6933 146.927 37.7733 145.914 37.08C147.727 35.6933 149.807 35 152.154 35C154.287 35 155.874 35.84 156.914 37.52C157.954 39.1733 158.634 41.16 158.954 43.48C159.221 45.5867 159.354 48.08 159.354 50.96ZM191.08 59.08L190.68 58.88C189.96 60.8 188.92 62.3067 187.56 63.4C186.227 64.4667 184.733 65 183.08 65C180.813 65 179 64.1467 177.64 62.44C176.28 60.7333 175.6 58.4533 175.6 55.6C175.6 51.1733 177.08 47.4667 180.04 44.48C183.027 41.4933 186.733 40 191.16 40C192.307 40 193.36 40.1067 194.32 40.32C194.48 41.0667 194.573 41.72 194.6 42.28C195.933 41.4267 197.307 41 198.72 41C200.667 41 201.64 42.0533 201.64 44.16C201.64 44.9067 201.213 47.16 200.36 50.92C199.533 54.68 199.12 57.4667 199.12 59.28C199.12 61.0933 199.533 62.3467 200.36 63.04C198.867 64.3467 197.307 65 195.68 65C194.08 65 192.907 64.52 192.16 63.56C191.44 62.6 191.08 61.1067 191.08 59.08ZM183.12 53.64C183.12 54.9467 183.387 55.96 183.92 56.68C184.48 57.3733 185.267 57.72 186.28 57.72C187.293 57.72 188.293 57.3467 189.28 56.6C190.267 55.8533 191.093 54.8267 191.76 53.52C192 50.8267 192.52 47.64 193.32 43.96C190.627 43.96 188.253 44.9333 186.2 46.88C184.147 48.8267 183.12 51.08 183.12 53.64ZM209.413 39.12L207.173 35.92C210.506 33.9733 213.133 33 215.053 33C216.146 33 216.92 33.2267 217.373 33.68C217.826 34.1067 218.053 34.9333 218.053 36.16C218.053 37.36 217.453 40.7733 216.253 46.4C215.08 52.0267 214.493 55.9733 214.493 58.24C214.493 60.5067 214.906 62.1067 215.733 63.04C213.866 64.3467 212.173 65 210.653 65C209.133 65 208.013 64.5067 207.293 63.52C206.6 62.5067 206.253 61.12 206.253 59.36C206.253 57.6 206.746 54 207.733 48.56C208.72 43.12 209.28 39.9733 209.413 39.12ZM236.124 61.08L235.724 60.88C233.644 63.6267 231.164 65 228.284 65C226.15 65 224.337 64.16 222.844 62.48C221.377 60.7733 220.644 58.48 220.644 55.6C220.644 52.0267 221.897 48.7733 224.404 45.84C225.63 44.4 227.27 43.24 229.324 42.36C231.377 41.4533 233.67 41 236.204 41C236.684 41 237.537 41.0533 238.764 41.16C238.817 40.6 238.937 39.92 239.124 39.12L236.884 35.92C240.217 33.9733 242.844 33 244.764 33C245.857 33 246.63 33.2267 247.084 33.68C247.537 34.1067 247.764 34.9333 247.764 36.16C247.764 37.36 247.164 40.7733 245.964 46.4C244.79 52.0267 244.204 56.0267 244.204 58.4C244.204 60.7467 244.617 62.2933 245.444 63.04C243.95 64.3467 242.39 65 240.764 65C239.164 65 237.99 64.6 237.244 63.8C236.497 62.9733 236.124 62.0667 236.124 61.08ZM228.164 54.08C228.164 55.6 228.55 56.8 229.324 57.68C230.124 58.56 231.11 59 232.284 59C233.804 59 235.19 58.28 236.444 56.84C236.87 52.0933 237.47 47.9867 238.244 44.52C235.177 44.52 232.724 45.5067 230.884 47.48C229.07 49.4533 228.164 51.6533 228.164 54.08ZM250.966 60.04C250.966 58.9733 251.232 56.9067 251.766 53.84C252.326 50.7733 252.899 47.9733 253.486 45.44L251.406 42.24C254.739 40.7467 257.072 40 258.406 40C259.766 40 260.446 40.8533 260.446 42.56C260.446 43.4933 260.006 45.44 259.126 48.4L259.526 48.6C261.446 42.8667 263.832 40 266.686 40C267.992 40 268.992 40.4 269.686 41.2C270.379 42 270.726 42.8933 270.726 43.88C270.726 45.3467 270.179 46.6 269.086 47.64C267.992 48.68 266.352 49.2 264.166 49.2C260.859 49.2 259.206 52.6 259.206 59.4C259.206 61.0533 259.486 62.2667 260.046 63.04C258.392 64.3467 256.872 65 255.486 65C252.472 65 250.966 63.3467 250.966 60.04ZM283.178 65C279.524 65 276.698 64.0533 274.698 62.16C272.724 60.2667 271.738 57.7067 271.738 54.48C271.738 50.1867 273.204 46.7067 276.138 44.04C279.098 41.3467 282.804 40 287.258 40C289.738 40 291.618 40.56 292.898 41.68C294.178 42.7733 294.818 44.2267 294.818 46.04C294.818 48.52 293.604 50.5867 291.178 52.24C288.778 53.8667 285.058 54.6933 280.018 54.72C280.098 56.4267 280.484 57.7733 281.178 58.76C281.871 59.72 282.738 60.2 283.778 60.2C284.818 60.2 285.711 59.8533 286.458 59.16C287.231 58.4667 287.618 57.3333 287.618 55.76C291.511 55.76 293.457 56.68 293.457 58.52C293.457 60.0933 292.498 61.5733 290.578 62.96C288.658 64.32 286.191 65 283.178 65ZM286.578 44.68C285.218 44.68 283.964 45.36 282.818 46.72C281.698 48.08 280.884 49.68 280.378 51.52C283.044 51.3067 285.044 50.7067 286.378 49.72C287.738 48.7067 288.418 47.64 288.418 46.52C288.418 45.9867 288.244 45.5467 287.898 45.2C287.578 44.8533 287.138 44.68 286.578 44.68ZM311.187 45.32C310.2 45.6133 309.413 46.04 308.827 46.6C308.24 47.1333 307.72 47.9067 307.267 48.92C311.773 49.5867 314.947 50.5467 316.787 51.8C318.627 53.0533 319.547 54.84 319.547 57.16C319.547 58.6267 319.133 59.9067 318.307 61C317.48 62.0667 316.44 62.88 315.187 63.44C312.733 64.48 310.32 65 307.947 65C301.2 65 297.827 63.5467 297.827 60.64C297.827 59.1733 298.48 57.7067 299.787 56.24C300.453 57.1733 301.453 57.9733 302.787 58.64C304.147 59.3067 305.467 59.64 306.747 59.64C308.96 59.64 310.293 58.6667 310.747 56.72C306.693 56.24 303.76 55.3333 301.947 54C300.133 52.6667 299.227 50.7867 299.227 48.36C299.227 46.44 299.853 44.8267 301.107 43.52C302.387 42.2133 303.96 41.3067 305.827 40.8C307.72 40.2667 309.84 40 312.187 40C314.56 40 316.507 40.4533 318.027 41.36C319.573 42.24 320.347 43.32 320.347 44.6C320.347 45.88 319.893 46.8667 318.987 47.56C318.107 48.2533 317.133 48.6 316.067 48.6C315.027 48.6 314.067 48.32 313.187 47.76C312.333 47.2 311.667 46.3867 311.187 45.32Z" fill="#43362E"/>
<path d="M54.5103 50.96L54.3903 57.68H55.4303C56.9236 54.5067 58.297 51.12 59.5503 47.52C60.8036 43.8933 61.4303 41.1333 61.4303 39.24C61.4303 38.4933 61.2836 37.7733 60.9903 37.08C63.017 35.6933 64.8836 35 66.5903 35C69.257 35 70.5903 36.5067 70.5903 39.52C70.5903 41.0133 70.177 42.9067 69.3503 45.2C68.5503 47.4667 67.3503 50.32 65.7503 53.76C64.1503 57.1733 63.297 59.0133 63.1903 59.28L63.7503 61.48C62.5236 62.4667 60.9503 63.3067 59.0303 64C57.1103 64.6667 54.9903 65 52.6703 65C50.3503 65 48.6303 64.6267 47.5103 63.88C46.3903 63.1333 45.8303 61.88 45.8303 60.12L45.8703 52.76C45.8703 46.6533 45.1236 42.3467 43.6303 39.84C42.937 38.6933 42.0836 37.7733 41.0703 37.08C42.8836 35.6933 44.9636 35 47.3103 35C49.4436 35 51.0303 35.84 52.0703 37.52C53.1103 39.1733 53.7903 41.16 54.1103 43.48C54.377 45.5867 54.5103 48.08 54.5103 50.96ZM85.2919 33.68C85.2919 34.6933 84.7585 35.5733 83.6919 36.32C82.6252 37.04 81.4119 37.4 80.0519 37.4C78.6919 37.4 77.6119 37.1333 76.8119 36.6C76.0385 36.0667 75.6519 35.3467 75.6519 34.44C75.6519 33.2133 76.2252 32.2533 77.3719 31.56C78.5185 30.8667 79.7319 30.52 81.0119 30.52C82.2919 30.52 83.3185 30.7867 84.0919 31.32C84.8919 31.8533 85.2919 32.64 85.2919 33.68ZM77.4919 65C75.8385 65 74.6385 64.5867 73.8919 63.76C73.1452 62.9333 72.7719 61.68 72.7719 60C72.7719 58.2933 73.6252 53.7467 75.3319 46.36L73.0919 43C76.4252 41 79.0519 40 80.9719 40C82.0652 40 82.8385 40.24 83.2919 40.72C83.7452 41.1733 83.9719 41.92 83.9719 42.96C83.9719 43.36 83.4785 45.7067 82.4919 50C81.5052 54.2933 81.0119 57.36 81.0119 59.2C81.0119 61.04 81.4252 62.32 82.2519 63.04C80.7585 64.3467 79.1719 65 77.4919 65ZM100.64 45.32C99.653 45.6133 98.8664 46.04 98.2797 46.6C97.693 47.1333 97.173 47.9067 96.7197 48.92C101.226 49.5867 104.4 50.5467 106.24 51.8C108.08 53.0533 109 54.84 109 57.16C109 58.6267 108.586 59.9067 107.76 61C106.933 62.0667 105.893 62.88 104.64 63.44C102.186 64.48 99.773 65 97.3997 65C90.653 65 87.2797 63.5467 87.2797 60.64C87.2797 59.1733 87.933 57.7067 89.2397 56.24C89.9064 57.1733 90.9064 57.9733 92.2397 58.64C93.5997 59.3067 94.9197 59.64 96.1997 59.64C98.413 59.64 99.7464 58.6667 100.2 56.72C96.1464 56.24 93.213 55.3333 91.3997 54C89.5864 52.6667 88.6797 50.7867 88.6797 48.36C88.6797 46.44 89.3064 44.8267 90.5597 43.52C91.8397 42.2133 93.413 41.3067 95.2797 40.8C97.173 40.2667 99.293 40 101.64 40C104.013 40 105.96 40.4533 107.48 41.36C109.026 42.24 109.8 43.32 109.8 44.6C109.8 45.88 109.346 46.8667 108.44 47.56C107.56 48.2533 106.586 48.6 105.52 48.6C104.48 48.6 103.52 48.32 102.64 47.76C101.786 47.2 101.12 46.3867 100.64 45.32ZM126.503 33.68C126.503 34.6933 125.969 35.5733 124.903 36.32C123.836 37.04 122.623 37.4 121.263 37.4C119.903 37.4 118.823 37.1333 118.023 36.6C117.249 36.0667 116.863 35.3467 116.863 34.44C116.863 33.2133 117.436 32.2533 118.583 31.56C119.729 30.8667 120.943 30.52 122.223 30.52C123.503 30.52 124.529 30.7867 125.303 31.32C126.103 31.8533 126.503 32.64 126.503 33.68ZM118.703 65C117.049 65 115.849 64.5867 115.103 63.76C114.356 62.9333 113.983 61.68 113.983 60C113.983 58.2933 114.836 53.7467 116.543 46.36L114.303 43C117.636 41 120.263 40 122.183 40C123.276 40 124.049 40.24 124.503 40.72C124.956 41.1733 125.183 41.92 125.183 42.96C125.183 43.36 124.689 45.7067 123.703 50C122.716 54.2933 122.223 57.36 122.223 59.2C122.223 61.04 122.636 62.32 123.463 63.04C121.969 64.3467 120.383 65 118.703 65ZM129.571 49.56C129.384 48.8133 129.291 48.12 129.291 47.48C129.291 46.1733 129.677 45.1867 130.451 44.52C131.224 43.8533 132.224 43.52 133.451 43.52C133.451 42.1333 133.091 40.6267 132.371 39C133.677 38.04 134.864 37.32 135.931 36.84C137.024 36.3333 138.171 36.08 139.371 36.08C140.571 36.08 141.397 36.3067 141.851 36.76C142.331 37.1867 142.571 37.8533 142.571 38.76C142.571 39.6667 142.384 41.08 142.011 43C143.077 42.84 144.157 42.6133 145.251 42.32C145.437 42.88 145.531 43.6 145.531 44.48C145.531 45.36 145.184 46.1867 144.491 46.96C143.824 47.7067 142.837 48.08 141.531 48.08H140.931C139.971 52.4267 139.491 55.7733 139.491 58.12C139.491 60.4667 139.904 62.1067 140.731 63.04C139.237 64.3467 137.651 65 135.971 65C134.291 65 133.077 64.5067 132.331 63.52C131.611 62.5067 131.251 60.9467 131.251 58.84C131.251 57.56 131.717 54.2 132.651 48.76C131.584 48.9467 130.557 49.2133 129.571 49.56ZM159.354 50.96L159.234 57.68H160.274C161.767 54.5067 163.141 51.12 164.394 47.52C165.647 43.8933 166.274 41.1333 166.274 39.24C166.274 38.4933 166.127 37.7733 165.834 37.08C167.861 35.6933 169.727 35 171.434 35C174.101 35 175.434 36.5067 175.434 39.52C175.434 41.0133 175.021 42.9067 174.194 45.2C173.394 47.4667 172.194 50.32 170.594 53.76C168.994 57.1733 168.141 59.0133 168.034 59.28L168.594 61.48C167.367 62.4667 165.794 63.3067 163.874 64C161.954 64.6667 159.834 65 157.514 65C155.194 65 153.474 64.6267 152.354 63.88C151.234 63.1333 150.674 61.88 150.674 60.12L150.714 52.76C150.714 46.6533 149.967 42.3467 148.474 39.84C147.781 38.6933 146.927 37.7733 145.914 37.08C147.727 35.6933 149.807 35 152.154 35C154.287 35 155.874 35.84 156.914 37.52C157.954 39.1733 158.634 41.16 158.954 43.48C159.221 45.5867 159.354 48.08 159.354 50.96ZM191.08 59.08L190.68 58.88C189.96 60.8 188.92 62.3067 187.56 63.4C186.227 64.4667 184.733 65 183.08 65C180.813 65 179 64.1467 177.64 62.44C176.28 60.7333 175.6 58.4533 175.6 55.6C175.6 51.1733 177.08 47.4667 180.04 44.48C183.027 41.4933 186.733 40 191.16 40C192.307 40 193.36 40.1067 194.32 40.32C194.48 41.0667 194.573 41.72 194.6 42.28C195.933 41.4267 197.307 41 198.72 41C200.667 41 201.64 42.0533 201.64 44.16C201.64 44.9067 201.213 47.16 200.36 50.92C199.533 54.68 199.12 57.4667 199.12 59.28C199.12 61.0933 199.533 62.3467 200.36 63.04C198.867 64.3467 197.307 65 195.68 65C194.08 65 192.907 64.52 192.16 63.56C191.44 62.6 191.08 61.1067 191.08 59.08ZM183.12 53.64C183.12 54.9467 183.387 55.96 183.92 56.68C184.48 57.3733 185.267 57.72 186.28 57.72C187.293 57.72 188.293 57.3467 189.28 56.6C190.267 55.8533 191.093 54.8267 191.76 53.52C192 50.8267 192.52 47.64 193.32 43.96C190.627 43.96 188.253 44.9333 186.2 46.88C184.147 48.8267 183.12 51.08 183.12 53.64ZM209.413 39.12L207.173 35.92C210.506 33.9733 213.133 33 215.053 33C216.146 33 216.92 33.2267 217.373 33.68C217.826 34.1067 218.053 34.9333 218.053 36.16C218.053 37.36 217.453 40.7733 216.253 46.4C215.08 52.0267 214.493 55.9733 214.493 58.24C214.493 60.5067 214.906 62.1067 215.733 63.04C213.866 64.3467 212.173 65 210.653 65C209.133 65 208.013 64.5067 207.293 63.52C206.6 62.5067 206.253 61.12 206.253 59.36C206.253 57.6 206.746 54 207.733 48.56C208.72 43.12 209.28 39.9733 209.413 39.12ZM236.124 61.08L235.724 60.88C233.644 63.6267 231.164 65 228.284 65C226.15 65 224.337 64.16 222.844 62.48C221.377 60.7733 220.644 58.48 220.644 55.6C220.644 52.0267 221.897 48.7733 224.404 45.84C225.63 44.4 227.27 43.24 229.324 42.36C231.377 41.4533 233.67 41 236.204 41C236.684 41 237.537 41.0533 238.764 41.16C238.817 40.6 238.937 39.92 239.124 39.12L236.884 35.92C240.217 33.9733 242.844 33 244.764 33C245.857 33 246.63 33.2267 247.084 33.68C247.537 34.1067 247.764 34.9333 247.764 36.16C247.764 37.36 247.164 40.7733 245.964 46.4C244.79 52.0267 244.204 56.0267 244.204 58.4C244.204 60.7467 244.617 62.2933 245.444 63.04C243.95 64.3467 242.39 65 240.764 65C239.164 65 237.99 64.6 237.244 63.8C236.497 62.9733 236.124 62.0667 236.124 61.08ZM228.164 54.08C228.164 55.6 228.55 56.8 229.324 57.68C230.124 58.56 231.11 59 232.284 59C233.804 59 235.19 58.28 236.444 56.84C236.87 52.0933 237.47 47.9867 238.244 44.52C235.177 44.52 232.724 45.5067 230.884 47.48C229.07 49.4533 228.164 51.6533 228.164 54.08ZM250.966 60.04C250.966 58.9733 251.232 56.9067 251.766 53.84C252.326 50.7733 252.899 47.9733 253.486 45.44L251.406 42.24C254.739 40.7467 257.072 40 258.406 40C259.766 40 260.446 40.8533 260.446 42.56C260.446 43.4933 260.006 45.44 259.126 48.4L259.526 48.6C261.446 42.8667 263.832 40 266.686 40C267.992 40 268.992 40.4 269.686 41.2C270.379 42 270.726 42.8933 270.726 43.88C270.726 45.3467 270.179 46.6 269.086 47.64C267.992 48.68 266.352 49.2 264.166 49.2C260.859 49.2 259.206 52.6 259.206 59.4C259.206 61.0533 259.486 62.2667 260.046 63.04C258.392 64.3467 256.872 65 255.486 65C252.472 65 250.966 63.3467 250.966 60.04ZM283.178 65C279.524 65 276.698 64.0533 274.698 62.16C272.724 60.2667 271.738 57.7067 271.738 54.48C271.738 50.1867 273.204 46.7067 276.138 44.04C279.098 41.3467 282.804 40 287.258 40C289.738 40 291.618 40.56 292.898 41.68C294.178 42.7733 294.818 44.2267 294.818 46.04C294.818 48.52 293.604 50.5867 291.178 52.24C288.778 53.8667 285.058 54.6933 280.018 54.72C280.098 56.4267 280.484 57.7733 281.178 58.76C281.871 59.72 282.738 60.2 283.778 60.2C284.818 60.2 285.711 59.8533 286.458 59.16C287.231 58.4667 287.618 57.3333 287.618 55.76C291.511 55.76 293.457 56.68 293.457 58.52C293.457 60.0933 292.498 61.5733 290.578 62.96C288.658 64.32 286.191 65 283.178 65ZM286.578 44.68C285.218 44.68 283.964 45.36 282.818 46.72C281.698 48.08 280.884 49.68 280.378 51.52C283.044 51.3067 285.044 50.7067 286.378 49.72C287.738 48.7067 288.418 47.64 288.418 46.52C288.418 45.9867 288.244 45.5467 287.898 45.2C287.578 44.8533 287.138 44.68 286.578 44.68ZM311.187 45.32C310.2 45.6133 309.413 46.04 308.827 46.6C308.24 47.1333 307.72 47.9067 307.267 48.92C311.773 49.5867 314.947 50.5467 316.787 51.8C318.627 53.0533 319.547 54.84 319.547 57.16C319.547 58.6267 319.133 59.9067 318.307 61C317.48 62.0667 316.44 62.88 315.187 63.44C312.733 64.48 310.32 65 307.947 65C301.2 65 297.827 63.5467 297.827 60.64C297.827 59.1733 298.48 57.7067 299.787 56.24C300.453 57.1733 301.453 57.9733 302.787 58.64C304.147 59.3067 305.467 59.64 306.747 59.64C308.96 59.64 310.293 58.6667 310.747 56.72C306.693 56.24 303.76 55.3333 301.947 54C300.133 52.6667 299.227 50.7867 299.227 48.36C299.227 46.44 299.853 44.8267 301.107 43.52C302.387 42.2133 303.96 41.3067 305.827 40.8C307.72 40.2667 309.84 40 312.187 40C314.56 40 316.507 40.4533 318.027 41.36C319.573 42.24 320.347 43.32 320.347 44.6C320.347 45.88 319.893 46.8667 318.987 47.56C318.107 48.2533 317.133 48.6 316.067 48.6C315.027 48.6 314.067 48.32 313.187 47.76C312.333 47.2 311.667 46.3867 311.187 45.32Z" fill="white"/>
<path d="M44 74L320.736 74" stroke="#D57E39" stroke-opacity="0.8" stroke-width="3" stroke-linecap="round"/>
<path d="M44 74L320.736 74" stroke="#D57E39" stroke-opacity="0.8" stroke-width="3" stroke-linecap="round"/>
</svg>
