<svg width="79" height="93" viewBox="0 0 79 93" fill="none" xmlns="http://www.w3.org/2000/svg">
<path d="M21.5435 34.1186C21.5867 34.1186 23.7062 33.6465 25.6959 34.7194C27.7289 35.7923 28.8102 36.8653 28.8102 36.9082L28.8535 36.9511V36.9082C28.8535 36.9082 28.94 36.6078 28.94 36.0498C28.8967 35.0628 28.4642 33.389 26.3015 31.5865C24.0522 29.7411 22.0625 29.5694 21.3272 29.5694L20.9379 29.6124H20.8514C19.597 29.8699 18.7752 31.0715 19.0347 32.2732C19.1645 32.874 19.5105 33.389 19.9863 33.7324C20.4621 34.0757 20.9812 34.2044 21.5435 34.1186ZM23.5332 31.4149C23.4899 31.2432 23.4467 31.0715 23.3602 30.8999C24.2252 31.2432 24.9606 31.6724 25.6959 32.2732C26.4312 32.9169 27.1233 33.7753 27.7288 34.8482C27.2098 34.5048 26.734 34.1615 26.1717 33.8611C25.3066 33.389 24.3118 33.1315 23.2304 33.0886C23.4899 32.7024 23.6197 32.2303 23.6197 31.7582C23.5764 31.6724 23.5764 31.5436 23.5332 31.4149ZM19.9431 32.1015C19.8133 31.3719 20.2891 30.6424 21.0244 30.5136L21.2407 30.4707H21.3272C21.976 30.4707 22.4951 30.9428 22.6248 31.5436L22.6681 31.7582C22.6681 32.0586 22.5816 32.3161 22.4518 32.5736C22.2355 32.874 21.9328 33.0886 21.5867 33.1315C21.2407 33.2173 20.8514 33.1315 20.5486 32.9169C20.2026 32.7882 20.0296 32.4878 19.9431 32.1015ZM78.9853 34.6336C78.8555 32.1444 78.1635 29.784 76.6063 27.8099C76.9091 26.2649 77.1254 24.677 77.1254 23.0891C77.1254 10.3429 66.701 0 53.8545 0C48.6207 0 43.56 1.75957 39.4508 4.97831C35.3416 1.75957 30.2809 0 25.0471 0C12.2005 0 1.77622 10.3858 1.77622 23.0891C1.77622 24.7199 1.94924 26.3507 2.29528 27.9815C-3.50081 36.1786 2.16551 47.9806 13.8442 45.9635C14.2767 46.5215 15.3148 47.8089 17.7371 50.7702C14.7958 52.1864 10.0378 52.7443 7.52905 49.9977C7.52905 49.9977 8.9997 56.6068 14.147 56.4781C13.6712 57.3793 13.4117 58.2806 13.4117 59.1818C13.4117 60.1689 13.7144 61.1131 14.2767 62.0572C14.839 62.9585 15.7474 63.6022 16.7855 63.8168C17.8236 64.0743 18.905 63.9026 19.8133 63.3018C20.5919 62.8297 21.1542 62.0572 21.3272 61.1989C21.3705 60.9414 21.4137 60.6839 21.4137 60.4264C21.4137 59.7826 21.2407 59.1818 20.8947 58.6239C20.5054 57.9802 19.8566 57.551 19.1645 57.3364C19.424 57.036 19.6835 56.7356 19.9863 56.4352C20.3756 56.0489 20.8514 55.6198 21.3705 55.1906C22.0193 56.006 32.5733 68.7951 33.1356 69.4818C32.7031 69.9539 30.3241 72.443 27.3396 73.988C27.3828 73.8163 27.4261 73.6447 27.4261 73.4301V73.0438C27.3396 71.9709 26.8205 71.0268 25.9987 70.383C25.0471 69.5676 23.7927 69.2243 22.5383 69.3101C21.2839 69.4389 20.1593 70.0397 19.3375 70.9838C17.3478 73.3872 17.6506 76.6917 20.0728 78.6659C22.149 80.3826 26.907 80.5971 31.5352 78.2797C30.8864 79.8676 30.5404 81.4555 30.5404 83.0005C30.5404 88.6654 36.25 93 36.25 93C36.25 93 35.9472 90.5967 35.9472 87.3779C35.9472 84.0734 37.1151 80.683 39.4508 77.3355C41.7433 80.683 42.9544 84.0734 42.9544 87.3779C42.9544 90.5967 42.6516 93 42.6516 93C42.6516 93 48.3612 88.6654 48.3612 83.0005C48.3612 81.4555 48.0152 79.8246 47.3231 78.2367C51.9946 80.5971 56.7958 80.3826 58.872 78.6659C61.2943 76.6488 61.6403 73.3443 59.6073 70.9838C58.7855 69.9968 57.6609 69.4389 56.4065 69.3101C55.1521 69.1814 53.941 69.5676 52.9462 70.383C52.1243 71.0697 51.6053 72.0138 51.5188 73.0438V73.4301C51.5188 73.6018 51.562 73.7734 51.6053 73.988C48.9235 72.6147 46.7175 70.5118 45.8092 69.4818C46.3715 68.838 57.0121 55.9202 57.6609 55.1477C58.1799 55.6198 58.699 56.0489 59.0883 56.4781C59.3911 56.7785 59.6506 57.0789 59.9101 57.3793C59.1748 57.551 58.5692 58.0231 58.1799 58.6668C57.8339 59.2247 57.6609 59.8256 57.6609 60.4693C57.6609 60.7268 57.7041 60.9843 57.7474 61.2418C57.9637 62.1431 58.4827 62.8726 59.2613 63.3447C60.1696 63.9026 61.251 64.0743 62.2891 63.8597C63.3272 63.6022 64.2356 63.0014 64.7979 62.1001C65.3602 61.1989 65.6629 60.2547 65.6629 59.2247C65.6629 58.3235 65.4034 57.4222 64.9276 56.521C70.0749 56.6497 71.5455 50.0406 71.5455 50.0406C69.0368 52.8302 64.2356 52.2293 61.2943 50.8131C61.9863 49.9977 64.9276 46.4356 65.2304 46.0494C73.5352 47.4227 79.3313 40.8994 78.9853 34.6336ZM59.0018 42.7019C56.7093 41.5861 54.7628 40.4702 53.768 39.8694C53.768 39.8694 53.422 39.6977 53.3787 39.6548C53.5517 39.3544 53.8112 39.0969 54.114 38.9252C54.4168 39.1827 56.32 40.6419 58.7422 41.7577C59.4776 42.1011 66.1387 44.9765 70.94 43.0023C72.8432 42.2298 74.1408 40.8136 74.9194 38.7965C75.3519 37.6377 75.5249 36.5648 75.5249 35.6207C75.5249 31.9728 72.8864 30.0845 72.8432 30.0845C73.2325 29.0974 73.492 28.0674 73.7083 27.0374C74.1408 27.3378 74.7896 27.8528 75.3519 28.6682C82.4889 38.7536 72.6702 49.3969 59.0018 42.7019ZM23.1439 37.5948C22.0625 37.5948 20.6351 38.1527 19.1212 38.7965C18.0831 39.2257 16.9585 39.6548 15.9637 39.9123C16.699 39.3544 17.7371 38.6677 18.6887 38.2386C20.4189 37.509 24.009 36.8652 24.3983 36.7794C25.8257 36.479 27.2098 37.4232 27.5126 38.7965C27.5558 39.054 27.7289 40.3415 28.8967 41.2427C30.6269 42.6161 33.8277 42.1869 36.2932 41.5002C29.286 45.749 22.5816 44.9336 19.9863 44.4186L19.8566 44.3756C19.597 44.3327 19.3375 44.204 19.1212 44.0323C19.251 43.9894 20.5054 43.4315 20.5054 43.4315C21.7597 42.8306 23.0574 42.144 24.355 41.4144C25.3066 41.4573 26.1284 41.4144 26.561 40.9852C26.734 40.8136 26.8205 40.5561 26.8205 40.2986C26.734 39.054 25.4796 37.5948 23.1439 37.5948ZM17.2613 33.7324C17.218 33.7324 16.0069 34.419 14.7958 34.934C13.5847 35.449 11.595 36.6936 11.5517 36.6936C11.5517 36.7365 11.5085 37.8523 11.5085 38.0669C11.1192 37.9811 10.6434 37.8094 10.4271 37.5519C10.1676 37.2086 10.3406 36.7365 10.3406 36.7365C10.8164 36.4361 12.5033 35.3632 14.32 34.5907L17.0883 33.3461L17.8669 33.0028H17.9101V32.9598C17.5208 32.0586 17.4776 31.0286 17.8669 30.0845C18.2561 29.1403 18.9482 28.4107 19.8998 28.0245C20.8947 27.5953 22.0193 27.6382 23.1006 28.1103C23.9657 28.4965 27.8154 30.7711 29.113 32.359C29.113 33.4748 29.3293 34.3761 29.3293 34.4619C29.3725 35.1915 29.7185 35.8353 30.2809 36.3073C30.8432 36.7794 31.5785 37.0369 32.3138 36.994C33.3952 36.9082 34.3468 36.2215 34.7361 35.1915C35.8174 36.8653 37.1583 38.4102 38.629 39.7836C36.5095 40.5561 31.492 42.144 29.459 40.5132C28.5507 39.7836 28.4209 38.6677 28.4209 38.6677V38.6248C28.0316 36.6936 26.1284 35.449 24.2252 35.8353C24.182 35.8353 20.2458 36.5219 18.2994 37.3373C16.6125 38.0669 14.7525 39.569 14.2335 39.9981C13.3251 39.8694 12.7628 39.3115 12.4168 38.8823L12.4601 37.1228C12.8493 36.9082 13.974 36.2644 15.1418 35.7494L17.2613 34.7623L20.5486 35.6636L20.5919 35.5778L17.2613 33.7324ZM36.6393 26.6082L37.5476 26.4366V26.3936C37.3313 25.3207 37.2016 24.2049 37.2016 23.0891C37.2016 21.2437 37.5043 19.4412 38.1099 17.7245C38.4992 18.6257 38.7587 19.5699 38.975 20.557C38.8452 21.4153 38.7587 22.2736 38.7587 23.132C38.7587 27.5095 40.6619 31.6294 44.0358 34.5048C44.079 35.8782 45.2036 37.0369 46.631 37.1657C47.3663 37.2086 48.1017 36.994 48.664 36.479C49.2263 36.0069 49.5723 35.3203 49.6156 34.6336C49.6156 34.5478 49.8318 33.6036 49.8318 32.4019C51.1295 30.8569 54.9359 28.5824 55.8009 28.1961C56.8823 27.724 58.0502 27.6811 59.0018 28.1103C59.9101 28.4965 60.6454 29.2261 61.0347 30.1703C61.2077 30.5994 61.2943 31.0715 61.2943 31.5436C61.2943 32.0586 61.2077 32.5736 60.9915 33.0457V33.0886L61.3375 33.2174C61.3375 33.2174 62.2891 33.7323 64.4951 34.6765C66.3118 35.449 68.4745 36.8653 68.4745 36.8653C68.4745 36.9082 68.561 37.3802 68.388 37.6807C68.1717 37.9811 67.6527 38.1098 67.3931 38.1527C67.3931 38.0669 67.3499 36.8223 67.3499 36.8223C67.3066 36.7794 65.3169 35.5778 64.1058 35.0198C62.8947 34.5048 61.6835 33.8182 61.6835 33.8182L58.353 35.7494L58.3962 35.8353L61.6835 34.934L63.7598 35.9211C64.7979 36.3932 66.009 37.0369 66.4415 37.3373V37.3803L66.4848 38.9682C66.182 39.3973 65.6197 39.9552 64.6681 40.1269C64.149 39.6977 62.3324 38.1957 60.6454 37.4661C58.7855 36.6507 55.1089 36.0069 54.7196 35.964C52.7731 35.5778 50.9132 36.8223 50.5239 38.7536V38.7965C50.5239 38.7965 50.4374 39.9981 49.4858 40.6419C46.8473 42.4444 40.4456 40.1698 39.7103 39.569C38.1532 38.3244 36.0337 35.7923 34.7793 33.5178C34.563 32.9169 34.3035 32.0157 34.1305 31.2003L34.044 30.6424C33.871 29.4407 34.2603 26.5224 34.3468 25.9645L34.4765 25.1061L33.698 25.4495C33.698 25.4495 33.0924 25.707 32.3571 26.1791C32.2273 25.1491 32.1408 24.162 32.1408 23.1749C32.1408 19.5699 33.0491 16.0078 34.7793 12.8749C35.9472 13.9479 36.942 15.2353 37.6774 16.6516C36.8123 18.7116 36.3797 20.9432 36.3797 23.1749C36.25 24.2907 36.3797 25.4924 36.6393 26.6082ZM44.9441 34.1186C45.0739 33.7324 45.5497 32.4449 45.8092 31.2432L45.9389 30.6424L45.9822 29.6982C45.9822 29.6982 45.8957 28.282 45.8957 28.1103C46.1985 28.4107 46.458 28.754 46.631 29.0544C46.9338 29.6553 47.1068 30.3849 47.1068 31.2432V31.2861L48.0584 31.2432V31.2003C48.0152 30.2132 47.7989 29.3549 47.4529 28.6253C47.1068 27.9386 46.5445 27.3378 45.7227 26.7799C45.7227 26.7799 45.6794 26.5653 45.6794 26.5224C46.5445 27.0374 47.6691 27.8528 48.2314 28.9257C48.664 29.7411 48.8802 30.814 48.8802 32.0586C48.8802 33.2173 48.7072 34.1186 48.664 34.2473V34.3332C48.6207 34.8482 48.4044 35.2773 48.0152 35.6207C47.6259 35.964 47.1501 36.0928 46.6743 36.0498C45.6794 35.964 44.9441 35.1486 44.9441 34.2044V34.1186ZM65.1439 30.7711C64.9276 30.9857 64.4951 31.5007 63.5435 32.6165C63.1975 32.4449 62.6784 32.2303 62.6784 32.2303C62.7217 31.9728 62.7649 31.7582 62.7649 31.5436C62.7649 30.8999 62.6351 30.2561 62.3756 29.6124C62.2891 29.3549 62.1593 29.0974 61.9863 28.8828C63.5002 28.3678 65.0574 28.4107 66.2685 28.6253C65.9225 29.3978 65.5332 30.1703 65.0574 30.8569L65.1439 30.7711ZM60.4724 27.8528C60.1264 27.5953 59.7804 27.3807 59.3911 27.209C58.1799 26.694 56.7525 26.737 55.4117 27.2949C55.1954 27.3807 54.7628 27.6382 54.287 27.8957C58.0069 24.2907 63.3272 22.9174 68.3447 24.3336C68.9935 24.5053 69.6424 24.7628 70.2479 25.0632C70.1182 26.0503 69.9019 26.9945 69.6423 27.9386C68.4312 27.4665 64.3221 25.9645 60.4724 27.8528ZM68.907 23.5611C68.907 23.5182 68.907 23.132 68.907 23.132C68.907 14.892 62.1161 8.15413 53.8112 8.15413C50.4374 8.15413 47.1068 9.31287 44.425 11.4158C44.3818 11.3729 43.6032 10.2141 43.6032 10.1712C46.5445 7.89663 50.0481 6.69497 53.768 6.69497C62.9379 6.69497 70.3777 14.0766 70.3777 23.1749C70.3777 23.1749 70.3344 24.0761 70.3344 24.162C69.9019 23.9045 69.4261 23.6899 68.907 23.5611ZM53.8112 9.61329C61.1645 9.61329 67.1336 15.407 67.3931 22.617C61.1645 21.4153 54.7628 23.9903 51.2592 29.1832C50.8267 29.4836 50.4374 29.784 50.0914 30.0415C49.9616 29.4407 49.7886 28.8828 49.5723 28.4107C49.2263 27.767 48.7072 27.1232 48.0152 26.5224C48.1882 25.4065 48.3179 24.2478 48.3179 23.0891C48.3179 19.3553 47.3663 15.6216 45.6362 12.317C47.9719 10.6004 50.87 9.61329 53.8112 9.61329ZM31.7948 31.3719C31.838 30.4707 32.011 29.7411 32.2706 29.1403C32.4436 28.797 32.7031 28.4965 33.0059 28.1961C33.0059 28.3678 32.9194 29.784 32.9194 29.784L32.9626 30.7282L33.0924 31.329C33.3519 32.5307 33.8277 33.8182 33.9575 34.2044V34.2903C33.9575 35.2773 33.1789 36.0927 32.2273 36.1357C31.7082 36.1786 31.2325 36.0069 30.8864 35.7065C30.4971 35.3632 30.2809 34.934 30.2376 34.419V34.3332C30.2376 34.2473 30.0213 33.3032 30.0213 32.1444C30.0213 30.8999 30.2376 29.827 30.6702 29.0115C31.2325 27.9386 32.3571 27.1232 33.2222 26.6082C33.2222 26.6511 33.1789 26.8657 33.1789 26.8657C32.4003 27.4236 31.7948 28.0245 31.4487 28.7111C31.1027 29.3978 30.8864 30.2561 30.8432 31.2861V31.329L31.7948 31.3719ZM30.5404 23.132C30.5404 24.2478 30.6269 25.4066 30.7999 26.5653C30.1511 27.1232 29.632 27.724 29.286 28.3678C29.0265 28.8828 28.8535 29.4407 28.7237 30.0845C28.3344 29.784 27.9451 29.4407 27.4693 29.1403C23.8792 23.9474 17.6506 21.4582 11.4219 22.6599C11.6815 15.4499 17.6506 9.65621 25.0038 9.65621C27.9451 9.65621 30.8432 10.6433 33.1789 12.4029C31.492 15.6645 30.5404 19.3553 30.5404 23.132ZM24.4848 27.8528C24.0522 27.5953 23.6629 27.4236 23.4467 27.2949C22.1058 26.6941 20.6784 26.6511 19.4673 27.209C19.078 27.3807 18.7319 27.5953 18.3859 27.8528C14.2335 25.7928 9.73503 27.767 9.08621 28.0674C8.78343 27.1232 8.56716 26.0932 8.4374 25.1061C9.08621 24.8057 9.73503 24.5482 10.3838 24.3336C15.4446 22.9603 20.8081 24.2907 24.4848 27.8528ZM16.872 28.797C16.699 29.0545 16.5692 29.312 16.4827 29.5694C16.2232 30.1703 16.0934 30.814 16.0934 31.5007C16.0934 31.7153 16.1367 31.9299 16.1799 32.1444C16.0502 32.1874 15.6176 32.4019 15.3148 32.5307C14.9256 32.0586 13.8874 30.7711 13.8442 30.7282C13.3684 30.0415 12.9791 29.312 12.6331 28.5395C13.8442 28.3678 15.3581 28.3249 16.872 28.797ZM29.286 45.8777C32.9626 45.1481 36.3797 43.6031 39.4075 41.1998C39.6671 41.4144 39.9266 41.629 40.2294 41.8006C43.0842 43.8606 46.3282 45.234 49.7886 45.9206C50.0914 46.6073 50.4374 47.294 50.8699 47.9806C50.4374 48.4956 40.2294 60.8985 39.4508 61.8426C38.7587 60.9843 28.5939 48.6673 28.1181 48.1094C28.5939 47.3798 28.9832 46.6502 29.286 45.8777ZM42.6084 41.5861C45.0739 42.2298 48.2747 42.7019 50.0049 41.3286C51.1295 40.4273 51.3457 39.0969 51.389 38.8394C51.6918 37.4232 53.0759 36.5219 54.5033 36.8223C54.6763 36.8652 58.4395 37.509 60.2562 38.2815C61.2077 38.6677 62.2458 39.3973 63.0244 39.9552C61.9863 39.6977 60.7752 39.2257 59.7371 38.7965C58.2232 38.1957 56.7958 37.5948 55.7144 37.5948C53.3787 37.5948 52.0811 39.054 52.0811 40.4273C52.0811 40.6848 52.1676 40.9423 52.3406 41.114C52.7731 41.5431 53.6382 41.5431 54.8061 41.5431C56.147 42.3156 57.4014 42.9594 58.6557 43.5602C58.6557 43.5602 59.8236 44.0323 59.9101 44.1181C59.6506 44.3327 59.3478 44.4615 59.0883 44.5044L58.9585 44.5473C56.32 45.0194 49.6588 45.7919 42.6084 41.5861ZM68.4312 42.0581C68.4745 41.9723 68.6042 41.8436 68.6042 41.8436C72.9729 36.8223 73.665 35.449 73.9678 34.9769C73.9678 35.1486 74.011 35.3632 74.011 35.5778C74.011 36.4361 73.838 37.3373 73.492 38.2815C72.8864 39.9123 71.8051 41.0282 70.3344 41.629C69.8154 41.8436 69.1666 41.9723 68.4312 42.0581ZM53.8112 1.50208C65.836 1.50208 75.6115 11.2012 75.6115 23.132C75.6115 24.4195 75.4817 25.7928 75.2222 27.0803C74.6166 26.4795 74.0976 26.0932 73.838 25.9215C74.011 25.0203 74.0543 24.0332 74.0543 23.132V23.0891H73.1027V23.132C73.1027 26.3507 72.2809 29.5265 70.7237 32.359V32.4019L71.5455 32.8311V32.7882C71.8916 32.1874 72.1511 31.5865 72.4539 30.9428C72.6702 31.1574 73.2325 31.6294 73.7083 32.4019C72.0646 35.964 66.009 42.7019 66.009 42.7019C63.4137 42.4873 60.7319 41.629 59.0883 40.8994C59.0883 40.8994 58.872 40.8136 58.7855 40.7707C58.8288 40.6848 59.5641 39.8265 59.5641 39.7836C61.1212 40.4273 62.5054 40.9423 63.7598 41.0282C66.2253 41.1998 67.2634 39.3973 67.4364 39.0111C67.8689 38.9682 68.6908 38.7536 69.08 38.1527C69.2963 37.8523 69.3828 37.509 69.3828 37.1657C69.3828 36.7365 69.1666 36.2215 69.1666 36.2215C69.1666 36.2215 66.9173 34.7194 64.7979 33.8182C64.7979 33.8182 64.6681 33.7753 64.6248 33.7324C64.6681 33.6465 65.7494 32.359 65.7494 32.359L65.8792 32.2303C66.7443 31.0715 67.4796 29.784 67.9987 28.4536C68.6042 28.6253 69.08 28.8399 69.3396 28.9257C69.0368 29.7411 68.6908 30.5136 68.2582 31.2432V31.2861L69.08 31.7582V31.7153C70.5507 29.1403 71.3293 26.1791 71.3293 23.2178C71.3293 13.6045 63.457 5.83664 53.8112 5.83664C49.8751 5.83664 46.1552 7.08121 43.0842 9.48454C42.2191 8.36871 41.2242 7.33871 40.1861 6.39455C44.0358 3.17582 48.8803 1.50208 53.8112 1.50208ZM25.0471 1.50208C37.0718 1.50208 46.8473 11.2012 46.8473 23.132C46.8473 24.1191 46.7608 25.1491 46.631 26.1791C45.8957 25.707 45.3334 25.4495 45.3334 25.4495L44.5548 25.1061L44.6846 25.9215C44.7278 26.2649 45.1604 29.3978 44.9873 30.6424C44.9873 30.6853 44.9441 30.814 44.8576 31.2003C44.6846 31.9728 44.425 32.8311 44.2088 33.4319C41.9595 31.3719 40.4456 28.6682 39.8833 25.707L40.0131 24.8057C40.0563 24.2478 40.0996 23.6899 40.0996 23.132C40.0996 14.892 33.3087 8.15413 25.0038 8.15413C16.699 8.15413 9.90804 14.892 9.90804 23.132C9.90804 23.132 9.90804 23.4753 9.90804 23.5611C9.38899 23.7328 8.86994 23.9045 8.35089 24.162C8.35089 24.0761 8.30763 23.1749 8.30763 23.1749C8.30763 14.0766 15.7474 6.69497 24.9173 6.69497C34.0872 6.69497 41.527 14.0766 41.527 23.1749C41.527 24.2907 41.3972 25.4065 41.181 26.4795V26.5224L42.0893 26.694V26.6511C42.3056 25.4924 42.4353 24.3336 42.4353 23.132C42.4353 13.5187 34.563 5.75081 24.9173 5.75081C15.2716 5.75081 7.39929 13.5616 7.39929 23.132C7.39929 26.0932 8.17787 29.0544 9.64852 31.6294V31.6724L10.4704 31.2003V31.1574C10.0811 30.4707 9.73503 29.7411 9.43225 28.9257C9.51876 28.8828 10.0378 28.6253 10.9029 28.3678C11.4219 29.7411 12.114 30.9857 12.9791 32.1444L13.1089 32.2732C13.1089 32.2732 14.0605 33.4319 14.1902 33.6036C14.1037 33.6465 13.8874 33.7324 13.8874 33.7324C11.768 34.6336 9.51876 36.1357 9.51876 36.1357C9.51876 36.1357 9.30249 36.6507 9.30249 37.0798C9.30249 37.4661 9.38899 37.8094 9.60526 38.0669C10.0378 38.6677 10.8596 38.8823 11.2922 38.9682C11.4652 39.3115 12.5033 41.1569 14.9256 40.9852C16.2664 40.8994 17.8236 40.2557 19.2077 39.6977C19.251 39.7407 20.0296 40.6848 20.0728 40.7707L19.8566 40.8565C18.2129 41.629 15.4879 42.4873 12.8926 42.659L7.05326 35.449C6.4477 34.6336 5.75562 33.389 5.23657 32.359C5.62586 31.7153 6.10166 31.2861 6.36119 31.0286C6.62071 31.6294 6.92349 32.2303 7.22627 32.7882V32.8311L8.0481 32.4019V32.359C6.49095 29.5694 5.66911 26.3507 5.66911 23.132V23.0891H4.71752V23.132C4.71752 24.1191 4.80403 25.1061 4.93379 26.0932C4.67426 26.2649 4.15521 26.6511 3.59291 27.252C3.33338 25.8786 3.20361 24.5053 3.20361 23.132C3.24687 11.2012 13.0224 1.50208 25.0471 1.50208ZM10.7299 42.2298C10.0378 42.144 7.18302 41.7577 5.53935 38.2386C4.89054 36.8653 5.0203 35.1486 5.06355 34.9769C5.36633 35.449 5.62586 35.9211 5.92864 36.3502C5.9719 36.3932 5.9719 36.3932 8.95645 40.084C8.95645 40.084 10.1676 41.5861 10.7299 42.2298ZM5.19332 27.0803C5.40959 28.1103 5.71237 29.1403 6.05841 30.1274C5.53935 30.5565 2.16551 33.5178 4.15521 38.7536C4.93379 40.7706 6.23143 42.1869 8.13462 42.9594C12.9791 44.9336 19.597 42.0581 20.3324 41.7148C22.5816 40.6848 24.3983 39.3544 24.9173 38.9682C25.1768 39.1398 25.4364 39.3973 25.6094 39.6548C25.1336 39.9552 22.8844 41.3715 20.0728 42.7019C3.07385 50.5985 -3.4143 34.0328 5.19332 27.0803ZM15.0986 45.234C16.0934 45.0623 17.0883 44.8048 18.0399 44.4615C18.5157 44.9336 19.078 45.2769 19.6403 45.3627L19.77 45.4056C20.2891 45.4915 21.7165 45.7919 23.6629 45.8348C23.1871 46.6502 21.9328 48.6244 20.3756 49.826C20.3756 49.826 19.5538 50.3839 19.424 50.5127C19.3808 50.4269 15.1851 45.3198 15.0986 45.234ZM18.9915 55.4052C16.7422 57.6368 16.3097 59.3964 16.3097 59.4393C16.2664 59.611 16.2664 59.7397 16.2664 59.8685C16.2664 60.2118 16.353 60.5551 16.5692 60.8556C16.8287 61.2418 17.218 61.5422 17.6938 61.6281C18.1264 61.7139 18.5589 61.6281 18.905 61.4135C19.597 60.9414 19.5538 60.0831 19.1645 59.4393L19.078 59.4822C19.078 59.5252 19.2942 60.2976 18.4292 60.6839C17.9966 60.8556 17.5641 60.7697 17.3478 60.4264C17.218 60.2118 17.1748 59.9543 17.218 59.6968C17.3045 59.3535 17.5208 59.096 17.6938 59.0102C18.0399 58.7956 18.4292 58.7527 18.7752 58.8385C19.1645 58.9243 19.4673 59.1389 19.6835 59.4822C19.9431 59.9114 20.0296 60.4264 19.9431 60.9414C19.8133 61.4564 19.5105 61.8426 19.078 62.1431C18.5157 62.4864 17.8236 62.6151 17.1748 62.4435C16.526 62.2718 15.9637 61.8856 15.6176 61.3276C15.0121 60.3835 14.0172 57.8514 17.3478 55.0618L17.3911 55.0189L16.7855 54.3323H16.7422C14.0605 55.7056 12.287 55.3193 10.0378 52.916C13.6712 54.3323 18.3859 52.7444 21.1542 50.4698C22.6681 49.1823 23.9225 47.6373 24.7876 45.8348C25.7824 45.8348 26.8205 45.749 27.8586 45.6202C26.6475 48.2381 24.8308 50.5556 22.4086 52.4868C20.9812 53.5598 19.8566 54.5468 18.9915 55.4052ZM34.217 86.9488C34.217 87.9788 34.39 88.9659 34.7361 89.9529C32.7464 87.5925 31.9678 85.3609 31.9678 83.215C31.9678 80.2967 33.3952 77.6359 34.9091 75.4042L34.1737 74.8034C29.8916 78.5801 23.3602 79.4813 20.9812 77.5501C20.1161 76.8205 19.597 75.8763 19.5105 74.8463C19.424 73.8163 19.7268 72.7863 20.4621 71.928C21.0244 71.2843 21.803 70.8551 22.6681 70.7693C23.5332 70.6834 24.355 70.9409 25.0471 71.4989C25.5661 71.928 25.8689 72.5288 25.9554 73.1726C25.9987 73.8163 25.8257 74.4601 25.3931 74.9751C25.1768 75.2326 24.6578 75.5759 24.0522 75.6188C23.5764 75.6617 23.1006 75.533 22.7546 75.2326C22.4518 74.9751 22.2788 74.6747 22.2355 74.2884C22.1923 73.9451 22.3221 73.5588 22.5816 73.2584C23.2304 72.4001 24.6145 72.4859 24.6145 72.4859H24.7443L24.6578 72.4001C23.7927 71.7134 22.5383 71.8422 21.8462 72.6576C21.457 73.1297 21.2407 73.7734 21.3272 74.3742C21.3705 74.9751 21.6732 75.5759 22.1923 75.9622C22.7546 76.4342 23.4899 76.6488 24.182 76.563C30.1511 75.9192 34.563 70.2114 34.563 70.1684C34.6063 70.2543 38.8885 75.4042 38.975 75.533C36.942 78.1509 34.217 82.6142 34.217 86.9488ZM41.873 71.8422C41.8298 71.7993 41.1377 70.9409 41.1377 70.9409L40.5321 71.6705L42.4786 74.0309L43.0842 73.3443V73.3013C43.0842 73.3013 42.4786 72.5718 42.4786 72.5288C42.5219 72.4859 44.3385 70.2543 44.425 70.2114C44.4683 70.2543 49.5291 76.0909 54.8494 76.563C55.5847 76.6488 56.2767 76.4342 56.8391 75.9622C57.3149 75.5759 57.6176 75.018 57.7041 74.3742C57.7474 73.7305 57.5744 73.1297 57.1851 72.6576C56.493 71.8422 55.2386 71.7134 54.3736 72.4001L54.287 72.4859H54.4168C54.4168 72.4859 55.8009 72.443 56.4498 73.2584C56.7093 73.5588 56.7958 73.9451 56.7958 74.2884C56.7525 74.6747 56.5795 75.018 56.2767 75.2326C55.8875 75.533 55.4549 75.6617 54.9791 75.6188C54.3735 75.5759 53.8545 75.2326 53.6382 74.9751C53.2057 74.4601 53.0327 73.8163 53.0759 73.1726C53.1192 72.5288 53.4652 71.928 53.9843 71.4989C54.6331 70.9409 55.4982 70.6834 56.3633 70.7693C57.2283 70.8551 58.0069 71.2414 58.5692 71.928C59.2613 72.7863 59.6073 73.8163 59.5208 74.8463C59.4343 75.8763 58.872 76.8634 58.0502 77.5501C55.6712 79.4813 49.1398 78.5801 44.8143 74.7605L44.1223 75.5759C45.6362 77.7647 46.977 80.3826 46.977 83.258C46.977 85.3609 46.1985 87.6354 44.2088 89.9958C44.5548 89.0088 44.6846 88.0217 44.6846 87.0346C44.6846 82.8717 42.1758 78.623 40.4456 76.1767C39.6671 75.0609 39.0615 74.3313 38.975 74.2026C38.975 74.2026 22.7546 54.461 22.2355 53.8602C22.2788 53.8173 23.0141 53.2164 23.0141 53.2164C23.4899 52.8302 23.9657 52.401 24.3983 51.9719C24.4415 52.0148 33.9575 63.6022 33.9575 63.6022L34.563 62.8726C34.563 62.8726 25.0903 51.3281 25.0471 51.2852C25.7392 50.5556 26.388 49.7831 26.9503 49.0106C26.9935 49.0964 38.8452 63.4305 38.8885 63.4735C38.8452 63.5164 37.0285 65.748 36.9853 65.791C36.942 65.748 36.2932 64.9755 36.2932 64.9755L35.6877 65.7051L37.5476 67.9797L38.1532 67.2501C38.1532 67.2501 37.6341 66.6064 37.5909 66.5635C37.6341 66.5205 52.0811 49.0106 52.1676 48.9248C52.6866 49.6544 53.2922 50.3839 53.8978 51.0706C53.8545 51.1135 42.2623 65.276 42.2623 65.276L42.9977 65.8768C42.9977 65.8768 54.5466 51.8431 54.5898 51.7573C55.1089 52.2723 55.6712 52.7873 56.2335 53.2164C56.2335 53.2164 56.8823 53.7314 56.9256 53.8173C56.7958 53.8173 41.9595 71.7563 41.873 71.8422ZM69.1233 52.8731C66.8741 55.2764 65.1006 55.6627 62.4189 54.2893H62.3756L61.7701 54.976L61.8133 55.0189C65.1872 57.8514 64.149 60.3406 63.5435 61.2847C63.1975 61.8426 62.6351 62.2718 61.9863 62.4006C61.3375 62.5722 60.6454 62.4435 60.0831 62.1001C59.6506 61.8426 59.3478 61.4135 59.218 60.8985C59.0883 60.3835 59.1748 59.8685 59.4776 59.4393C59.6938 59.096 59.9966 58.8814 60.3859 58.7956C60.7752 58.7097 61.1645 58.7527 61.4673 58.9672C61.6403 59.0531 61.8566 59.3535 61.9431 59.6539C61.9863 59.9114 61.9431 60.1689 61.8133 60.3835C61.597 60.7268 61.1212 60.8126 60.732 60.641C59.8669 60.2547 60.0831 59.4822 60.0831 59.4393L59.9966 59.3964C59.6073 60.0401 59.5641 60.8985 60.2562 61.3706C60.6022 61.6281 61.0347 61.7139 61.5105 61.5851C61.9863 61.4993 62.3756 61.1989 62.6351 60.8126C62.8082 60.5122 62.9379 60.1689 62.9379 59.8256C62.9379 59.6968 62.9379 59.5251 62.8947 59.3535C62.8947 59.3535 62.4621 57.551 60.2129 55.3193C59.3046 54.461 58.1799 53.4739 56.8391 52.3581C54.4168 50.4269 52.6001 48.1094 51.389 45.4915C52.3839 45.6202 53.422 45.706 54.4601 45.706C55.3252 47.4656 56.5363 49.0535 58.0934 50.2981C60.7752 52.7443 65.4467 54.2893 69.1233 52.8731ZM59.6073 50.4698C59.5641 50.4269 58.7422 49.826 58.7422 49.826C57.1851 48.6244 55.9307 46.6502 55.4549 45.8348C57.2716 45.749 58.6125 45.4915 59.1315 45.4056L59.2613 45.3627C59.8236 45.2769 60.4292 44.9336 60.9482 44.4186C61.8998 44.7619 62.9379 45.0194 63.976 45.234C63.8463 45.3198 59.6506 50.3839 59.6073 50.4698ZM50.2211 36.9082C50.2211 36.9082 51.3025 35.8353 53.3354 34.7194C55.3252 33.6465 57.4446 34.1186 57.4879 34.1186C58.0502 34.1615 58.5692 34.0328 59.045 33.7324C59.5641 33.389 59.9101 32.874 60.0399 32.2732C60.2994 31.0286 59.4776 29.827 58.2232 29.6124H58.1367L57.7474 29.5694C57.0121 29.5694 55.0656 29.7411 52.7731 31.5865C50.6104 33.389 50.1779 35.0628 50.1346 36.0498C50.1346 36.5648 50.2211 36.8653 50.2211 36.9082ZM56.4065 31.6294C56.5363 31.0286 57.0986 30.5565 57.7041 30.5136H57.7906H58.0069C58.7422 30.6424 59.218 31.3719 59.0883 32.1015C59.0018 32.4449 58.8288 32.7453 58.526 32.9598C58.2232 33.1744 57.8772 33.2173 57.4879 33.1744C57.1418 33.0886 56.8391 32.9169 56.6228 32.6165C56.4498 32.359 56.3633 32.1015 56.4065 31.8011V31.6294ZM53.3354 32.3161C54.0275 31.7153 54.7628 31.2861 55.6712 30.9428C55.5847 31.1144 55.5414 31.2432 55.4982 31.4578C55.4549 31.5865 55.4549 31.7153 55.4549 31.8011C55.4549 32.2732 55.5847 32.7453 55.8442 33.1315C54.7628 33.1744 53.8112 33.4319 52.9029 33.904C52.3406 34.2044 51.8215 34.5478 51.3457 34.8911C51.9081 33.8182 52.6001 32.9598 53.3354 32.3161Z" fill="white"/>
</svg>
