<svg width="41" height="48" viewBox="0 0 41 48" fill="none" xmlns="http://www.w3.org/2000/svg">
<path d="M11.1808 17.6096C11.2032 17.6096 12.3032 17.3659 13.3358 17.9197C14.3909 18.4735 14.9521 19.0272 14.9521 19.0494L14.9746 19.0715V19.0494C14.9746 19.0494 15.0195 18.8943 15.0195 18.6064C14.997 18.0969 14.7725 17.233 13.6501 16.3027C12.4828 15.3503 11.4502 15.2617 11.0685 15.2617L10.8665 15.2838H10.8216C10.1706 15.4167 9.74409 16.0369 9.87878 16.6571C9.94612 16.9672 10.1257 17.233 10.3726 17.4102C10.6196 17.5875 10.889 17.6539 11.1808 17.6096ZM12.2134 16.2141C12.191 16.1255 12.1685 16.0369 12.1236 15.9483C12.5726 16.1255 12.9542 16.347 13.3358 16.6571C13.7175 16.9894 14.0766 17.4324 14.3909 17.9862C14.1215 17.809 13.8746 17.6317 13.5828 17.4767C13.1338 17.233 12.6175 17.1001 12.0563 17.078C12.191 16.8786 12.2583 16.635 12.2583 16.3913C12.2359 16.347 12.2359 16.2806 12.2134 16.2141ZM10.3502 16.5685C10.2829 16.192 10.5298 15.8154 10.9114 15.749L11.0236 15.7268H11.0685C11.4053 15.7268 11.6747 15.9705 11.742 16.2806L11.7645 16.3913C11.7645 16.5464 11.7196 16.6793 11.6522 16.8122C11.54 16.9672 11.3828 17.078 11.2032 17.1001C11.0237 17.1444 10.8216 17.1001 10.6645 16.9894C10.4849 16.9229 10.3951 16.7679 10.3502 16.5685ZM40.9924 17.8754C40.925 16.5907 40.5658 15.3724 39.7577 14.3535C39.9148 13.5561 40.0271 12.7365 40.0271 11.9169C40.0271 5.33825 34.617 0 27.9498 0C25.2335 0 22.6071 0.908166 20.4745 2.56945C18.3419 0.908166 15.7154 0 12.9991 0C6.33192 0 0.921835 5.3604 0.921835 11.9169C0.921835 12.7587 1.01163 13.6004 1.19122 14.4421C-1.81688 18.6728 1.12387 24.7642 7.18496 23.7231C7.40945 24.0111 7.94821 24.6756 9.20533 26.204C7.67883 26.9349 5.2095 27.2229 3.90748 25.8053C3.90748 25.8053 4.67073 29.2164 7.3421 29.15C7.09517 29.6151 6.96048 30.0803 6.96048 30.5455C6.96048 31.0549 7.11762 31.5422 7.40945 32.0295C7.70128 32.4947 8.1727 32.8269 8.71146 32.9377C9.25022 33.0706 9.81143 32.982 10.2829 32.6719C10.6869 32.4282 10.9788 32.0295 11.0685 31.5865C11.091 31.4536 11.1134 31.3207 11.1134 31.1878C11.1134 30.8556 11.0237 30.5455 10.8441 30.2575C10.642 29.9252 10.3053 29.7037 9.94613 29.593C10.0808 29.4379 10.2155 29.2829 10.3726 29.1278C10.5747 28.9285 10.8216 28.707 11.091 28.4855C11.4277 28.9063 16.9052 35.5072 17.197 35.8616C16.9725 36.1052 15.7378 37.3899 14.1889 38.1874C14.2113 38.0988 14.2338 38.0102 14.2338 37.8994V37.7C14.1889 37.1463 13.9195 36.659 13.493 36.3267C12.9991 35.9059 12.3481 35.7287 11.6971 35.773C11.0461 35.8394 10.4624 36.1495 10.0359 36.6368C9.00329 37.8773 9.16043 39.5828 10.4175 40.6018C11.4951 41.4878 13.9644 41.5985 16.3664 40.4024C16.0297 41.222 15.8501 42.0415 15.8501 42.839C15.8501 45.7628 18.8133 48 18.8133 48C18.8133 48 18.6561 46.7596 18.6561 45.0983C18.6561 43.3927 19.2622 41.6428 20.4745 39.9151C21.6642 41.6428 22.2928 43.3927 22.2928 45.0983C22.2928 46.7596 22.1356 48 22.1356 48C22.1356 48 25.0988 45.7628 25.0988 42.839C25.0988 42.0415 24.9193 41.1998 24.5601 40.3803C26.9845 41.5985 29.4763 41.4878 30.5538 40.6018C31.8109 39.5607 31.9905 37.8551 30.9355 36.6368C30.5089 36.1274 29.9253 35.8394 29.2743 35.773C28.6233 35.7065 27.9947 35.9059 27.4784 36.3267C27.0519 36.6811 26.7825 37.1684 26.7376 37.7V37.8994C26.7376 37.988 26.76 38.0766 26.7825 38.1874C25.3907 37.4785 24.2458 36.3932 23.7744 35.8616C24.0662 35.5293 29.5885 28.862 29.9253 28.4633C30.1947 28.707 30.464 28.9285 30.6661 29.15C30.8232 29.305 30.9579 29.4601 31.0926 29.6151C30.711 29.7037 30.3967 29.9474 30.1946 30.2796C30.0151 30.5676 29.9253 30.8777 29.9253 31.21C29.9253 31.3429 29.9477 31.4758 29.9702 31.6087C30.0824 32.0738 30.3518 32.4504 30.7559 32.6941C31.2273 32.982 31.7885 33.0706 32.3273 32.9599C32.866 32.827 33.3374 32.5168 33.6293 32.0517C33.9211 31.5865 34.0782 31.0992 34.0782 30.5676C34.0782 30.1024 33.9435 29.6373 33.6966 29.1721C36.368 29.2386 37.1312 25.8274 37.1312 25.8274C35.8292 27.2672 33.3374 26.9571 31.8109 26.2261C32.1701 25.8053 33.6966 23.9668 33.8538 23.7674C38.1639 24.4762 41.172 21.1094 40.9924 17.8754ZM30.6212 22.0397C29.4314 21.4638 28.4212 20.8879 27.9049 20.5778C27.9049 20.5778 27.7253 20.4892 27.7029 20.467C27.7927 20.312 27.9274 20.179 28.0845 20.0904C28.2416 20.2233 29.2294 20.9765 30.4865 21.5524C30.8681 21.7296 34.3252 23.2137 36.817 22.1947C37.8047 21.796 38.4781 21.0651 38.8822 20.024C39.1067 19.4259 39.1965 18.8722 39.1965 18.3849C39.1965 16.5021 37.8271 15.5275 37.8047 15.5275C38.0067 15.018 38.1414 14.4864 38.2537 13.9548C38.4781 14.1098 38.8149 14.3756 39.1067 14.7965C42.8107 20.0018 37.7149 25.4952 30.6212 22.0397ZM12.0114 19.4038C11.4502 19.4038 10.7094 19.6917 9.92368 20.024C9.38491 20.2455 8.80125 20.467 8.28494 20.5999C8.66656 20.312 9.20532 19.9575 9.69919 19.736C10.5971 19.3595 12.4604 19.0272 12.6624 18.9829C13.4032 18.8279 14.1215 19.3152 14.2787 20.024C14.3011 20.1569 14.3909 20.8214 14.997 21.2866C15.895 21.9954 17.5562 21.7739 18.8357 21.4195C15.1991 23.6124 11.7196 23.1915 10.3726 22.9257L10.3053 22.9036C10.1706 22.8814 10.0359 22.815 9.92368 22.7264C9.99102 22.7042 10.642 22.4162 10.642 22.4162C11.293 22.1061 11.9665 21.7517 12.6399 21.3752C13.1338 21.3973 13.5603 21.3752 13.7848 21.1537C13.8746 21.0651 13.9195 20.9322 13.9195 20.7993C13.8746 20.1569 13.2236 19.4038 12.0114 19.4038ZM8.95839 17.4102C8.93594 17.4102 8.30739 17.7647 7.67883 18.0305C7.05027 18.2963 6.01764 18.9386 5.99519 18.9386C5.99519 18.9608 5.97274 19.5367 5.97274 19.6474C5.77071 19.6031 5.52377 19.5145 5.41153 19.3816C5.27684 19.2044 5.36663 18.9608 5.36663 18.9608C5.61357 18.8057 6.48906 18.252 7.43189 17.8533L8.8686 17.2109L9.27267 17.0337H9.29512V17.0115C9.09308 16.5464 9.07063 16.0148 9.27267 15.5275C9.47471 15.0402 9.83388 14.6636 10.3277 14.4642C10.8441 14.2427 11.4277 14.2649 11.9889 14.5085C12.4379 14.7079 14.4358 15.8819 15.1093 16.7014C15.1093 17.2773 15.2215 17.7425 15.2215 17.7868C15.244 18.1634 15.4236 18.4956 15.7154 18.7393C16.0072 18.9829 16.3888 19.1158 16.7705 19.0937C17.3317 19.0494 17.8255 18.695 18.0276 18.1634C18.5888 19.0272 19.2847 19.8246 20.0479 20.5335C18.948 20.9322 16.3439 21.7517 15.2889 20.91C14.8174 20.5335 14.7501 19.9575 14.7501 19.9575V19.9354C14.5481 18.9386 13.5603 18.2963 12.5726 18.4956C12.5501 18.4956 10.5073 18.85 9.49716 19.2709C8.62167 19.6474 7.65638 20.4227 7.387 20.6442C6.91558 20.5778 6.62375 20.2898 6.44416 20.0683L6.46661 19.1601C6.66865 19.0494 7.25231 18.7171 7.85842 18.4513L8.95839 17.9419L10.6645 18.407L10.6869 18.3627L8.95839 17.4102ZM19.0153 13.7333L19.4867 13.6447V13.6225C19.3745 13.0688 19.3071 12.4928 19.3071 11.9169C19.3071 10.9645 19.4643 10.0341 19.7786 9.14813C19.9806 9.61329 20.1153 10.1006 20.2275 10.6101C20.1602 11.0531 20.1153 11.4961 20.1153 11.9391C20.1153 14.1984 21.103 16.3249 22.854 17.809C22.8764 18.5178 23.4601 19.1158 24.2009 19.1823C24.5825 19.2044 24.9642 19.0937 25.256 18.8279C25.5478 18.5842 25.7274 18.2298 25.7499 17.8754C25.7499 17.8311 25.8621 17.3438 25.8621 16.7236C26.5355 15.9262 28.511 14.7522 28.96 14.5528C29.5212 14.3092 30.1273 14.287 30.6212 14.5085C31.0926 14.7079 31.4742 15.0844 31.6763 15.5718C31.766 15.7933 31.8109 16.0369 31.8109 16.2806C31.8109 16.5464 31.766 16.8122 31.6538 17.0558V17.078L31.8334 17.1444C31.8334 17.1444 32.3273 17.4102 33.4721 17.8976C34.415 18.2963 35.5374 19.0272 35.5374 19.0272C35.5374 19.0494 35.5823 19.293 35.4925 19.4481C35.3802 19.6031 35.1109 19.6696 34.9762 19.6917C34.9762 19.6474 34.9537 19.0051 34.9537 19.0051C34.9313 18.9829 33.8987 18.3627 33.2701 18.0748C32.6415 17.809 32.013 17.4545 32.013 17.4545L30.2844 18.4513L30.3069 18.4956L32.013 18.0305L33.0905 18.5399C33.6293 18.7836 34.2578 19.1158 34.4823 19.2709V19.293L34.5048 20.1126C34.3476 20.3341 34.0558 20.6221 33.5619 20.7107C33.2925 20.4892 32.3497 19.7139 31.4742 19.3373C30.5089 18.9165 28.6008 18.5842 28.3988 18.5621C27.3886 18.3627 26.4233 19.0051 26.2213 20.0018V20.024C26.2213 20.024 26.1764 20.6442 25.6825 20.9765C24.3132 21.9068 20.9908 20.7328 20.6092 20.4227C19.801 19.7803 18.701 18.4735 18.05 17.2995C17.9378 16.9894 17.8031 16.5242 17.7133 16.1034L17.6684 15.8154C17.5786 15.1952 17.7806 13.689 17.8255 13.401L17.8929 12.958L17.4888 13.1352C17.4888 13.1352 17.1745 13.2681 16.7929 13.5118C16.7256 12.9802 16.6807 12.4707 16.6807 11.9612C16.6807 10.1006 17.1521 8.26211 18.05 6.64513C18.6561 7.19889 19.1724 7.8634 19.5541 8.59437C19.1051 9.65759 18.8806 10.8094 18.8806 11.9612C18.8133 12.5371 18.8806 13.1574 19.0153 13.7333ZM23.3254 17.6096C23.3928 17.4102 23.6397 16.7457 23.7744 16.1255L23.8417 15.8154L23.8642 15.3281C23.8642 15.3281 23.8193 14.5971 23.8193 14.5085C23.9764 14.6636 24.1111 14.8408 24.2009 14.9958C24.358 15.306 24.4478 15.6825 24.4478 16.1255V16.1477L24.9417 16.1255V16.1034C24.9193 15.5939 24.807 15.1509 24.6274 14.7743C24.4478 14.4199 24.156 14.1098 23.7295 13.8219C23.7295 13.8219 23.707 13.7111 23.707 13.689C24.156 13.9548 24.7397 14.3756 25.0315 14.9294C25.256 15.3503 25.3682 15.904 25.3682 16.5464C25.3682 17.1444 25.2784 17.6096 25.256 17.676V17.7204C25.2335 17.9862 25.1213 18.2077 24.9193 18.3849C24.7172 18.5621 24.4703 18.6285 24.2234 18.6064C23.707 18.5621 23.3254 18.1412 23.3254 17.6539V17.6096ZM33.8089 15.8819C33.6966 15.9926 33.4721 16.2584 32.9783 16.8343C32.7987 16.7457 32.5293 16.635 32.5293 16.635C32.5517 16.5021 32.5742 16.3913 32.5742 16.2806C32.5742 15.9483 32.5068 15.6161 32.3722 15.2838C32.3273 15.1509 32.2599 15.018 32.1701 14.9072C32.9558 14.6414 33.764 14.6636 34.3925 14.7743C34.2129 15.173 34.0109 15.5718 33.764 15.9262L33.8089 15.8819ZM31.3844 14.3756C31.2048 14.2427 31.0252 14.132 30.8232 14.0434C30.1947 13.7776 29.4539 13.7997 28.7579 14.0877C28.6457 14.132 28.4212 14.2649 28.1743 14.3978C30.1049 12.5371 32.866 11.8283 35.47 12.5593C35.8068 12.6479 36.1435 12.7808 36.4578 12.9359C36.3904 13.4453 36.2782 13.9326 36.1435 14.4199C35.5149 14.1763 33.3823 13.401 31.3844 14.3756ZM35.7619 12.1606C35.7619 12.1384 35.7619 11.9391 35.7619 11.9391C35.7619 7.6862 32.2375 4.20858 27.9274 4.20858C26.1764 4.20858 24.4478 4.80664 23.056 5.89202C23.0336 5.86986 22.6295 5.2718 22.6295 5.24965C24.156 4.07568 25.9743 3.45547 27.9049 3.45547C32.664 3.45547 36.5251 7.26534 36.5251 11.9612C36.5251 11.9612 36.5027 12.4264 36.5027 12.4707C36.2782 12.3378 36.0313 12.227 35.7619 12.1606ZM27.9274 4.9617C31.7436 4.9617 34.8415 7.952 34.9762 11.6733C31.7436 11.0531 28.4212 12.3821 26.6029 15.0623C26.3784 15.2174 26.1764 15.3724 25.9968 15.5053C25.9294 15.1952 25.8396 14.9072 25.7274 14.6636C25.5478 14.3313 25.2784 13.9991 24.9193 13.689C25.0091 13.1131 25.0764 12.515 25.0764 11.9169C25.0764 9.98985 24.5825 8.06276 23.6846 6.35717C24.8968 5.47115 26.4009 4.9617 27.9274 4.9617ZM16.5011 16.192C16.5235 15.7268 16.6133 15.3503 16.748 15.0401C16.8378 14.8629 16.9725 14.7079 17.1296 14.5528C17.1296 14.6414 17.0847 15.3724 17.0847 15.3724L17.1072 15.8597L17.1745 16.1698C17.3092 16.79 17.5562 17.4545 17.6235 17.6539V17.6982C17.6235 18.2077 17.2194 18.6285 16.7256 18.6507C16.4562 18.6728 16.2093 18.5842 16.0297 18.4292C15.8276 18.252 15.7154 18.0305 15.6929 17.7646V17.7204C15.6929 17.6761 15.5807 17.1887 15.5807 16.5907C15.5807 15.9483 15.6929 15.3946 15.9174 14.9737C16.2093 14.4199 16.7929 13.9991 17.2419 13.7333C17.2419 13.7554 17.2194 13.8662 17.2194 13.8662C16.8154 14.1541 16.5011 14.4642 16.3215 14.8186C16.1419 15.1731 16.0297 15.6161 16.0072 16.1477V16.1698L16.5011 16.192ZM15.8501 11.9391C15.8501 12.515 15.895 13.1131 15.9848 13.7111C15.648 13.9991 15.3787 14.3092 15.1991 14.6414C15.0644 14.9072 14.9746 15.1952 14.9072 15.5275C14.7052 15.3724 14.5032 15.1952 14.2562 15.0401C12.393 12.3599 9.16043 11.0752 5.92785 11.6954C6.06254 7.97416 9.16043 4.98385 12.9767 4.98385C14.5032 4.98385 16.0072 5.49331 17.2194 6.40148C16.3439 8.08491 15.8501 9.98985 15.8501 11.9391ZM12.7073 14.3756C12.4828 14.2427 12.2808 14.1541 12.1685 14.0877C11.4726 13.7776 10.7318 13.7554 10.1033 14.0434C9.90123 14.132 9.72164 14.2427 9.54205 14.3756C7.387 13.3124 5.05236 14.3313 4.71563 14.4864C4.55849 13.9991 4.44625 13.4675 4.3789 12.958C4.71563 12.803 5.05236 12.67 5.38908 12.5593C8.01556 11.8505 10.7992 12.5371 12.7073 14.3756ZM8.75636 14.8629C8.66656 14.9958 8.59921 15.1287 8.55432 15.2617C8.41963 15.5718 8.35228 15.904 8.35228 16.2584C8.35228 16.3692 8.37473 16.4799 8.39718 16.5907C8.32983 16.6128 8.10535 16.7236 7.94821 16.79C7.74617 16.5464 7.20741 15.8819 7.18496 15.8597C6.93803 15.5053 6.73599 15.1288 6.5564 14.73C7.18496 14.6414 7.97066 14.6193 8.75636 14.8629ZM15.1991 23.6788C17.1072 23.3023 18.8806 22.5048 20.452 21.2644C20.5867 21.3752 20.7214 21.4859 20.8785 21.5745C22.3601 22.6377 24.0438 23.3466 25.8396 23.701C25.9968 24.0554 26.1764 24.4098 26.4009 24.7642C26.1764 25.03 20.8785 31.4315 20.4745 31.9188C20.1153 31.4758 14.8399 25.1186 14.593 24.8306C14.8399 24.4541 15.0419 24.0775 15.1991 23.6788ZM22.1132 21.4638C23.3928 21.796 25.0539 22.0397 25.9519 21.3309C26.5355 20.8657 26.6478 20.1791 26.6702 20.0461C26.8274 19.3152 27.5457 18.85 28.2865 19.0051C28.3763 19.0272 30.3293 19.3595 31.2722 19.7582C31.766 19.9575 32.3048 20.3341 32.7089 20.6221C32.1701 20.4892 31.5416 20.2455 31.0028 20.024C30.2171 19.7139 29.4763 19.4038 28.9151 19.4038C27.7029 19.4038 27.0294 20.1569 27.0294 20.8657C27.0294 20.9986 27.0743 21.1315 27.1641 21.2201C27.3886 21.4416 27.8376 21.4416 28.4437 21.4416C29.1396 21.8403 29.7906 22.1726 30.4416 22.4827C30.4416 22.4827 31.0477 22.7263 31.0926 22.7707C30.9579 22.8814 30.8008 22.9479 30.6661 22.97L30.5987 22.9922C29.2294 23.2358 25.7723 23.6345 22.1132 21.4638ZM35.5149 21.7074C35.5374 21.6631 35.6047 21.5967 35.6047 21.5967C37.872 19.0051 38.2312 18.2963 38.3883 18.0526C38.3883 18.1412 38.4108 18.252 38.4108 18.3627C38.4108 18.8057 38.321 19.2709 38.1414 19.7582C37.8271 20.5999 37.2659 21.1758 36.5027 21.4859C36.2333 21.5967 35.8966 21.6631 35.5149 21.7074ZM27.9274 0.775265C34.168 0.775265 39.2414 5.78126 39.2414 11.9391C39.2414 12.6036 39.174 13.3124 39.0394 13.9769C38.7251 13.6668 38.4557 13.4675 38.321 13.3789C38.4108 12.9137 38.4332 12.4042 38.4332 11.9391V11.9169H37.9394V11.9391C37.9394 13.6004 37.5129 15.2395 36.7047 16.7014V16.7236L37.1312 16.9451V16.9229C37.3108 16.6128 37.4455 16.3027 37.6026 15.9705C37.7149 16.0812 38.0067 16.3249 38.2537 16.7236C37.4006 18.5621 34.2578 22.0397 34.2578 22.0397C32.9109 21.9289 31.5191 21.4859 30.6661 21.1094C30.6661 21.1094 30.5538 21.0651 30.5089 21.0429C30.5314 20.9986 30.913 20.5556 30.913 20.5335C31.7211 20.8657 32.4395 21.1315 33.0905 21.1758C34.3701 21.2644 34.9088 20.3341 34.9986 20.1347C35.2231 20.1126 35.6496 20.0018 35.8517 19.6917C35.9639 19.5367 36.0088 19.3595 36.0088 19.1823C36.0088 18.9608 35.8966 18.695 35.8966 18.695C35.8966 18.695 34.7292 17.9197 33.6293 17.4545C33.6293 17.4545 33.5619 17.4324 33.5395 17.4102C33.5619 17.3659 34.1231 16.7014 34.1231 16.7014L34.1905 16.635C34.6395 16.0369 35.0211 15.3724 35.2905 14.6857C35.6047 14.7743 35.8517 14.8851 35.9864 14.9294C35.8292 15.3503 35.6496 15.749 35.4251 16.1255V16.1477L35.8517 16.3913V16.3692C36.6149 15.0401 37.019 13.5118 37.019 11.9834C37.019 7.02169 32.9334 3.01246 27.9274 3.01246C25.8845 3.01246 23.954 3.65482 22.3601 4.89525C21.9112 4.31933 21.3949 3.78772 20.8561 3.30041C22.854 1.63913 25.3682 0.775265 27.9274 0.775265ZM12.9991 0.775265C19.2398 0.775265 24.3132 5.78126 24.3132 11.9391C24.3132 12.4485 24.2683 12.9802 24.2009 13.5118C23.8193 13.2681 23.5275 13.1352 23.5275 13.1352L23.1234 12.958L23.1907 13.3789C23.2132 13.5561 23.4377 15.1731 23.3479 15.8154C23.3479 15.8376 23.3254 15.904 23.2805 16.1034C23.1907 16.5021 23.056 16.9451 22.9438 17.2552C21.7765 16.192 20.9908 14.7965 20.6989 13.2681L20.7663 12.803C20.7887 12.515 20.8112 12.227 20.8112 11.9391C20.8112 7.6862 17.2868 4.20858 12.9767 4.20858C8.66656 4.20858 5.14215 7.6862 5.14215 11.9391C5.14215 11.9391 5.14215 12.1163 5.14215 12.1606C4.87277 12.2492 4.60339 12.3378 4.33401 12.4707C4.33401 12.4264 4.31156 11.9612 4.31156 11.9612C4.31156 7.26534 8.17269 3.45547 12.9318 3.45547C17.6908 3.45547 21.552 7.26534 21.552 11.9612C21.552 12.5371 21.4846 13.1131 21.3724 13.6668V13.689L21.8438 13.7776V13.7554C21.9561 13.1574 22.0234 12.5593 22.0234 11.9391C22.0234 6.97739 17.9378 2.96816 12.9318 2.96816C7.92576 2.96816 3.84014 6.99954 3.84014 11.9391C3.84014 13.4675 4.24421 14.9958 5.00746 16.3249V16.347L5.43398 16.1034V16.0812C5.23194 15.7268 5.05236 15.3503 4.89522 14.9294C4.94012 14.9072 5.2095 14.7743 5.65847 14.6414C5.92785 15.3503 6.28702 15.9926 6.73599 16.5907L6.80334 16.6571C6.80334 16.6571 7.29721 17.2552 7.36455 17.3438C7.31965 17.3659 7.20741 17.4102 7.20741 17.4102C6.10743 17.8754 4.94011 18.6507 4.94011 18.6507C4.94011 18.6507 4.82787 18.9165 4.82787 19.138C4.82787 19.3373 4.87277 19.5145 4.98501 19.6474C5.2095 19.9575 5.63602 20.0683 5.8605 20.1126C5.95029 20.2898 6.48906 21.2423 7.74617 21.1537C8.44208 21.1094 9.25022 20.7771 9.96857 20.4892C9.99102 20.5113 10.3951 20.9986 10.4175 21.0429L10.3053 21.0872C9.45226 21.4859 8.03801 21.9289 6.6911 22.0175L3.66055 18.2963C3.34627 17.8754 2.98709 17.233 2.71771 16.7014C2.91975 16.3692 3.16668 16.1477 3.30137 16.0148C3.43607 16.3249 3.59321 16.635 3.75034 16.9229V16.9451L4.17686 16.7236V16.7014C3.36872 15.2617 2.9422 13.6004 2.9422 11.9391V11.9169H2.44833V11.9391C2.44833 12.4485 2.49323 12.958 2.56057 13.4675C2.42588 13.5561 2.1565 13.7554 1.86467 14.0655C1.72998 13.3567 1.66264 12.6479 1.66264 11.9391C1.68508 5.78126 6.75844 0.775265 12.9991 0.775265ZM5.56867 21.796C5.2095 21.7517 3.7279 21.5524 2.87486 19.736C2.53813 19.0272 2.60547 18.1412 2.62792 18.0526C2.78506 18.2963 2.91975 18.5399 3.07689 18.7614C3.09934 18.7836 3.09934 18.7836 4.64828 20.6885C4.64828 20.6885 5.27684 21.4638 5.56867 21.796ZM2.69527 13.9769C2.80751 14.5085 2.96465 15.0401 3.14424 15.5496C2.87485 15.7711 1.12387 17.2995 2.1565 20.0018C2.56057 21.0429 3.23403 21.7739 4.22176 22.1726C6.73599 23.1915 10.1706 21.7074 10.5522 21.5302C11.7196 20.9986 12.6624 20.312 12.9318 20.1126C13.0665 20.2012 13.2012 20.3341 13.2909 20.467C13.044 20.6221 11.8767 21.353 10.4175 22.0397C1.59529 26.1154 -1.77198 17.5653 2.69527 13.9769ZM7.83597 23.3466C8.35228 23.258 8.8686 23.1251 9.36246 22.9479C9.6094 23.1915 9.90123 23.3687 10.1931 23.413L10.2604 23.4352C10.5298 23.4795 11.2706 23.6345 12.2808 23.6567C12.0338 24.0775 11.3828 25.0965 10.5747 25.7167C10.5747 25.7167 10.1482 26.0046 10.0808 26.0711C10.0584 26.0268 7.88086 23.3909 7.83597 23.3466ZM9.85633 28.5962C8.68901 29.748 8.46452 30.6562 8.46452 30.6784C8.44208 30.767 8.44207 30.8334 8.44207 30.8999C8.44207 31.0771 8.48697 31.2543 8.59922 31.4093C8.73391 31.6087 8.93594 31.7637 9.18288 31.808C9.40736 31.8523 9.63185 31.808 9.81143 31.6973C10.1706 31.4536 10.1482 31.0106 9.94613 30.6784L9.90123 30.7005C9.90123 30.7227 10.0135 31.1214 9.5645 31.3207C9.34001 31.4093 9.11553 31.365 9.00329 31.1878C8.93594 31.0771 8.9135 30.9442 8.93594 30.8113C8.98084 30.6341 9.09308 30.5012 9.18288 30.4569C9.36246 30.3461 9.5645 30.324 9.74409 30.3683C9.94612 30.4126 10.1033 30.5233 10.2155 30.7005C10.3502 30.922 10.3951 31.1878 10.3502 31.4536C10.2829 31.7194 10.1257 31.9188 9.90123 32.0738C9.6094 32.251 9.25022 32.3175 8.91349 32.2289C8.57677 32.1403 8.28494 31.9409 8.10535 31.653C7.79107 31.1657 7.27475 29.8588 9.00329 28.419L9.02574 28.3969L8.71146 28.0425H8.68901C7.2972 28.7513 6.37682 28.5519 5.2095 27.3115C7.09517 28.0425 9.54205 27.2229 10.9788 26.0489C11.7645 25.3844 12.4155 24.587 12.8644 23.6567C13.3807 23.6567 13.9195 23.6124 14.4583 23.5459C13.8297 24.8971 12.8869 26.0932 11.6298 27.09C10.889 27.6437 10.3053 28.1532 9.85633 28.5962ZM17.7582 44.8768C17.7582 45.4084 17.848 45.9179 18.0276 46.4273C16.9949 45.2091 16.5909 44.0572 16.5909 42.9497C16.5909 41.4435 17.3317 40.0701 18.1174 38.9183L17.7357 38.6082C15.5133 40.5575 12.1236 41.0226 10.889 40.0258C10.44 39.6493 10.1706 39.162 10.1257 38.6304C10.0808 38.0988 10.238 37.5671 10.6196 37.1241C10.9114 36.7919 11.3155 36.5704 11.7645 36.5261C12.2134 36.4818 12.6399 36.6147 12.9991 36.9026C13.2685 37.1241 13.4256 37.4342 13.4705 37.7665C13.493 38.0988 13.4032 38.431 13.1787 38.6968C13.0665 38.8297 12.7971 39.0069 12.4828 39.0291C12.2359 39.0512 11.9889 38.9848 11.8093 38.8297C11.6522 38.6968 11.5624 38.5418 11.54 38.3424C11.5175 38.1652 11.5849 37.9659 11.7196 37.8108C12.0563 37.3678 12.7746 37.4121 12.7746 37.4121H12.842L12.7971 37.3678C12.3481 37.0134 11.6971 37.0798 11.3379 37.5007C11.1359 37.7443 11.0237 38.0766 11.0685 38.3867C11.091 38.6968 11.2481 39.0069 11.5175 39.2063C11.8093 39.4499 12.191 39.5607 12.5502 39.5164C15.648 39.1841 17.9378 36.2381 17.9378 36.216C17.9602 36.2603 20.1826 38.9183 20.2275 38.9848C19.1724 40.336 17.7582 42.6396 17.7582 44.8768ZM21.7316 37.0798C21.7091 37.0577 21.35 36.6147 21.35 36.6147L21.0357 36.9912L22.0459 38.2095L22.3601 37.8551V37.8329C22.3601 37.8329 22.0459 37.4564 22.0459 37.4342C22.0683 37.4121 23.0111 36.2603 23.056 36.2381C23.0785 36.2603 25.705 39.2727 28.4661 39.5164C28.8477 39.5607 29.2069 39.4499 29.4988 39.2063C29.7457 39.0069 29.9028 38.719 29.9477 38.3867C29.9702 38.0545 29.8804 37.7443 29.6783 37.5007C29.3192 37.0798 28.6682 37.0134 28.2192 37.3678L28.1743 37.4121H28.2416C28.2416 37.4121 28.96 37.3899 29.2967 37.8108C29.4314 37.9659 29.4763 38.1652 29.4763 38.3424C29.4539 38.5418 29.3641 38.719 29.2069 38.8297C29.0049 38.9848 28.7804 39.0512 28.5335 39.0291C28.2192 39.0069 27.9498 38.8297 27.8376 38.6968C27.6131 38.431 27.5233 38.0988 27.5457 37.7665C27.5682 37.4342 27.7478 37.1241 28.0172 36.9026C28.3539 36.6147 28.8028 36.4818 29.2518 36.5261C29.7008 36.5704 30.1049 36.7697 30.3967 37.1241C30.7559 37.5671 30.9355 38.0988 30.8906 38.6304C30.8457 39.162 30.5538 39.6714 30.1273 40.0258C28.8926 41.0226 25.5029 40.5575 23.2581 38.5861L22.8989 39.0069C23.6846 40.1366 24.3805 41.4878 24.3805 42.9719C24.3805 44.0572 23.9764 45.2312 22.9438 46.4495C23.1234 45.94 23.1907 45.4306 23.1907 44.9211C23.1907 42.7725 21.8887 40.5796 20.9908 39.317C20.5867 38.7411 20.2724 38.3646 20.2275 38.2981C20.2275 38.2981 11.8094 28.1089 11.54 27.7988C11.5624 27.7767 11.944 27.4665 11.944 27.4665C12.191 27.2672 12.4379 27.0457 12.6624 26.8242C12.6848 26.8463 17.6235 32.8269 17.6235 32.8269L17.9378 32.4504C17.9378 32.4504 13.0216 26.4919 12.9991 26.4698C13.3583 26.0932 13.695 25.6945 13.9869 25.2958C14.0093 25.3401 20.1602 32.7383 20.1826 32.7605C20.1602 32.7827 19.2173 33.9345 19.1949 33.9566C19.1724 33.9345 18.8357 33.5358 18.8357 33.5358L18.5214 33.9123L19.4867 35.0863L19.801 34.7097C19.801 34.7097 19.5316 34.3775 19.5092 34.3553C19.5316 34.3332 27.0294 25.2958 27.0743 25.2515C27.3437 25.6281 27.658 26.0046 27.9723 26.359C27.9498 26.3812 21.9336 33.6908 21.9336 33.6908L22.3152 34.0009C22.3152 34.0009 28.309 26.7577 28.3314 26.7134C28.6008 26.9792 28.8926 27.245 29.1845 27.4665C29.1845 27.4665 29.5212 27.7324 29.5436 27.7767C29.4763 27.7767 21.7765 37.0355 21.7316 37.0798ZM35.8741 27.2893C34.7068 28.5298 33.7864 28.7291 32.3946 28.0203H32.3722L32.0579 28.3747L32.0803 28.3969C33.8313 29.8588 33.2925 31.1435 32.9783 31.6308C32.7987 31.9188 32.5068 32.1403 32.1701 32.2067C31.8334 32.2953 31.4742 32.2289 31.1824 32.0517C30.9579 31.9188 30.8008 31.6973 30.7334 31.4315C30.6661 31.1657 30.711 30.8999 30.8681 30.6784C30.9803 30.5012 31.1375 30.3904 31.3395 30.3461C31.5416 30.3018 31.7436 30.324 31.9007 30.4347C31.9905 30.479 32.1028 30.6341 32.1477 30.7891C32.1701 30.922 32.1477 31.0549 32.0803 31.1657C31.9681 31.3429 31.7212 31.3872 31.5191 31.2986C31.0701 31.0992 31.1824 30.7005 31.1824 30.6784L31.1375 30.6562C30.9355 30.9885 30.913 31.4315 31.2722 31.6751C31.4518 31.808 31.6763 31.8523 31.9232 31.7859C32.1701 31.7416 32.3722 31.5865 32.5068 31.3872C32.5966 31.2321 32.664 31.0549 32.664 30.8777C32.664 30.8113 32.664 30.7227 32.6415 30.6341C32.6415 30.6341 32.4171 29.7037 31.2497 28.5519C30.7783 28.1089 30.1947 27.5994 29.4988 27.0235C28.2416 26.0268 27.2988 24.8306 26.6702 23.4795C27.1866 23.5459 27.7253 23.5902 28.2641 23.5902C28.7131 24.4984 29.3416 25.3179 30.1498 25.9603C31.5416 27.2229 33.966 28.0203 35.8741 27.2893ZM30.9355 26.0489C30.913 26.0268 30.4865 25.7167 30.4865 25.7167C29.6783 25.0965 29.0273 24.0775 28.7804 23.6567C29.7232 23.6124 30.4191 23.4795 30.6885 23.4352L30.7559 23.413C31.0477 23.3687 31.362 23.1915 31.6314 22.9257C32.1252 23.1029 32.664 23.2358 33.2028 23.3466C33.1354 23.3909 30.9579 26.0046 30.9355 26.0489ZM26.0641 19.0494C26.0641 19.0494 26.6253 18.4956 27.6804 17.9197C28.7131 17.3659 29.813 17.6096 29.8355 17.6096C30.1273 17.6318 30.3967 17.5653 30.6436 17.4102C30.913 17.233 31.0926 16.9672 31.1599 16.6571C31.2946 16.0148 30.8681 15.3946 30.2171 15.2838H30.1722L29.9702 15.2617C29.5885 15.2617 28.5784 15.3503 27.3886 16.3027C26.2662 17.233 26.0417 18.0969 26.0192 18.6064C26.0192 18.8722 26.0641 19.0272 26.0641 19.0494ZM29.2743 16.3249C29.3416 16.0148 29.6334 15.7711 29.9477 15.749H29.9926H30.1049C30.4865 15.8154 30.7334 16.192 30.6661 16.5685C30.6212 16.7457 30.5314 16.9008 30.3742 17.0115C30.2171 17.1223 30.0375 17.1444 29.8355 17.1223C29.6559 17.078 29.4988 16.9894 29.3865 16.8343C29.2967 16.7014 29.2518 16.5685 29.2743 16.4135V16.3249ZM27.6804 16.6793C28.0396 16.3692 28.4212 16.1477 28.8926 15.9705C28.8477 16.0591 28.8253 16.1255 28.8028 16.2363C28.7804 16.3027 28.7804 16.3692 28.7804 16.4135C28.7804 16.6571 28.8477 16.9008 28.9824 17.1001C28.4212 17.1223 27.9274 17.2552 27.4559 17.4988C27.1641 17.6539 26.8947 17.8311 26.6478 18.0083C26.9396 17.4545 27.2988 17.0115 27.6804 16.6793Z" fill="#43362E"/>
</svg>
