<?xml version="1.0" encoding="utf-8"?>
<!-- Generator: Adobe Illustrator 27.5.0, SVG Export Plug-In . SVG Version: 6.00 Build 0)  -->
<svg version="1.1" id="Layer_1" xmlns="http://www.w3.org/2000/svg" xmlns:xlink="http://www.w3.org/1999/xlink" x="0px" y="0px"
	 viewBox="0 0 612 792" style="enable-background:new 0 0 612 792;" xml:space="preserve">
<g>
	<g>
		<g>
			<path d="M256.1,307.1L256.1,307.1L256.1,307.1c0.1,0,5-1.1,9.6,1.4c4.7,2.5,7.2,5,7.2,5.1l0.1,0.1l0-0.1c0,0,0.2-0.7,0.2-2
				c-0.1-2.3-1.1-6.2-6.1-10.4c-5.2-4.3-9.8-4.7-11.5-4.7l-0.9,0.1l-0.2,0c-2.9,0.6-4.8,3.4-4.2,6.2c0.3,1.4,1.1,2.6,2.2,3.4
				C253.6,307,254.8,307.3,256.1,307.1 M260.7,300.8c-0.1-0.4-0.2-0.8-0.4-1.2c2,0.8,3.7,1.8,5.4,3.2c1.7,1.5,3.3,3.5,4.7,6
				c-1.2-0.8-2.3-1.6-3.6-2.3c-2-1.1-4.3-1.7-6.8-1.8c0.6-0.9,0.9-2,0.9-3.1C260.8,301.4,260.8,301.1,260.7,300.8 M252.4,302.4
				c-0.3-1.7,0.8-3.4,2.5-3.7l0.5-0.1l0.2,0c1.5,0,2.7,1.1,3,2.5l0.1,0.5c0,0.7-0.2,1.3-0.5,1.9c-0.5,0.7-1.2,1.2-2,1.3
				c-0.8,0.2-1.7,0-2.4-0.5C253,304,252.6,303.3,252.4,302.4 M388.9,308.3c-0.3-5.8-1.9-11.3-5.5-15.9c0.7-3.6,1.2-7.3,1.2-11
				c0-29.7-24.1-53.8-53.8-53.8c-12.1,0-23.8,4.1-33.3,11.6c-9.5-7.5-21.2-11.6-33.3-11.6c-29.7,0-53.8,24.2-53.8,53.8
				c0,3.8,0.4,7.6,1.2,11.4c-13.4,19.1-0.3,46.6,26.7,41.9c1,1.3,3.4,4.3,9,11.2c-6.8,3.3-17.8,4.6-23.6-1.8c0,0,3.4,15.4,15.3,15.1
				c-1.1,2.1-1.7,4.2-1.7,6.3c0,2.3,0.7,4.5,2,6.7c1.3,2.1,3.4,3.6,5.8,4.1c2.4,0.6,4.9,0.2,7-1.2c1.8-1.1,3.1-2.9,3.5-4.9
				c0.1-0.6,0.2-1.2,0.2-1.8c0-1.5-0.4-2.9-1.2-4.2c-0.9-1.5-2.4-2.5-4-3c0.6-0.7,1.2-1.4,1.9-2.1c0.9-0.9,2-1.9,3.2-2.9
				c1.5,1.9,25.9,31.7,27.2,33.3c-1,1.1-6.5,6.9-13.4,10.5c0.1-0.4,0.2-0.8,0.2-1.3l0-0.9c-0.2-2.5-1.4-4.7-3.3-6.2
				c-2.2-1.9-5.1-2.7-8-2.5c-2.9,0.3-5.5,1.7-7.4,3.9c-4.6,5.6-3.9,13.3,1.7,17.9c4.8,4,15.8,4.5,26.5-0.9c-1.5,3.7-2.3,7.4-2.3,11
				c0,13.2,13.2,23.3,13.2,23.3s-0.7-5.6-0.7-13.1c0-7.7,2.7-15.6,8.1-23.4c5.3,7.8,8.1,15.7,8.1,23.4c0,7.5-0.7,13.1-0.7,13.1
				s13.2-10.1,13.2-23.3c0-3.6-0.8-7.4-2.4-11.1c10.8,5.5,21.9,5,26.7,1c5.6-4.7,6.4-12.4,1.7-17.9c-1.9-2.3-4.5-3.6-7.4-3.9
				c-2.9-0.3-5.7,0.6-8,2.5c-1.9,1.6-3.1,3.8-3.3,6.2l0,0.9c0,0.4,0.1,0.8,0.2,1.3c-6.2-3.2-11.3-8.1-13.4-10.5
				c1.3-1.5,25.9-31.6,27.4-33.4c1.2,1.1,2.4,2.1,3.3,3.1c0.7,0.7,1.3,1.4,1.9,2.1c-1.7,0.4-3.1,1.5-4,3c-0.8,1.3-1.2,2.7-1.2,4.2
				c0,0.6,0.1,1.2,0.2,1.8c0.5,2.1,1.7,3.8,3.5,4.9c2.1,1.3,4.6,1.7,7,1.2c2.4-0.6,4.5-2,5.8-4.1c1.3-2.1,2-4.3,2-6.7
				c0-2.1-0.6-4.2-1.7-6.3c11.9,0.3,15.3-15.1,15.3-15.1c-5.8,6.5-16.9,5.1-23.7,1.8c1.6-1.9,8.4-10.2,9.1-11.1
				C376.3,338.1,389.7,322.9,388.9,308.3 M342.7,327.1c-5.3-2.6-9.8-5.2-12.1-6.6c0,0-0.8-0.4-0.9-0.5c0.4-0.7,1-1.3,1.7-1.7
				c0.7,0.6,5.1,4,10.7,6.6c1.7,0.8,17.1,7.5,28.2,2.9c4.4-1.8,7.4-5.1,9.2-9.8c1-2.7,1.4-5.2,1.4-7.4c0-8.5-6.1-12.9-6.2-12.9
				c0.9-2.3,1.5-4.7,2-7.1c1,0.7,2.5,1.9,3.8,3.8C397,317.9,374.3,342.7,342.7,327.1 M259.8,315.2c-2.5,0-5.8,1.3-9.3,2.8
				c-2.4,1-5,2-7.3,2.6c1.7-1.3,4.1-2.9,6.3-3.9c4-1.7,12.3-3.2,13.2-3.4c3.3-0.7,6.5,1.5,7.2,4.7c0.1,0.6,0.5,3.6,3.2,5.7
				c4,3.2,11.4,2.2,17.1,0.6c-16.2,9.9-31.7,8-37.7,6.8l-0.3-0.1c-0.6-0.1-1.2-0.4-1.7-0.8c0.3-0.1,3.2-1.4,3.2-1.4
				c2.9-1.4,5.9-3,8.9-4.7c2.2,0.1,4.1,0,5.1-1c0.4-0.4,0.6-1,0.6-1.6C268.1,318.6,265.2,315.2,259.8,315.2 M246.2,306.2
				L246.2,306.2c-0.1,0-2.9,1.6-5.7,2.8c-2.8,1.2-7.4,4.1-7.5,4.1c0,0.1-0.1,2.7-0.1,3.2c-0.9-0.2-2-0.6-2.5-1.2
				c-0.6-0.8-0.2-1.9-0.2-1.9c1.1-0.7,5-3.2,9.2-5l6.4-2.9l1.8-0.8l0.1,0l0-0.1c-0.9-2.1-1-4.5-0.1-6.7c0.9-2.2,2.5-3.9,4.7-4.8
				c2.3-1,4.9-0.9,7.4,0.2c2,0.9,10.9,6.2,13.9,9.9c0,2.6,0.5,4.7,0.5,4.9c0.1,1.7,0.9,3.2,2.2,4.3c1.3,1.1,3,1.7,4.7,1.6
				c2.5-0.2,4.7-1.8,5.6-4.2c2.5,3.9,5.6,7.5,9,10.7c-4.9,1.8-16.5,5.5-21.2,1.7c-2.1-1.7-2.4-4.3-2.4-4.3l0-0.1
				c-0.9-4.5-5.3-7.4-9.7-6.5c-0.1,0-9.2,1.6-13.7,3.5c-3.9,1.7-8.2,5.2-9.4,6.2c-2.1-0.3-3.4-1.6-4.2-2.6l0.1-4.1
				c0.9-0.5,3.5-2,6.2-3.2l4.9-2.3l7.6,2.1l0.1-0.2L246.2,306.2z M291,289.6L291,289.6l2.1-0.4l0-0.1c-0.5-2.5-0.8-5.1-0.8-7.7
				c0-4.3,0.7-8.5,2.1-12.5c0.9,2.1,1.5,4.3,2,6.6c-0.3,2-0.5,4-0.5,6c0,10.2,4.4,19.8,12.2,26.5c0.1,3.2,2.7,5.9,6,6.2
				c1.7,0.1,3.4-0.4,4.7-1.6c1.3-1.1,2.1-2.7,2.2-4.3c0-0.2,0.5-2.4,0.5-5.2c3-3.6,11.8-8.9,13.8-9.8c2.5-1.1,5.2-1.2,7.4-0.2
				c2.1,0.9,3.8,2.6,4.7,4.8c0.4,1,0.6,2.1,0.6,3.2c0,1.2-0.2,2.4-0.7,3.5l0,0.1l0.8,0.3c0,0,2.2,1.2,7.3,3.4
				c4.2,1.8,9.2,5.1,9.2,5.1c0,0.1,0.2,1.2-0.2,1.9c-0.5,0.7-1.7,1-2.3,1.1c0-0.2-0.1-3.1-0.1-3.1c-0.1-0.1-4.7-2.9-7.5-4.2
				c-2.8-1.2-5.6-2.8-5.6-2.8l-7.7,4.5l0.1,0.2l7.6-2.1l4.8,2.3c2.4,1.1,5.2,2.6,6.2,3.3l0,0.1l0.1,3.7c-0.7,1-2,2.3-4.2,2.7
				c-1.2-1-5.4-4.5-9.3-6.2c-4.3-1.9-12.8-3.4-13.7-3.5c-4.5-0.9-8.8,2-9.7,6.5l0,0.1c0,0-0.2,2.8-2.4,4.3
				c-6.1,4.2-20.9-1.1-22.6-2.5c-3.6-2.9-8.5-8.8-11.4-14.1c-0.5-1.4-1.1-3.5-1.5-5.4l-0.2-1.3c-0.4-2.8,0.5-9.6,0.7-10.9l0.3-2
				l-1.8,0.8c0,0-1.4,0.6-3.1,1.7c-0.3-2.4-0.5-4.7-0.5-7c0-8.4,2.1-16.7,6.1-24c2.7,2.5,5,5.5,6.7,8.8c-2,4.8-3,10-3,15.2
				C290.1,284.2,290.4,287,291,289.6 M310.2,307.1c0.3-0.9,1.4-3.9,2-6.7l0.3-1.4l0.1-2.2c0,0-0.2-3.3-0.2-3.7
				c0.7,0.7,1.3,1.5,1.7,2.2c0.7,1.4,1.1,3.1,1.1,5.1l0,0.1l2.2-0.1l0-0.1c-0.1-2.3-0.6-4.3-1.4-6c-0.8-1.6-2.1-3-4-4.3
				c0,0-0.1-0.5-0.1-0.6c2,1.2,4.6,3.1,5.9,5.6c1,1.9,1.5,4.4,1.5,7.3c0,2.7-0.4,4.8-0.5,5.1l0,0.2c-0.1,1.2-0.6,2.2-1.5,3
				c-0.9,0.8-2,1.1-3.1,1c-2.3-0.2-4-2.1-4-4.3V307.1 M356.9,299.3c-0.5,0.5-1.5,1.7-3.7,4.3c-0.8-0.4-2-0.9-2-0.9
				c0.1-0.6,0.2-1.1,0.2-1.6c0-1.5-0.3-3-0.9-4.5c-0.2-0.6-0.5-1.2-0.9-1.7c3.5-1.2,7.1-1.1,9.9-0.6c-0.8,1.8-1.7,3.6-2.8,5.2
				L356.9,299.3 M346.1,292.5c-0.8-0.6-1.6-1.1-2.5-1.5c-2.8-1.2-6.1-1.1-9.2,0.2c-0.5,0.2-1.5,0.8-2.6,1.4
				c8.6-8.4,20.9-11.6,32.5-8.3c1.5,0.4,3,1,4.4,1.7c-0.3,2.3-0.8,4.5-1.4,6.7C364.5,291.6,355,288.1,346.1,292.5 M365.6,282.5
				c0-0.1,0-1,0-1c0-19.2-15.7-34.9-34.9-34.9c-7.8,0-15.5,2.7-21.7,7.6c-0.1-0.1-1.9-2.8-1.9-2.9c6.8-5.3,14.9-8.1,23.5-8.1
				c21.2,0,38.4,17.2,38.4,38.4c0,0-0.1,2.1-0.1,2.3C367.9,283.3,366.8,282.8,365.6,282.5 M330.7,250c17,0,30.8,13.5,31.4,30.3
				c-14.4-2.8-29.2,3.2-37.3,15.3c-1,0.7-1.9,1.4-2.7,2c-0.3-1.4-0.7-2.7-1.2-3.8c-0.8-1.5-2-3-3.6-4.4c0.4-2.6,0.7-5.3,0.7-8
				c0-8.7-2.2-17.4-6.2-25.1C317.2,252.3,323.9,250,330.7,250 M279.8,300.7L279.8,300.7c0.1-2.1,0.5-3.8,1.1-5.2
				c0.4-0.8,1-1.5,1.7-2.2c0,0.4-0.2,3.7-0.2,3.7l0.1,2.2l0.3,1.4c0.6,2.8,1.7,5.8,2,6.7l0,0.2c0,2.3-1.8,4.2-4,4.3
				c-1.2,0.1-2.3-0.3-3.1-1c-0.9-0.8-1.4-1.8-1.5-3l0-0.2c0-0.2-0.5-2.4-0.5-5.1c0-2.9,0.5-5.4,1.5-7.3c1.3-2.5,3.9-4.4,5.9-5.6
				c0,0.1-0.1,0.6-0.1,0.6c-1.8,1.3-3.2,2.7-4,4.3c-0.8,1.6-1.3,3.6-1.4,6l0,0.1L279.8,300.7z M276.9,281.5c0,2.6,0.2,5.3,0.6,8
				c-1.5,1.3-2.7,2.7-3.5,4.2c-0.6,1.2-1,2.5-1.3,4c-0.9-0.7-1.8-1.5-2.9-2.2c-8.3-12.1-22.7-17.9-37.1-15.1
				c0.6-16.8,14.4-30.3,31.4-30.3c6.8,0,13.5,2.3,18.9,6.4C279.1,264.1,276.9,272.7,276.9,281.5 M262.9,292.5c-1-0.6-1.9-1-2.4-1.3
				c-3.1-1.4-6.4-1.5-9.2-0.2c-0.9,0.4-1.7,0.9-2.5,1.5c-9.6-4.8-20-0.2-21.5,0.5c-0.7-2.2-1.2-4.6-1.5-6.9c1.5-0.7,3-1.3,4.5-1.8
				C242,281.1,254.4,284.2,262.9,292.5 M245.3,294.7c-0.4,0.6-0.7,1.2-0.9,1.8c-0.6,1.4-0.9,2.9-0.9,4.5c0,0.5,0.1,1,0.2,1.5
				c-0.3,0.1-1.3,0.6-2,0.9c-0.9-1.1-3.3-4.1-3.4-4.2c-1.1-1.6-2-3.3-2.8-5.1C238.3,293.7,241.8,293.6,245.3,294.7 M274,334.5
				c8.5-1.7,16.4-5.3,23.4-10.9c0.6,0.5,1.2,1,1.9,1.4c6.6,4.8,14.1,8,22.1,9.6c0.7,1.6,1.5,3.2,2.5,4.8c-1,1.2-24.6,30.1-26.4,32.3
				c-1.6-2-25.1-30.7-26.2-32C272.4,338,273.3,336.3,274,334.5 M304.8,324.5c5.7,1.5,13.1,2.6,17.1-0.6c2.6-2.1,3.1-5.2,3.2-5.8
				c0.7-3.3,3.9-5.4,7.2-4.7c0.4,0.1,9.1,1.6,13.3,3.4c2.2,0.9,4.6,2.6,6.4,3.9c-2.4-0.6-5.2-1.7-7.6-2.7c-3.5-1.4-6.8-2.8-9.3-2.8
				c-5.4,0-8.4,3.4-8.4,6.6c0,0.6,0.2,1.2,0.6,1.6c1,1,3,1,5.7,1c3.1,1.8,6,3.3,8.9,4.7c0,0,2.7,1.1,2.9,1.3
				c-0.6,0.5-1.3,0.8-1.9,0.9l-0.3,0.1C336.5,332.5,321.1,334.3,304.8,324.5 M364.5,325.6c0.1-0.2,0.4-0.5,0.4-0.5
				c10.1-11.7,11.7-14.9,12.4-16c0,0.4,0.1,0.9,0.1,1.4c0,2-0.4,4.1-1.2,6.3c-1.4,3.8-3.9,6.4-7.3,7.8
				C367.7,325.1,366.2,325.4,364.5,325.6 M330.7,231.1c27.8,0,50.4,22.6,50.4,50.4c0,3-0.3,6.2-0.9,9.2c-1.4-1.4-2.6-2.3-3.2-2.7
				c0.4-2.1,0.5-4.4,0.5-6.5v-0.1h-2.2v0.1c0,7.5-1.9,14.9-5.5,21.5l0,0.1l1.9,1l0-0.1c0.8-1.4,1.4-2.8,2.1-4.3
				c0.5,0.5,1.8,1.6,2.9,3.4c-3.8,8.3-17.8,24-17.8,24c-6-0.5-12.2-2.5-16-4.2c0,0-0.5-0.2-0.7-0.3c0.1-0.2,1.8-2.2,1.8-2.3
				c3.6,1.5,6.8,2.7,9.7,2.9c5.7,0.4,8.1-3.8,8.5-4.7c1-0.1,2.9-0.6,3.8-2c0.5-0.7,0.7-1.5,0.7-2.3c0-1-0.5-2.2-0.5-2.2
				c0,0-5.2-3.5-10.1-5.6c0,0-0.3-0.1-0.4-0.2c0.1-0.2,2.6-3.2,2.6-3.2l0.3-0.3c2-2.7,3.7-5.7,4.9-8.8c1.4,0.4,2.5,0.9,3.1,1.1
				c-0.7,1.9-1.5,3.7-2.5,5.4l0,0.1l1.9,1.1l0-0.1c3.4-6,5.2-12.9,5.2-19.8c0-22.4-18.2-40.5-40.5-40.5c-9.1,0-17.7,2.9-24.8,8.5
				c-2-2.6-4.3-5-6.7-7.2C308.1,235,319.3,231.1,330.7,231.1 M264.2,231.1c27.8,0,50.4,22.6,50.4,50.4c0,2.3-0.2,4.7-0.5,7.1
				c-1.7-1.1-3-1.7-3-1.7l-1.8-0.8l0.3,1.9c0.1,0.8,1.1,8.1,0.7,11l0,0c0,0.1-0.1,0.4-0.3,1.3c-0.4,1.8-1,3.8-1.5,5.2
				c-5.2-4.8-8.7-11.1-10-18l0.3-2.1c0.1-1.3,0.2-2.6,0.2-3.9c0-19.2-15.7-34.9-34.9-34.9c-19.2,0-34.9,15.7-34.9,34.9
				c0,0,0,0.8,0,1c-1.2,0.4-2.4,0.8-3.6,1.4c0-0.2-0.1-2.3-0.1-2.3c0-21.2,17.2-38.4,38.4-38.4c21.2,0,38.4,17.2,38.4,38.4
				c0,2.6-0.3,5.2-0.8,7.7l0,0.1l2.1,0.4l0-0.1c0.5-2.7,0.8-5.4,0.8-8.2c0-22.4-18.2-40.5-40.5-40.5c-22.3,0-40.5,18.2-40.5,40.5
				c0,6.9,1.8,13.8,5.2,19.8l0,0.1l1.9-1.1l0-0.1c-0.9-1.6-1.7-3.3-2.4-5.2c0.2-0.1,1.4-0.7,3.4-1.3c1.2,3.2,2.8,6.1,4.8,8.8
				l0.3,0.3c0,0,2.2,2.7,2.5,3.1c-0.2,0.1-0.7,0.3-0.7,0.3c-4.9,2.1-10.1,5.6-10.1,5.6c0,0-0.5,1.2-0.5,2.2c0,0.9,0.2,1.7,0.7,2.3
				c1,1.4,2.9,1.9,3.9,2.1c0.4,0.8,2.8,5.1,8.4,4.7c3.1-0.2,6.7-1.7,9.9-3c0.1,0.1,1.9,2.3,2,2.5l-0.5,0.2
				c-3.8,1.8-10.1,3.8-16.1,4.2l-13.5-16.8c-1.4-1.9-3-4.8-4.2-7.2c0.9-1.5,2-2.5,2.6-3.1c0.6,1.4,1.3,2.8,2,4.1l0,0.1l1.9-1l0-0.1
				c-3.6-6.5-5.5-14-5.5-21.5v-0.1h-2.2v0.1c0,2.3,0.2,4.6,0.5,6.9c-0.6,0.4-1.8,1.3-3.1,2.7c-0.6-3.2-0.9-6.4-0.9-9.6
				C213.8,253.7,236.4,231.1,264.2,231.1 M231.1,326c-1.6-0.2-8.2-1.1-12-9.3c-1.5-3.2-1.2-7.2-1.1-7.6c0.7,1.1,1.3,2.2,2,3.2
				c0.1,0.1,0.1,0.1,7,8.7C227,321,229.8,324.5,231.1,326 M218.3,290.7c0.5,2.4,1.2,4.8,2,7.1c-1.2,1-9,7.9-4.4,20.1
				c1.8,4.7,4.8,8,9.2,9.8c11.2,4.6,26.5-2.1,28.2-2.9c5.2-2.4,9.4-5.5,10.6-6.4c0.6,0.4,1.2,1,1.6,1.6c-1.1,0.7-6.3,4-12.8,7.1
				C213.4,345.5,198.4,306.9,218.3,290.7 M241.2,333c2.3-0.4,4.6-1,6.8-1.8c1.1,1.1,2.4,1.9,3.7,2.1l0.3,0.1c1.2,0.2,4.5,0.9,9,1
				c-1.1,1.9-4,6.5-7.6,9.3c0,0-1.9,1.3-2.2,1.6C251.1,345.1,241.4,333.2,241.2,333 M250.2,356.7c-5.2,5.2-6.2,9.3-6.2,9.4
				c-0.1,0.4-0.1,0.7-0.1,1c0,0.8,0.2,1.6,0.7,2.3c0.6,0.9,1.5,1.6,2.6,1.8c1,0.2,2,0,2.8-0.5c1.6-1.1,1.5-3.1,0.6-4.6l-0.2,0.1
				c0,0.1,0.5,1.9-1.5,2.8c-1,0.4-2,0.2-2.5-0.6c-0.3-0.5-0.4-1.1-0.3-1.7c0.2-0.8,0.7-1.4,1.1-1.6c0.8-0.5,1.7-0.6,2.5-0.4
				c0.9,0.2,1.6,0.7,2.1,1.5c0.6,1,0.8,2.2,0.6,3.4c-0.3,1.2-1,2.1-2,2.8c-1.3,0.8-2.9,1.1-4.4,0.7c-1.5-0.4-2.8-1.3-3.6-2.6
				c-1.4-2.2-3.7-8.1,4-14.6l0.1-0.1l-1.4-1.6l-0.1,0c-6.2,3.2-10.3,2.3-15.5-3.3c8.4,3.3,19.3-0.4,25.7-5.7c3.5-3,6.4-6.6,8.4-10.8
				c2.3,0,4.7-0.2,7.1-0.5c-2.8,6.1-7,11.5-12.6,16C254.8,352.4,252.2,354.7,250.2,356.7 M285.4,430.2c0,2.4,0.4,4.7,1.2,7
				c-4.6-5.5-6.4-10.7-6.4-15.7c0-6.8,3.3-13,6.8-18.2l-1.7-1.4c-9.9,8.8-25,10.9-30.5,6.4c-2-1.7-3.2-3.9-3.4-6.3
				c-0.2-2.4,0.5-4.8,2.2-6.8c1.3-1.5,3.1-2.5,5.1-2.7c2-0.2,3.9,0.4,5.5,1.7c1.2,1,1.9,2.4,2.1,3.9c0.1,1.5-0.3,3-1.3,4.2
				c-0.5,0.6-1.7,1.4-3.1,1.5c-1.1,0.1-2.2-0.2-3-0.9c-0.7-0.6-1.1-1.3-1.2-2.2c-0.1-0.8,0.2-1.7,0.8-2.4c1.5-2,4.7-1.8,4.7-1.8
				l0.3,0l-0.2-0.2c-2-1.6-4.9-1.3-6.5,0.6c-0.9,1.1-1.4,2.6-1.2,4c0.1,1.4,0.8,2.8,2,3.7c1.3,1.1,3,1.6,4.6,1.4
				c13.8-1.5,24-14.8,24-14.9c0.1,0.2,10,12.2,10.2,12.5C291.7,409.7,285.4,420.1,285.4,430.2 M303.1,395c-0.1-0.1-1.7-2.1-1.7-2.1
				l-1.4,1.7l4.5,5.5l1.4-1.6l0-0.1c0,0-1.4-1.7-1.4-1.8c0.1-0.1,4.3-5.3,4.5-5.4c0.1,0.1,11.8,13.7,24.1,14.8
				c1.7,0.2,3.3-0.3,4.6-1.4c1.1-0.9,1.8-2.2,2-3.7c0.1-1.5-0.3-2.9-1.2-4c-1.6-1.9-4.5-2.2-6.5-0.6l-0.2,0.2l0.3,0
				c0,0,3.2-0.1,4.7,1.8c0.6,0.7,0.8,1.6,0.8,2.4c-0.1,0.9-0.5,1.7-1.2,2.2c-0.9,0.7-1.9,1-3,0.9c-1.4-0.1-2.6-0.9-3.1-1.5
				c-1-1.2-1.4-2.7-1.3-4.2c0.1-1.5,0.9-2.9,2.1-3.9c1.5-1.3,3.5-1.9,5.5-1.7c2,0.2,3.8,1.1,5.1,2.7c1.6,2,2.4,4.4,2.2,6.8
				c-0.2,2.4-1.5,4.7-3.4,6.3c-5.5,4.5-20.6,2.4-30.6-6.5l0,0l-1.6,1.9c3.5,5.1,6.6,11.2,6.6,17.9c0,4.9-1.8,10.2-6.4,15.7
				c0.8-2.3,1.1-4.6,1.1-6.9c0-9.7-5.8-19.6-9.8-25.3c-1.8-2.6-3.2-4.3-3.4-4.6c0,0-37.5-46-38.7-47.4c0.1-0.1,1.8-1.5,1.8-1.5
				c1.1-0.9,2.2-1.9,3.2-2.9c0.1,0.1,22.1,27.1,22.1,27.1l1.4-1.7c0,0-21.9-26.9-22-27c1.6-1.7,3.1-3.5,4.4-5.3
				c0.1,0.2,27.5,33.6,27.6,33.7c-0.1,0.1-4.3,5.3-4.4,5.4c-0.1-0.1-1.6-1.9-1.6-1.9l-1.4,1.7l4.3,5.3l1.4-1.7c0,0-1.2-1.5-1.3-1.6
				c0.1-0.1,33.5-40.9,33.7-41.1c1.2,1.7,2.6,3.4,4,5c-0.1,0.1-26.9,33.1-26.9,33.1l1.7,1.4c0,0,26.7-32.7,26.8-32.9
				c1.2,1.2,2.5,2.4,3.8,3.4c0,0,1.5,1.2,1.6,1.4C337.6,353,303.3,394.8,303.1,395 M366.1,350.8c-5.2,5.6-9.3,6.5-15.5,3.3l-0.1,0
				l-1.4,1.6l0.1,0.1c7.8,6.6,5.4,12.4,4,14.6c-0.8,1.3-2.1,2.3-3.6,2.6c-1.5,0.4-3.1,0.1-4.4-0.7c-1-0.6-1.7-1.6-2-2.8
				c-0.3-1.2-0.1-2.4,0.6-3.4c0.5-0.8,1.2-1.3,2.1-1.5c0.9-0.2,1.8-0.1,2.5,0.4c0.4,0.2,0.9,0.9,1.1,1.6c0.1,0.6,0,1.2-0.3,1.7
				c-0.5,0.8-1.6,1-2.5,0.6c-2-0.9-1.5-2.7-1.5-2.8l-0.2-0.1c-0.9,1.5-1,3.5,0.6,4.6c0.8,0.6,1.8,0.8,2.9,0.5c1.1-0.2,2-0.9,2.6-1.8
				c0.4-0.7,0.7-1.5,0.7-2.3c0-0.3,0-0.7-0.1-1.1c0,0-1-4.2-6.2-9.4c-2.1-2-4.7-4.3-7.8-6.9c-5.6-4.5-9.8-9.9-12.6-16
				c2.3,0.3,4.7,0.5,7.1,0.5c2,4.1,4.8,7.8,8.4,10.7C346.8,350.5,357.6,354.1,366.1,350.8 M344.1,345.2c-0.1-0.1-2-1.5-2-1.5
				c-3.6-2.8-6.5-7.4-7.6-9.3c4.2-0.2,7.3-0.8,8.5-1l0.3-0.1c1.3-0.2,2.7-1,3.9-2.2c2.2,0.8,4.6,1.4,7,1.9
				C353.9,333.2,344.2,345,344.1,345.2 M322.3,313.7l0.1-0.1c0,0,2.5-2.5,7.2-5.1c4.6-2.5,9.5-1.4,9.6-1.4l0,0h0
				c1.3,0.1,2.5-0.2,3.6-0.9c1.2-0.8,2-2,2.3-3.4c0.6-2.9-1.3-5.7-4.2-6.2l-0.2,0l-0.9-0.1c-1.7,0-6.2,0.4-11.5,4.7
				c-5,4.2-6,8.1-6.1,10.4c0,1.2,0.2,1.9,0.2,2L322.3,313.7z M336.7,301.3c0.3-1.4,1.6-2.5,3-2.6l0.2,0l0.5,0c1.7,0.3,2.8,2,2.5,3.7
				c-0.2,0.8-0.6,1.5-1.3,2c-0.7,0.5-1.5,0.6-2.4,0.5c-0.8-0.2-1.5-0.6-2-1.3c-0.4-0.6-0.6-1.2-0.5-1.9L336.7,301.3z M329.6,302.9
				c1.6-1.4,3.3-2.4,5.4-3.2c-0.2,0.4-0.3,0.7-0.4,1.2c-0.1,0.3-0.1,0.6-0.1,0.8c0,1.1,0.3,2.2,0.9,3.1c-2.5,0.1-4.7,0.7-6.8,1.8
				c-1.3,0.7-2.5,1.5-3.6,2.3C326.3,306.4,327.9,304.4,329.6,302.9"/>
			<path d="M204.1,459.6l-0.1,0.4c-0.4,1.3-1.1,3-1.8,4.9c-0.3,0.7-0.6,1.4-0.8,2.1l-9.8,23.9l-10-23.9c-1-2.5-2.1-5.1-2.6-7
				l-0.1-0.4h-7.3l0.6,0.9c1.3,2.2,2.7,5.3,4,8.3l14.5,33.4h1.7l14.2-32.9c1.2-2.8,2.8-6.4,4.2-8.9l0.5-0.9H204.1z"/>
			<path d="M245.8,491.4l-14.3-32.6h-2.2l-14.1,32.6c-1.5,3.6-3.1,6.9-4.2,8.9l-0.5,0.9h6.9l0.1-0.4c0.5-1.5,1.3-3.6,2.6-6.7
				l2.7-6.5h14.6l2.8,6.7c1,2.4,2,4.8,2.6,6.6l0.1,0.4h7.6l-0.5-0.9C248.9,498,247.4,494.8,245.8,491.4 M235.4,482.4H225l5.2-12.6
				L235.4,482.4z"/>
			<path d="M271.3,496h-6.5v-25.2c0-3.8,0.1-8.5,0.2-10.6l0-0.6h-6.5l0,0.7c0.1,1.7,0.2,6.3,0.2,10.5v19.3c0,2.7-0.1,7.3-0.2,10.6
				l0,0.6h12.8c4,0,7.7,0.1,9.4,0.2l0.7,0v-5.8l-0.7,0C279,495.9,275.5,496,271.3,496"/>
			<path d="M301.8,459.6h-12.1l0.1,0.7c0.2,1.6,0.3,6.3,0.3,10.5v19.3c0,4.3-0.1,8.8-0.3,10.5l-0.1,0.7h12.1
				c11.5,0,20.9-9.4,20.9-20.9C322.8,468.9,313.4,459.6,301.8,459.6 M296.1,464.8h5.4c8.4,0,15.2,7,15.2,15.6
				c0,8.7-6.8,15.7-15.1,15.7h-5.4V464.8z"/>
			<path d="M354.1,489c-1.5-2.1-2.9-4-4.3-5.7c2.8-1.1,7.6-4,7.6-11.2c0-7.6-5.7-12.4-14.5-12.4h-9.1l0.1,0.7
				c0.1,1.5,0.2,5.4,0.2,10.5v19.7c0,4.9-0.1,8.6-0.2,10.2l-0.1,0.7h6.6l-0.1-0.7c-0.1-1.5-0.2-5.2-0.2-10.2v-5.9h2.6
				c0.5,0,1,0,1.6-0.1c4.1,7,9.8,14.5,11.5,16.6l0.2,0.2h8.4l-1.1-1.1C360.3,497.4,357.1,493.1,354.1,489 M340.1,464.6h2.6
				c5.9,0,8.5,3.8,8.5,7.5c0,4.5-3.3,7.6-8,7.6h-3.2V464.6z"/>
			<path d="M381.6,496H377v-14.4h4.1c4.2,0,7.4,0.1,9.2,0.2l0.7,0v-5.7l-0.7,0c-1.8,0.1-5,0.2-9.2,0.2H377v-11.7h4.1
				c4.8,0,8.4,0.1,9.9,0.2l0.7,0.1v-5.8l-0.7,0c-1.8,0.1-5.9,0.2-9.9,0.2h-10.4l0,0.7c0.1,1.7,0.2,6.3,0.2,10.5v19.4
				c0,2.7-0.1,7.3-0.2,10.6l0,0.6h10.9c4.4,0,8.3,0.1,9.9,0.2l0.7,0v-5.7l-0.7,0C389.9,496,386,496,381.6,496"/>
			<path d="M415,477.5c-3.5-2.3-6.5-4.3-6.5-7.9c0-3.7,2.4-5.9,6.2-5.9c3.5,0,6,1.2,6.9,3.4l1.2,2.9v-10.1l-0.5-0.1
				c-0.9-0.1-1.7-0.3-2.6-0.5c-1.4-0.3-2.9-0.6-4.9-0.6c-7.5,0-12.3,4.5-12.3,11.5c0,6.6,4.6,9.7,8.6,12.4c3.5,2.3,6.4,4.3,6.4,8
				c0,3.9-2.5,6.5-6.4,6.5c-3.7,0-7.4-1.7-8.8-4.1l-1.1-1.9v9.5l0.5,0.1c1,0.2,2,0.4,2.9,0.6c1.9,0.4,3.8,0.9,6.4,0.9
				c7.6,0,12.8-5,12.8-12.1C423.9,483.4,419.2,480.3,415,477.5"/>
			<path d="M212.1,527.8c0,0,1.3,1.7,3.4,1.7c1.1,0,2-0.5,2-1.5c0-2-6.2-1.8-6.2-5.5c0-2.2,1.9-3.2,4.2-3.2c1.4,0,3.7,0.5,3.7,2.2
				v1.1h-1.9v-0.6c0-0.7-1-1-1.7-1c-1.3,0-2.1,0.4-2.1,1.3c0,2.1,6.2,1.7,6.2,5.5c0,2-1.8,3.3-4.2,3.3c-3,0-4.5-2-4.5-2L212.1,527.8
				z"/>
			<path d="M222.3,517.6c0-0.3-0.2-0.5-0.5-0.5h-0.9v-1.9h2.1c1,0,1.4,0.3,1.4,1.3v7.3h1c0.4,0,0.9-0.1,1.2-0.5l2.6-3.7h2.5
				l-3.1,4.2c-0.5,0.7-0.9,0.8-0.9,0.8v0c0,0,0.4,0.1,0.8,0.9l1.7,3.1c0.2,0.4,0.4,0.4,1,0.4h0.7v1.9h-1.6c-1.1,0-1.4-0.2-1.9-1
				l-2.1-3.8c-0.2-0.4-0.8-0.5-1.1-0.5h-0.9v5.3h-2.2V517.6z"/>
			<path d="M232.3,533.8c0.8,0,2.4-0.3,2.4-2.5v-9.2c0-0.3-0.2-0.5-0.5-0.5h-0.9v-1.9h2.1c1,0,1.4,0.4,1.4,1.4v10.3
				c0,3.8-2.9,4.2-4.3,4.2c-0.4,0-0.7,0-0.7,0v-1.9C231.8,533.7,232,533.8,232.3,533.8 M234.7,515.2h2v2.3h-2V515.2z"/>
			<path d="M245.1,519.4c3.2,0,4.9,2.4,4.9,5.3c0,0.3-0.1,0.9-0.1,0.9h-8.3c0.1,2.4,1.9,3.8,3.9,3.8c1.9,0,3.3-1.3,3.3-1.3l0.9,1.5
				c0,0-1.7,1.7-4.4,1.7c-3.6,0-6-2.6-6-5.9C239.4,521.8,241.9,519.4,245.1,519.4 M247.8,524c-0.1-1.9-1.3-2.9-2.7-2.9
				c-1.7,0-3,1-3.3,2.9H247.8z"/>
			<path d="M252.9,522.1c0-0.3-0.2-0.5-0.5-0.5h-0.9v-1.9h2.1c1,0,1.5,0.4,1.5,1.3v0.7c0,0.4,0,0.8,0,0.8h0c0.5-1.7,1.8-3,3.6-3
				c0.3,0,0.6,0,0.6,0v2.1c0,0-0.3-0.1-0.6-0.1c-1.4,0-2.7,1-3.2,2.7c-0.2,0.6-0.3,1.3-0.3,2v4.6h-2.2V522.1z"/>
			<path d="M261.7,522.1c0-0.3-0.2-0.5-0.5-0.5h-0.9v-1.9h2c1,0,1.4,0.4,1.4,1.1c0,0.3,0,0.6,0,0.6h0c0,0,0.9-2,3.8-2
				c3,0,5,2.4,5,5.9c0,3.6-2.2,5.9-5.1,5.9c-2.5,0-3.5-1.8-3.5-1.8h0c0,0,0,0.4,0,1v5h-2.2V522.1z M267,529.4c1.8,0,3.3-1.5,3.3-4
				c0-2.5-1.3-4-3.2-4c-1.7,0-3.3,1.2-3.3,4.1C263.8,527.4,264.9,529.4,267,529.4"/>
			<path d="M279.8,519.4c3.2,0,4.9,2.4,4.9,5.3c0,0.3-0.1,0.9-0.1,0.9h-8.3c0.1,2.4,1.9,3.8,3.9,3.8c1.9,0,3.3-1.3,3.3-1.3l0.9,1.5
				c0,0-1.7,1.7-4.4,1.7c-3.6,0-6-2.6-6-5.9C274.1,521.8,276.6,519.4,279.8,519.4 M282.4,524c-0.1-1.9-1.3-2.9-2.7-2.9
				c-1.7,0-3,1-3.3,2.9H282.4z"/>
			<path d="M287.5,522.1c0-0.3-0.2-0.5-0.5-0.5h-0.9v-1.9h2.1c1,0,1.5,0.4,1.5,1.3v0.7c0,0.4,0,0.8,0,0.8h0c0.5-1.7,1.8-3,3.6-3
				c0.3,0,0.6,0,0.6,0v2.1c0,0-0.3-0.1-0.6-0.1c-1.4,0-2.7,1-3.2,2.7c-0.2,0.6-0.3,1.3-0.3,2v4.6h-2.2V522.1z"/>
			<path d="M302,527.8c0,0,1.3,1.7,3.4,1.7c1.1,0,2-0.5,2-1.5c0-2-6.2-1.8-6.2-5.5c0-2.2,1.9-3.2,4.2-3.2c1.4,0,3.7,0.5,3.7,2.2v1.1
				h-1.9v-0.6c0-0.7-1-1-1.7-1c-1.3,0-2.1,0.4-2.1,1.3c0,2.1,6.2,1.7,6.2,5.5c0,2-1.8,3.3-4.2,3.3c-3,0-4.5-2-4.5-2L302,527.8z"/>
			<path d="M318.1,524h0.5v-0.1c0-2-0.7-2.7-2.5-2.7c-0.5,0-1.9,0.1-1.9,0.9v0.6h-2v-1.1c0-1.9,2.8-2.1,3.9-2.1
				c3.7,0,4.7,1.9,4.7,4.4v4.8c0,0.3,0.2,0.5,0.5,0.5h0.9v1.9h-2c-1,0-1.4-0.5-1.4-1.3c0-0.4,0-0.7,0-0.7h0c0,0-0.9,2.2-3.6,2.2
				c-1.9,0-3.8-1.2-3.8-3.4C311.3,524.2,316.2,524,318.1,524 M315.6,529.5c1.8,0,3-1.9,3-3.6v-0.4h-0.6c-1.6,0-4.6,0.1-4.6,2.2
				C313.5,528.6,314.2,529.5,315.6,529.5"/>
			<path d="M324.5,522.1c0-0.3-0.2-0.5-0.5-0.5h-0.9v-1.9h2.1c1,0,1.4,0.4,1.4,1.3v0.4c0,0.4,0,0.6,0,0.6h0c0.4-1,1.8-2.6,4.3-2.6
				c2.7,0,3.9,1.5,3.9,4.3v4.9c0,0.3,0.2,0.5,0.5,0.5h0.9v1.9H334c-1,0-1.4-0.4-1.4-1.4v-5.3c0-1.6-0.3-2.8-2.1-2.8
				c-1.7,0-3.1,1.1-3.6,2.8c-0.2,0.4-0.2,1-0.2,1.5v5.3h-2.2V522.1z"/>
			<path d="M338.4,527.8c0,0,1.3,1.7,3.4,1.7c1.1,0,2-0.5,2-1.5c0-2-6.2-1.8-6.2-5.5c0-2.2,1.9-3.2,4.2-3.2c1.4,0,3.7,0.5,3.7,2.2
				v1.1h-1.9v-0.6c0-0.7-1-1-1.7-1c-1.3,0-2.1,0.4-2.1,1.3c0,2.1,6.2,1.7,6.2,5.5c0,2-1.8,3.3-4.2,3.3c-3,0-4.5-2-4.5-2L338.4,527.8
				z"/>
			<path d="M354.4,524h0.5v-0.1c0-2-0.7-2.7-2.5-2.7c-0.5,0-1.9,0.1-1.9,0.9v0.6h-2v-1.1c0-1.9,2.8-2.1,3.9-2.1
				c3.7,0,4.7,1.9,4.7,4.4v4.8c0,0.3,0.2,0.5,0.5,0.5h0.9v1.9h-2c-1,0-1.4-0.5-1.4-1.3c0-0.4,0-0.7,0-0.7h0c0,0-0.9,2.2-3.6,2.2
				c-1.9,0-3.8-1.2-3.8-3.4C347.6,524.2,352.5,524,354.4,524 M351.9,529.5c1.8,0,3-1.9,3-3.6v-0.4h-0.6c-1.6,0-4.6,0.1-4.6,2.2
				C349.8,528.6,350.5,529.5,351.9,529.5"/>
			<path d="M360.9,522.1c0-0.3-0.2-0.5-0.5-0.5h-0.9v-1.9h2.1c1,0,1.4,0.4,1.4,1.3v0.4c0,0.4,0,0.6,0,0.6h0c0.4-1,1.8-2.6,4.3-2.6
				c2.7,0,3.9,1.5,3.9,4.3v4.9c0,0.3,0.2,0.5,0.5,0.5h0.9v1.9h-2.1c-1,0-1.4-0.4-1.4-1.4v-5.3c0-1.6-0.3-2.8-2.1-2.8
				c-1.7,0-3.1,1.1-3.6,2.8c-0.2,0.4-0.2,1-0.2,1.5v5.3h-2.2V522.1z"/>
			<path d="M379.4,519.4c3.2,0,4.9,2.4,4.9,5.3c0,0.3-0.1,0.9-0.1,0.9H376c0.1,2.4,1.9,3.8,3.9,3.8c1.9,0,3.3-1.3,3.3-1.3l0.9,1.5
				c0,0-1.7,1.7-4.4,1.7c-3.6,0-6-2.6-6-5.9C373.8,521.8,376.2,519.4,379.4,519.4 M382.1,524c-0.1-1.9-1.3-2.9-2.7-2.9
				c-1.7,0-3,1-3.3,2.9H382.1z"/>
		</g>
	</g>
</g>
</svg>
